<?xml version="1.0" encoding="UTF-8"?>
<svg width="53px" height="63px" viewBox="0 0 53 63" version="1.1" xmlns="http://www.w3.org/2000/svg" xmlns:xlink="http://www.w3.org/1999/xlink">
    <!-- Generator: Sketch 52.4 (67378) - http://www.bohemiancoding.com/sketch -->
    <title>lightbulb (2)</title>
    <desc>Created with Sketch.</desc>
    <g id="Rebranding" stroke="none" stroke-width="1" fill="none" fill-rule="evenodd">
        <g id="Token-Metrics-Desktop-Copy" transform="translate(-1221.000000, -1031.000000)">
            <g id="Group-33" transform="translate(1107.000000, 998.000000)">
                <g id="lightbulb-(2)" transform="translate(114.000000, 33.000000)">
                    <path d="M36.6220159,41.0265487 C33.6697613,44 34.0387931,50 34.0387931,50 L19.0666446,50 C19.0666446,50 19.3829576,44 16.4834218,41.0265487 C13.2675729,38.159292 11.2115385,34.0176991 11.2115385,29.3982301 C11.2115385,20.9026549 18.0649867,14 26.5,14 C34.9350133,14 41.7884615,20.9026549 41.7884615,29.3982301 C41.7884615,34.0176991 39.7851459,38.159292 36.6220159,41.0265487 Z" id="Path" fill="#FFD517"></path>
                    <g id="Group" transform="translate(18.346154, 53.000000)" fill="#E5E5E5">
                        <path d="M16.2688773,1.53529412 C16.2688773,2.32941176 15.6219606,2.96470588 14.8133147,2.96470588 L1.49761221,2.96470588 C0.688966306,2.96470588 0.0420495868,2.32941176 0.0420495868,1.53529412 C0.0420495868,0.741176471 0.688966306,0.105882353 1.49761221,0.105882353 L14.759405,0.105882353 C15.5680509,0.105882353 16.2688773,0.741176471 16.2688773,1.53529412 Z" id="Path"></path>
                        <path d="M14.2742174,7.46470588 C14.2742174,8.25882353 13.6273007,8.89411765 12.8186548,8.89411765 L3.49227209,8.89411765 C2.68362619,8.89411765 2.03670947,8.25882353 2.03670947,7.46470588 C2.03670947,6.67058824 2.68362619,6.03529412 3.49227209,6.03529412 L12.8186548,6.03529412 C13.6273007,6.03529412 14.2742174,6.67058824 14.2742174,7.46470588 Z" id="Path"></path>
                    </g>
                    <g id="Group" fill="#210B20">
                        <path d="M37.418793,41.7031185 C40.855202,38.6120582 42.8113117,34.2636175 42.8113117,29.7056133 C42.8113117,20.7991684 35.4626833,13.5168399 26.4751521,13.5168399 C17.4876209,13.5168399 10.1389925,20.7991684 10.1389925,29.7056133 C10.1389925,34.3683992 12.2008379,38.8216216 15.6901147,41.8602911 C18.2806384,44.4274428 18.0162993,49.8760915 18.0162993,49.9284823 C18.0162993,50.1904366 18.1220349,50.4523909 18.2806384,50.6619543 C18.4921097,50.8715177 18.7564489,50.9762994 19.020788,50.9762994 L33.982384,50.9762994 C34.2467232,50.9762994 34.5110623,50.8715177 34.7225337,50.6619543 C34.934005,50.4523909 34.9868728,50.1904366 34.9868728,49.9284823 C34.9868728,49.8760915 34.7225337,44.4274428 37.3130574,41.8602911 C37.3659252,41.8079002 37.418793,41.7555094 37.418793,41.7031185 Z M35.9384938,40.3933472 C35.8327581,40.445738 35.7798903,40.5505198 35.7270224,40.6553015 C33.4008379,43.1176715 33.0307631,47.1517672 32.9778953,49.0378378 L20.0252768,49.0378378 C19.972409,47.0993763 19.5494663,42.9081081 17.0646783,40.445738 C13.9454763,37.7214137 12.1479701,33.8444906 12.1479701,29.7580042 C12.1479701,21.8993763 18.5978454,15.5600832 26.4751521,15.5600832 C34.4053267,15.5600832 40.8023342,21.9517672 40.8023342,29.7580042 C40.8023342,33.7920998 39.0576958,37.7214137 35.9384938,40.3933472 Z" id="Shape" fill-rule="nonzero"></path>
                        <path d="M26.4751521,17.7081081 C25.9464738,17.7081081 25.4706633,18.1272349 25.4706633,18.7035343 C25.4706633,19.2274428 25.893606,19.6989605 26.4751521,19.6989605 C32.3963491,19.6989605 37.2073217,24.4665281 37.2073217,30.3343035 C37.2073217,30.8582121 37.6302643,31.3297297 38.2118105,31.3297297 C38.7404888,31.3297297 39.2162993,30.9106029 39.2162993,30.3343035 C39.2162993,23.3663202 33.5065736,17.7081081 26.4751521,17.7081081 Z" id="Path"></path>
                        <path d="M35.4626833,54.6960499 C35.4626833,53.3338877 34.3524589,52.2860707 33.0307631,52.2860707 L19.972409,52.2860707 C18.5978454,52.2860707 17.5404888,53.3862786 17.5404888,54.6960499 C17.5404888,56.0582121 18.6507132,57.1060291 19.972409,57.1060291 L32.9778953,57.1060291 C34.3524589,57.1060291 35.4626833,56.0582121 35.4626833,54.6960499 Z M32.9778953,55.1151767 L19.972409,55.1151767 C19.7080698,55.1151767 19.5494663,54.9056133 19.5494663,54.6960499 C19.5494663,54.4340956 19.7609377,54.2769231 19.972409,54.2769231 L32.9778953,54.2769231 C33.2422344,54.2769231 33.4008379,54.4864865 33.4008379,54.6960499 C33.4537057,54.9580042 33.2422344,55.1151767 32.9778953,55.1151767 Z" id="Shape" fill-rule="nonzero"></path>
                        <path d="M31.0746534,58.1538462 L21.9285187,58.1538462 C20.5539551,58.1538462 19.4965985,59.2540541 19.4965985,60.5638254 C19.4965985,61.9259875 20.6068229,62.9738046 21.9285187,62.9738046 L31.0746534,62.9738046 C32.449217,62.9738046 33.5065736,61.8735967 33.5065736,60.5638254 C33.5065736,59.2540541 32.3963491,58.1538462 31.0746534,58.1538462 Z M31.0746534,60.9829522 L21.9285187,60.9829522 C21.6641796,60.9829522 21.5055761,60.7733888 21.5055761,60.5638254 C21.5055761,60.3018711 21.7170474,60.1446985 21.9285187,60.1446985 L31.0746534,60.1446985 C31.3389925,60.1446985 31.497596,60.354262 31.497596,60.5638254 C31.497596,60.8257796 31.3389925,60.9829522 31.0746534,60.9829522 Z" id="Shape" fill-rule="nonzero"></path>
                        <path d="M27.4796409,7.7014553 L27.4796409,0.995426195 C27.4796409,0.471517672 27.0566983,0 26.4751521,0 C25.9464738,0 25.4706633,0.419126819 25.4706633,0.995426195 L25.4706633,7.75384615 C25.4706633,8.27775468 25.893606,8.74927235 26.4751521,8.74927235 C27.0566983,8.6968815 27.4796409,8.27775468 27.4796409,7.7014553 Z" id="Path"></path>
                        <path d="M43.1285187,4.97713098 C42.6527082,4.66278586 42.0711621,4.81995842 41.7539551,5.23908524 L38.0003392,10.8449064 C37.6831322,11.3164241 37.8417357,11.8927235 38.2646783,12.2070686 C38.4232818,12.3118503 38.6347531,12.3642412 38.7933566,12.3642412 C39.1105636,12.3642412 39.4277706,12.2070686 39.6392419,11.9451143 L43.3928579,6.33929314 C43.7100648,5.92016632 43.5514613,5.29147609 43.1285187,4.97713098 Z" id="Path"></path>
                        <path d="M14.5270224,12.1546778 C14.6856259,12.1546778 14.8970973,12.1022869 15.0557007,11.9975052 C15.5315112,11.6831601 15.6372469,11.1068607 15.3729077,10.635343 L11.7250274,4.97713098 C11.4078204,4.50561331 10.8262743,4.4008316 10.3504638,4.66278586 C9.87465337,4.97713098 9.76891771,5.55343035 10.0332569,6.02494802 L13.6811372,11.6831601 C13.8926085,11.9975052 14.2098155,12.1546778 14.5270224,12.1546778 Z" id="Path"></path>
                        <path d="M0.517047382,16.8698545 L6.49111222,20.0656965 C6.64971571,20.1704782 6.8083192,20.1704782 6.96692269,20.1704782 C7.33699751,20.1704782 7.65420449,19.9609148 7.86567581,19.6465696 C8.13001496,19.175052 7.97141147,18.5463617 7.44273317,18.2844075 L1.46866833,15.0885655 C0.992857855,14.8266112 0.35844389,14.9837838 0.0941047382,15.5076923 C-0.117366584,16.0316008 0.0412369077,16.6079002 0.517047382,16.8698545 Z" id="Path"></path>
                        <path d="M45.9833815,20.222869 C46.141985,20.222869 46.3005885,20.1704782 46.459192,20.1180873 L52.4332569,16.9222453 C52.9090673,16.6602911 53.1205387,16.0839917 52.8561995,15.5600832 C52.5918603,15.0885655 52.0103142,14.8790021 51.4816359,15.1409563 L45.5075711,18.3367983 C45.0317606,18.5987526 44.8202893,19.175052 45.0846284,19.6989605 C45.2432319,20.0133056 45.6133067,20.222869 45.9833815,20.222869 Z" id="Path"></path>
                    </g>
                </g>
            </g>
        </g>
    </g>
</svg>