<svg xmlns="http://www.w3.org/2000/svg" width="13" height="11" viewBox="0 0 13 11">
    <g fill="none" fill-rule="evenodd">
        <path fill="#000" fill-opacity=".54" d="M12.292 1.531a4.92 4.92 0 0 1-1.25 1.302v.313c0 1.823-.656 3.476-1.966 4.96-1.311 1.485-3.052 2.227-5.222 2.227A6.956 6.956 0 0 1 0 9.187c.278.035.477.053.599.053a4.899 4.899 0 0 0 3.125-1.094 2.535 2.535 0 0 1-1.458-.508 2.386 2.386 0 0 1-.886-1.237c.209.035.365.052.469.052.174 0 .4-.035.677-.104a2.546 2.546 0 0 1-1.445-.872 2.4 2.4 0 0 1-.586-1.602v-.026c.382.208.764.312 1.146.312C.894 3.675.52 2.972.52 2.052c0-.434.113-.85.338-1.25 1.337 1.65 3.065 2.526 5.183 2.63-.035-.121-.052-.312-.052-.573 0-.711.243-1.31.729-1.796.486-.487 1.085-.73 1.797-.73.711 0 1.32.27 1.823.808.52-.087 1.059-.296 1.614-.625-.173.607-.547 1.076-1.12 1.406a4.3 4.3 0 0 0 1.459-.39z"/>
        <path d="M-2-3h16v16H-2z"/>
    </g>
</svg>
