<svg xmlns="http://www.w3.org/2000/svg" width="20" height="20" viewBox="0 0 20 20">
    <g fill="none" fill-rule="evenodd">
        <path d="M-2-2h24v24H-2z"/>
        <path fill="#FF5700" d="M12.221 13.025c.1.1.1.256 0 .346-.636.636-1.864.691-2.221.691s-1.585-.055-2.221-.691c-.1-.09-.1-.246 0-.346.09-.09.246-.09.335 0 .402.412 1.272.546 1.886.546.614 0 1.473-.133 1.886-.546.09-.09.246-.09.335 0zm-3.426-2.02a.996.996 0 0 1-.994.993.998.998 0 1 1 0-1.998c.547 0 .994.446.994 1.004zm4.408 0a.998.998 0 0 1-1.004.993.996.996 0 0 1-.994-.994.998.998 0 1 1 1.998 0zm2.801-1.34c0-.736-.602-1.328-1.339-1.328-.38 0-.714.156-.96.402-.904-.625-2.12-1.027-3.47-1.072l.703-3.158 2.232.502c0 .547.446.993.993.993.558 0 1.004-.457 1.004-1.004 0-.547-.446-1.004-1.004-1.004-.39 0-.726.234-.893.558l-2.466-.547c-.123-.034-.246.056-.28.178l-.77 3.482c-1.339.056-2.544.458-3.448 1.083a1.34 1.34 0 0 0-.971-.413c-.737 0-1.34.592-1.34 1.328 0 .536.313.982.76 1.206-.045.2-.067.412-.067.625 0 2.12 2.388 3.839 5.323 3.839 2.947 0 5.335-1.719 5.335-3.84 0-.212-.022-.435-.078-.636a1.34 1.34 0 0 0 .736-1.194zM20 10c0 5.525-4.475 10-10 10S0 15.525 0 10 4.475 0 10 0s10 4.475 10 10z"/>
    </g>
</svg>