<svg xmlns="http://www.w3.org/2000/svg" xmlns:xlink="http://www.w3.org/1999/xlink" width="14" height="8" viewBox="0 0 14 8">
    <defs>
        <path id="a" d="M1.6 4c0-1.14.927-2.067 2.067-2.067h2.666V.667H3.667a3.335 3.335 0 0 0 0 6.666h2.666V6.067H3.667A2.068 2.068 0 0 1 1.6 4zm2.733.667h5.334V3.333H4.333v1.334zm6-4H7.667v1.266h2.666c1.14 0 2.067.927 2.067 2.067 0 1.14-.927 2.067-2.067 2.067H7.667v1.266h2.666a3.335 3.335 0 0 0 0-6.666z"/>
    </defs>
    <g fill="none" fill-rule="evenodd">
        <g>
            <mask id="b" fill="#fff">
                <use xlink:href="#a"/>
            </mask>
            <g fill="#000" fill-opacity=".54" mask="url(#b)">
                <path d="M-1-4h16v16H-1z"/>
            </g>
        </g>
        <path d="M-1-4h16v16H-1z"/>
    </g>
</svg>
