<svg xmlns="http://www.w3.org/2000/svg" width="19" height="15" viewBox="0 0 19 15">
    <g fill="none" fill-rule="evenodd">
        <path fill="#2FAEED" d="M18.438 1.797c-.47.729-1.094 1.38-1.875 1.953v.469c0 2.734-.984 5.215-2.95 7.441C11.647 13.887 9.036 15 5.781 15c-2.083 0-4.01-.573-5.781-1.719.417.052.716.078.898.078 1.745 0 3.308-.546 4.688-1.64a3.803 3.803 0 0 1-2.188-.762A3.578 3.578 0 0 1 2.07 9.102a4.7 4.7 0 0 0 .703.078c.26 0 .6-.052 1.016-.157a3.818 3.818 0 0 1-2.168-1.308 3.6 3.6 0 0 1-.879-2.402v-.04c.573.313 1.146.47 1.719.47C1.34 5.012.78 3.957.78 2.577c0-.65.17-1.276.508-1.875 2.005 2.474 4.596 3.79 7.774 3.945-.053-.182-.079-.468-.079-.859 0-1.068.365-1.966 1.094-2.695C10.808.364 11.706 0 12.773 0c1.068 0 1.98.404 2.735 1.21.781-.13 1.588-.442 2.422-.937-.26.912-.82 1.615-1.68 2.11a6.451 6.451 0 0 0 2.188-.586z"/>
        <path d="M-3-5h24v24H-3z"/>
    </g>
</svg>