<?xml version="1.0" encoding="utf-8"?>
<!-- Generator: Adobe Illustrator 21.1.0, SVG Export Plug-In . SVG Version: 6.00 Build 0)  -->
<svg version="1.1" id="Layer_1" xmlns="http://www.w3.org/2000/svg" xmlns:xlink="http://www.w3.org/1999/xlink" x="0px" y="0px"
	 viewBox="0 0 64 64" style="enable-background:new 0 0 64 64;" xml:space="preserve">
<style type="text/css">
	.st0{fill:#FFFFFF;}
</style>
<path class="st0" d="M52.6,15.1c1-1,1-2.7,0-3.7c-1-1-2.7-1-3.7,0c-4.8-4.8-12.6-4.8-17.3,0L19.9,23.1c-1,1-2.2,1.4-4.4,0.7
	c-1.4-0.4-3.4-0.3-4.4,0.7c-1,1-2.5,2.5-2.5,2.5l0,0c-2.2,2.5,1,9.6,7.4,16.6c0.2-1.1,0.6-2.1,1.3-3.1c-4.9-5.7-6.5-10-6.4-11.5
	c0,0,0,0,0.1,0c2.6,0,8.6,3.3,14.6,9.4c0.4,0.4,0.7,0.7,1,1.1C25.7,39.2,24.8,39,24,39c-1.6,0-3.2,0.6-4.4,1.8
	c-0.4,0.4-0.7,0.8-1,1.3c0,0,0,0,0,0c0,0,0,0,0,0c-0.3,0.5-0.5,1.1-0.6,1.6c0,0,0,0.1,0,0.1c-0.1,0.3-0.1,0.6-0.1,0.8c0,0,0,0,0,0
	c0,0.3,0,0.5,0,0.8c0,0,0,0,0,0.1c0,0,0,0,0,0c0.1,1.5,0.7,2.9,1.8,4c1.2,1.2,2.8,1.8,4.4,1.8c0.2,0,0.3,0,0.5,0l0,0h0
	c0.3,0,0.6-0.1,0.9-0.1c0,0,0,0,0,0c0.6-0.1,1.1-0.3,1.7-0.6c0,0,0,0,0,0c0.5-0.3,0.9-0.6,1.3-1c1.7-1.7,2.2-4,1.6-6.1
	c3.7,4.8,5,8.4,4.9,9.7c0,0,0,0-0.1,0c-1.2,0-3-0.7-5.2-2c-0.8,0.8-1.8,1.4-2.9,1.8c3.2,2,6.1,3.2,8.1,3.2c0.9,0,1.6-0.2,2.2-0.7
	l0,0c0,0,1.5-1.5,2.5-2.5c1-1,0.8-3,0.7-4.4c-0.1-1.5-0.3-3.4,0.7-4.4l11.7-11.7C57.4,27.7,57.4,19.9,52.6,15.1z"/>
</svg>
