<?xml version="1.0" encoding="utf-8"?>
<!-- Generator: Adobe Illustrator 21.1.0, SVG Export Plug-In . SVG Version: 6.00 Build 0)  -->
<svg version="1.1" id="Layer_1" xmlns:sketch="http://www.bohemiancoding.com/sketch/ns"
	 xmlns="http://www.w3.org/2000/svg" xmlns:xlink="http://www.w3.org/1999/xlink" x="0px" y="0px" viewBox="0 0 32 32"
	 style="enable-background:new 0 0 32 32;" xml:space="preserve">
<style type="text/css">
	.st0{fill:#FFFFFF;}
</style>
<title></title>
<g id="Icons_new_Arranged_Names">
	<g id="_x38_9_Compass">
		<path id="Oval_278" class="st0" d="M16,30C8.3,30,2,23.7,2,16S8.3,2,16,2s14,6.3,14,14S23.7,30,16,30z M18.8,18.8
			c-1.8,1.8-10.6,4.9-10.6,4.9s3.2-8.8,4.9-10.6s10.6-4.9,10.6-4.9S20.6,17.1,18.8,18.8z M16,28c6.6,0,12-5.4,12-12S22.6,4,16,4
			S4,9.4,4,16S9.4,28,16,28z M14.6,17.4c0.8,0.8,2,0.8,2.8,0c0.8-0.8,0.8-2,0-2.8c-0.8-0.8-2-0.8-2.8,0
			C13.8,15.4,13.8,16.6,14.6,17.4z"/>
	</g>
</g>
</svg>
