<?xml version="1.0" encoding="utf-8"?>
<!-- Generator: Adobe Illustrator 21.1.0, SVG Export Plug-In . SVG Version: 6.00 Build 0)  -->
<svg version="1.1" id="Layer_1" xmlns="http://www.w3.org/2000/svg" xmlns:xlink="http://www.w3.org/1999/xlink" x="0px" y="0px"
	 viewBox="0 0 66 88" style="enable-background:new 0 0 66 88;" xml:space="preserve">
<style type="text/css">
	.st0{fill:#FFFFFF;}
</style>
<path class="st0" d="M51.1,77.8c6.7-1.5,11.7-7.7,11.7-14.9c0-4.5-2.1-8.5-5.3-11.3c0.2-1.2,0.3-2.4,0.3-3.6
	c0-8.1-3.9-15.3-9.9-19.8l5-5v-5l5-5l-5-5l-5,5h-5L23.1,33.1l-9.9,5V48l5,5H28l5-9.9l7.4-7.4c4.3,2.6,7.4,7,7.4,12.4
	C39.7,48,33,54.7,33,62.9H3.2v5h14.9c1.5,1.1,3.3,1.7,5,2.5v7.4h-9.9l-9.9,9.9h59.5l-9.9-9.9H51.1z M42.9,62.9c0-2.7,2.2-5,5-5
	s5,2.2,5,5c0,2.7-2.2,5-5,5S42.9,65.6,42.9,62.9z"/>
</svg>
