<?xml version="1.0" encoding="utf-8"?>
<!-- Generator: Adobe Illustrator 21.1.0, SVG Export Plug-In . SVG Version: 6.00 Build 0)  -->
<svg version="1.1"
	 id="svg4475" xmlns:cc="http://creativecommons.org/ns#" xmlns:dc="http://purl.org/dc/elements/1.1/" xmlns:inkscape="http://www.inkscape.org/namespaces/inkscape" xmlns:rdf="http://www.w3.org/1999/02/22-rdf-syntax-ns#" xmlns:sodipodi="http://sodipodi.sourceforge.net/DTD/sodipodi-0.dtd" xmlns:svg="http://www.w3.org/2000/svg"
	 xmlns="http://www.w3.org/2000/svg" xmlns:xlink="http://www.w3.org/1999/xlink" x="0px" y="0px" viewBox="0 0 26 27.1"
	 style="enable-background:new 0 0 26 27.1;" xml:space="preserve">
<style type="text/css">
	.st0{fill:#FFFFFF;}
</style>
<g id="layer1" transform="translate(0,-1020.3622)">
	<g id="g10414" transform="translate(309.5948,-461.25192)">
		<g id="g15415" transform="translate(66.405195,515.25192)">
			<g id="g15417" transform="translate(-150,-49.999983)">
				<g id="g14600" transform="translate(-49.999995,-130.00002)">
					<path id="path11440" class="st0" d="M-152.4,1146.4c-0.2,0.1-0.4,0.3-0.3,0.6l-9.7,2.6c-0.3,0.1-0.4,0.4-0.3,0.6c0,0,0,0,0,0
						l0.1,0.5l-8.2,2.2c-0.3,0.1-0.4,0.3-0.4,0.6l0.1,0.5l-3.9,1.1l-0.1-0.2c0-0.2-0.3-0.2-0.6-0.2c-0.3,0.1-0.4,0.3-0.4,0.4
						l0.9,3.3c0,0.2,0.3,0.2,0.6,0.2c0.3-0.1,0.4-0.3,0.4-0.4l-0.1-0.2l3.9-1.1l0.1,0.5c0.1,0.3,0.4,0.4,0.6,0.3c0,0,0,0,0,0l3.6-1
						v0.7h-0.5c0,0-0.1,0-0.1,0c-0.2,0.1-0.4,0.3-0.4,0.5v2c0,0.2,0.1,0.4,0.4,0.5c0,0,0.1,0,0.1,0h0.2l-4.8,8.3c-1.1,0-2,1-2,2.2
						c0,0.2,0.2,0.5,0.4,0.5c0,0,0.1,0,0.1,0h1.5h1.5c0.3,0,0.5-0.2,0.5-0.5c0-0.8-0.4-1.5-1-1.8l5-8.7h0.1v10.4
						c-0.9,0.2-1.6,1.1-1.6,2.1c0,0.2,0.2,0.5,0.4,0.5c0,0,0.1,0,0.1,0h1.5h1.5c0.3,0,0.5-0.2,0.5-0.5c0-1-0.6-1.8-1.4-2v-10.5h0.1
						l5,8.6c-0.7,0.4-1.1,1.1-1.1,1.9c0,0.2,0.2,0.5,0.4,0.5c0,0,0.1,0,0.1,0h1.5h1.5c0.3,0,0.5-0.2,0.5-0.5c0-1.1-0.8-2.1-1.9-2.1
						l-4.8-8.4h0.3c0,0,0.1,0,0.1,0c0.2-0.1,0.4-0.3,0.4-0.5v-2c0,0,0-0.1,0-0.1c0-0.2-0.2-0.4-0.4-0.4c0,0-0.1,0-0.1,0h-0.5v-1.5
						l1.6-0.4l0.1,0.5c0.1,0.3,0.3,0.4,0.6,0.3l9.7-2.6c0.1,0.3,0.3,0.4,0.6,0.4c0.3-0.1,0.4-0.4,0.3-0.7l-0.1-0.4c0,0,0,0,0,0
						l-1.5-5.8c0,0,0-0.1-0.1-0.1l-0.1-0.2C-151.9,1146.5-152.1,1146.3-152.4,1146.4z M-152.5,1147.9l0.9,3.4l0.4,1.5l-9.2,2.5
						l-0.2-0.5c-0.1-0.3-0.3-0.4-0.6-0.3l-4.4,1.2c0,0,0,0-0.1,0l-3.8,1l-0.1-0.5c-0.1-0.3-0.3-0.4-0.6-0.3l-4.4,1.2l-0.1-0.5
						l-0.1-0.5l4.3-1.2c0.3-0.1,0.4-0.3,0.4-0.6c0,0,0,0,0,0l-0.2-0.5l8.2-2.2c0.3-0.1,0.4-0.4,0.3-0.6c0,0,0,0,0,0l-0.1-0.5
						L-152.5,1147.9z M-163.9,1156.2v1.2h-1v-1L-163.9,1156.2z M-165.9,1158.4h3v1h-3V1158.4z M-171,1169.8c0.4,0,0.7,0.3,0.8,0.7
						h-0.8h-0.8C-171.6,1170.1-171.4,1169.8-171,1169.8z M-158,1169.8c0.4,0,0.7,0.3,0.8,0.7h-0.8h-0.8
						C-158.6,1170.1-158.4,1169.8-158,1169.8z M-164.5,1171.8c0.4,0,0.7,0.3,0.8,0.7h-0.8h-0.8
						C-165.1,1172.1-164.9,1171.8-164.5,1171.8z"/>
				</g>
			</g>
		</g>
	</g>
</g>
</svg>
