<?xml version="1.0" encoding="utf-8"?>
<!-- Generator: Adobe Illustrator 21.1.0, SVG Export Plug-In . SVG Version: 6.00 Build 0)  -->
<svg version="1.1" id="icon" xmlns="http://www.w3.org/2000/svg" xmlns:xlink="http://www.w3.org/1999/xlink" x="0px" y="0px"
	 viewBox="0 0 104 121.6" style="enable-background:new 0 0 104 121.6;" xml:space="preserve">
<style type="text/css">
	.st0{fill:#FFFFFF;}
</style>
<path id="cup" class="st0" d="M70.1,79.1c-2.2,3.9-4.6,7.6-7.3,11.2c-0.6,0.9-1.6,1.3-2.6,1.3c-0.7,0-1.4-0.2-2-0.7
	c-1.4-1.1-1.7-3.1-0.7-4.6C67.6,73,76.9,55,77.4,13.8H26.6C27.1,55,36.4,73,46.4,86.4c1.1,1.4,0.8,3.5-0.7,4.6
	c-1.4,1.1-3.5,0.8-4.6-0.7c-2.7-3.6-5.1-7.3-7.3-11.2C17.1,78.2,3.7,64.3,3.7,47.2c0-4.2,0.8-8.3,2.4-12.2c1.6-3.9,3.9-7.4,6.9-10.4
	c1.3-1.3,3.4-1.3,4.6,0s1.3,3.4,0,4.6c-2.4,2.4-4.2,5.1-5.5,8.2c-1.3,3.1-1.9,6.4-1.9,9.7c0,12.2,8.7,22.4,20.2,24.8
	c-7.2-16.1-10.3-35.4-10.3-61.5c0-1.8,1.5-3.3,3.3-3.3h57.3c1.8,0,3.3,1.5,3.3,3.3c0,26.1-3.1,45.4-10.3,61.5
	c11.5-2.4,20.2-12.6,20.2-24.8c0-3.4-0.6-6.6-1.9-9.7c-1.3-3.1-3.1-5.9-5.5-8.2c-1.3-1.3-1.3-3.4,0-4.6c1.3-1.3,3.4-1.3,4.6,0
	c3,3,5.3,6.5,6.9,10.4c1.6,3.9,2.4,8,2.4,12.2C100.3,64.3,86.9,78.2,70.1,79.1z M28.2,117.1c0,1.8,1.5,3.3,3.3,3.3h41
	c1.8,0,3.3-1.5,3.3-3.3c0-1.8-1.5-3.3-3.3-3.3h-41C29.7,113.8,28.2,115.3,28.2,117.1z M64.3,104c1.8,0,3.3-1.5,3.3-3.3
	s-1.5-3.3-3.3-3.3H39.7c-1.8,0-3.3,1.5-3.3,3.3s1.5,3.3,3.3,3.3H64.3z"/>
</svg>
