<?xml version="1.0" standalone="no"?>
<!DOCTYPE svg PUBLIC "-//W3C//DTD SVG 1.1//EN" "http://www.w3.org/Graphics/SVG/1.1/DTD/svg11.dtd" >
<svg xmlns="http://www.w3.org/2000/svg" width="100%" height="100%">
<metadata>
Created by FontXChange 20110222 at Sun Feb  9 16:26:21 2014
 By ʟ̶̷̲̅ᴜ̶̷̲̅ᴄ̶̷̲̅ᴀ̶̷̲̅s̶̷̲̅ғ̶̷̲̅ᴀ̶̷̲̅ʏ̶̷̲̅ᴏ̶̷̲̅ʟ̶̷̲̅ʟ̶̷̲̅ᴇ̶̷̲̅
Copyright (c) 2004 Linotype Library GmbH, www.linotype.com. All rights reserved. This software may not be reproduced, used, displayed, modified, disclosed or transferred without the express written approval of Linotype Library GmbH. Avenir is a trademark of Heidelberger Druckmaschinen AG, exclusively licensed through Linotype Library GmbH, and may be registered in certain jurisdictions. This typeface is original artwork of Adrian Frutiger. The design may be protected in certain jurisdictions.
</metadata>
<defs>
<font id="AvenirNextLTPro-Bold" horiz-adv-x="300" >
  <font-face 
    font-family="AvenirNextLTPro"
    font-weight="700"
    font-stretch="normal"
    units-per-em="1000"
    panose-1="2 11 8 4 2 2 2 2 2 4"
    ascent="756"
    descent="-244"
    x-height="498"
    cap-height="708"
    bbox="-194 -250 1210 963"
    underline-thickness="50"
    underline-position="-50"
    stemh="122"
    stemv="167"
    unicode-range="U+000D-FB02"
  />
<missing-glyph horiz-adv-x="512" 
d="M222 117h56v67h-56v-67zM225 234h46c0 35 2 59 6 72s18 30 43 52c51 47 63 77 63 120c0 79 -53 131 -124 131c-72 0 -126 -42 -135 -137l50 -8c8 68 41 95 82 95s76 -37 76 -85c0 -25 -7 -42 -50 -83c-22 -22 -37 -42 -46 -59s-13 -44 -13 -81zM462 50h-412v617h412v-617
zM512 718h-512v-718h512v718z" />
    <glyph glyph-name="fi" unicode="fi" horiz-adv-x="665" 
d="M611 657c0 -51 -43 -90 -94 -90c-53 0 -94 41 -94 90c0 48 41 90 94 90c51 0 94 -40 94 -90zM599 0h-165v498h165v-498zM384 765l-11 -130c-12 4 -29 7 -45 7c-60 0 -73 -48 -73 -94v-50h111v-123h-111v-375h-164v375h-91v123h91v48c0 122 48 229 214 229
c28 0 57 -3 79 -10z" />
    <glyph glyph-name="fl" unicode="fl" horiz-adv-x="666" 
d="M600 0h-166v756h166v-756zM384 765l-11 -130c-12 4 -29 7 -45 7c-60 0 -73 -48 -73 -94v-50h111v-123h-111v-375h-164v375h-91v123h91v48c0 122 48 229 214 229c28 0 57 -3 79 -10z" />
    <glyph glyph-name="napostrophe" unicode="&#x22;n" horiz-adv-x="706" 
d="M646 0h-165v272c0 55 -15 105 -74 105c-58 0 -88 -50 -88 -107v-270h-165v498h159v-69h2c23 44 80 83 149 83c134 0 182 -104 182 -204v-308zM203 708l-86 -195h-126l67 195h145z" />
    <glyph glyph-name="ij" unicode="ij" horiz-adv-x="589" 
d="M242 657c0 -51 -42 -90 -94 -90c-53 0 -94 41 -94 90c0 48 41 90 94 90c52 0 94 -40 94 -90zM230 0h-164v498h164v-498zM535 657c0 -51 -42 -90 -94 -90c-53 0 -94 41 -94 90c0 48 41 90 94 90c52 0 94 -40 94 -90zM523 -13c0 -123 -38 -227 -199 -227c-22 0 -53 3 -71 8
l11 137c12 -4 26 -5 35 -5c48 0 60 36 60 87v511h164v-511z" />
    <glyph glyph-name="IJ" unicode="IJ" horiz-adv-x="837" 
d="M245 0h-172v708h172v-708zM768 242c0 -112 -40 -261 -233 -261c-119 0 -204 69 -230 166l151 51c9 -37 35 -62 71 -62c56 0 69 43 69 105v467h172v-466z" />
    <glyph glyph-name=".notdef" horiz-adv-x="512" 
d="M222 117h56v67h-56v-67zM225 234h46c0 35 2 59 6 72s18 30 43 52c51 47 63 77 63 120c0 79 -53 131 -124 131c-72 0 -126 -42 -135 -137l50 -8c8 68 41 95 82 95s76 -37 76 -85c0 -25 -7 -42 -50 -83c-22 -22 -37 -42 -46 -59s-13 -44 -13 -81zM462 50h-412v617h412v-617
zM512 718h-512v-718h512v718z" />
    <glyph glyph-name="exclam" unicode="!" horiz-adv-x="357" 
d="M262 237h-168v471h168v-471zM276 85c0 -53 -44 -95 -98 -95c-52 0 -97 41 -97 94c0 52 43 95 97 95s98 -42 98 -94z" />
    <glyph glyph-name="quotedbl" unicode="&#x22;" horiz-adv-x="498" 
d="M411 437h-130v271h130v-271zM217 437h-131v271h131v-271z" />
    <glyph glyph-name="numbersign" unicode="#" horiz-adv-x="603" 
d="M557 404h-99l-14 -100h85v-104h-98l-30 -200h-110l29 200h-79l-29 -200h-110l29 200h-85v104h99l15 100h-85v104h98l29 200h111l-29 -200h78l29 200h110l-28 -200h84v-104zM348 404h-79l-13 -100h78z" />
    <glyph glyph-name="dollar" unicode="$" horiz-adv-x="646" 
d="M360 786v-68c75 -2 162 -26 224 -76c-32 -37 -64 -73 -97 -109c-33 33 -85 53 -127 54v-160c103 -31 227 -75 227 -218c0 -146 -114 -215 -231 -219v-73h-74v73c-86 3 -181 33 -247 92c35 36 71 73 105 110c36 -39 98 -68 142 -69v175c-115 31 -218 75 -218 209
c0 131 118 205 223 210v69h73zM287 444v145c-36 -4 -70 -27 -70 -71c0 -42 28 -63 70 -74zM356 280v-158c45 2 73 32 73 78s-31 67 -73 80z" />
    <glyph glyph-name="percent" unicode="%" horiz-adv-x="911" 
d="M889 177c0 -105 -85 -189 -190 -189s-190 84 -190 189s85 189 190 189s190 -84 190 -189zM777 177c0 43 -36 78 -78 78c-43 0 -78 -35 -78 -78s35 -77 78 -77c42 0 78 34 78 77zM409 531c0 -104 -85 -189 -190 -189s-190 85 -190 189c0 106 85 189 190 189
s190 -83 190 -189zM297 531c0 43 -35 78 -78 78s-78 -35 -78 -78s35 -77 78 -77s78 34 78 77zM713 695l-417 -729l-89 44l413 730z" />
    <glyph glyph-name="ampersand" unicode="&#x26;" horiz-adv-x="781" 
d="M780 0h-207l-67 69c-45 -48 -109 -83 -207 -83c-129 0 -254 67 -254 211c0 100 70 162 148 196c-44 43 -73 93 -73 154c0 128 116 180 221 180c108 0 216 -55 216 -180c0 -90 -64 -146 -142 -185l89 -91l71 109h182l-153 -205zM410 542c0 36 -26 65 -67 65
c-39 0 -68 -28 -68 -65c0 -33 19 -64 53 -92c45 18 82 49 82 92zM409 169l-125 130c-40 -16 -75 -42 -75 -95c0 -56 49 -89 96 -89c44 0 79 20 104 54z" />
    <glyph glyph-name="quoteright" unicode="&#x2019;" 
d="M258 708l-91 -271h-126l72 271h145z" />
    <glyph glyph-name="parenleft" unicode="(" horiz-adv-x="342" 
d="M288 -111l-112 -55c-94 130 -147 291 -147 454s53 324 147 454l112 -55c-84 -115 -130 -254 -130 -399s46 -284 130 -399z" />
    <glyph glyph-name="parenright" unicode=")" horiz-adv-x="342" 
d="M313 288c0 -163 -53 -324 -147 -454l-112 55c84 115 130 254 130 399s-46 284 -130 399l112 55c94 -130 147 -291 147 -454z" />
    <glyph glyph-name="asterisk" unicode="*" horiz-adv-x="489" 
d="M461 518l-128 -40l81 -107l-90 -63l-81 109l-79 -105l-88 63l81 104l-129 43l35 100l127 -44v130h110v-130l127 40z" />
    <glyph glyph-name="plus" unicode="+" horiz-adv-x="666" 
d="M611 240h-212v-209h-130v209h-213v126h212v209h130v-209h213v-126z" />
    <glyph glyph-name="comma" unicode="," 
d="M252 160l-97 -284h-135l75 284h157z" />
    <glyph glyph-name="hyphen" unicode="-" horiz-adv-x="326" 
d="M290 197h-254v130h254v-130z" />
    <glyph glyph-name="period" unicode="." 
d="M251 88c0 -55 -46 -98 -100 -98c-55 0 -102 42 -102 97c0 54 46 99 102 99c54 0 100 -43 100 -98z" />
    <glyph glyph-name="slash" unicode="/" horiz-adv-x="415" 
d="M415 723l-309 -775l-113 37l309 777z" />
    <glyph glyph-name="zero" unicode="0" horiz-adv-x="646" 
d="M600 356c0 -201 -76 -375 -276 -375c-201 0 -278 174 -278 375c0 200 77 371 278 371c200 0 276 -171 276 -371zM428 356c0 89 -16 229 -104 229c-89 0 -106 -140 -106 -229c0 -91 17 -231 106 -231c88 0 104 140 104 231z" />
    <glyph glyph-name="one" unicode="1" horiz-adv-x="646" 
d="M451 0h-168v520l-132 -102l-87 119l233 171h154v-708z" />
    <glyph glyph-name="two" unicode="2" horiz-adv-x="646" 
d="M580 0h-512v140l276 250c35 33 58 66 58 109c0 50 -35 85 -88 85c-56 0 -93 -44 -100 -107l-161 22c16 143 132 228 270 228c130 0 256 -69 256 -217c0 -101 -59 -160 -124 -218l-164 -146h289v-146z" />
    <glyph glyph-name="three" unicode="3" horiz-adv-x="646" 
d="M583 206c0 -155 -137 -225 -267 -225c-129 0 -246 56 -284 188l156 41c13 -47 56 -88 120 -88c48 0 103 24 103 90c0 72 -74 93 -144 93h-45v123h49c63 0 124 16 124 84c0 51 -43 78 -89 78c-48 0 -86 -31 -97 -79l-156 36c34 119 146 180 264 180
c125 0 249 -64 249 -200c0 -78 -50 -136 -119 -154v-3c80 -19 136 -85 136 -164z" />
    <glyph glyph-name="four" unicode="4" horiz-adv-x="646" 
d="M612 138h-97v-138h-157v138h-333v141l288 429h201v-434h98v-136zM359 274v262h-3l-168 -262h171z" />
    <glyph glyph-name="five" unicode="5" horiz-adv-x="646" 
d="M582 234c0 -172 -134 -253 -273 -253c-129 0 -236 68 -269 180l153 47c15 -49 59 -85 114 -85c57 0 106 35 106 103c0 84 -76 108 -145 108c-50 0 -123 -13 -173 -31l17 405h434v-144h-285l-6 -112c21 5 50 7 71 7c142 0 256 -76 256 -225z" />
    <glyph glyph-name="six" unicode="6" horiz-adv-x="646" 
d="M601 238c0 -161 -126 -257 -279 -257c-154 0 -279 98 -279 253c0 84 32 149 79 219l171 255h203l-174 -242l-3 -5c13 5 34 8 50 8c124 0 232 -93 232 -231zM433 234c0 64 -44 111 -110 111s-112 -46 -112 -112c0 -61 44 -112 111 -112c66 0 111 46 111 113z" />
    <glyph glyph-name="seven" unicode="7" horiz-adv-x="646" 
d="M577 574l-271 -574h-195l287 564h-335v144h514v-134z" />
    <glyph glyph-name="eight" unicode="8" horiz-adv-x="646" 
d="M589 202c0 -149 -126 -221 -266 -221s-266 71 -266 220c0 86 58 147 127 169v2c-61 23 -108 75 -108 153c0 131 116 202 247 202c130 0 247 -68 247 -199c0 -78 -45 -134 -108 -155v-3c71 -20 127 -85 127 -168zM408 516c0 46 -38 81 -85 81c-50 0 -84 -35 -84 -81
c0 -45 32 -84 84 -84c49 0 85 39 85 84zM421 208c0 54 -41 96 -98 96c-58 0 -99 -41 -99 -96c0 -57 41 -94 99 -94s98 37 98 94z" />
    <glyph glyph-name="nine" unicode="9" horiz-adv-x="646" 
d="M602 474c0 -84 -32 -149 -79 -219l-171 -255h-203l176 244l2 3c-14 -5 -34 -8 -50 -8c-124 0 -233 93 -233 231c0 161 126 257 279 257c155 0 279 -98 279 -253zM434 476c0 61 -43 113 -110 113s-112 -47 -112 -114c0 -64 44 -111 110 -111s112 46 112 112z" />
    <glyph glyph-name="colon" unicode=":" horiz-adv-x="332" 
d="M264 410c0 -53 -45 -96 -97 -96c-53 0 -99 41 -99 94s45 96 99 96c52 0 97 -42 97 -94zM264 89c0 -53 -45 -95 -97 -95c-53 0 -99 41 -99 94s45 96 99 96c52 0 97 -42 97 -95z" />
    <glyph glyph-name="semicolon" unicode=";" horiz-adv-x="332" 
d="M264 410c0 -53 -44 -95 -97 -95c-52 0 -98 41 -98 94s44 96 98 96c52 0 97 -42 97 -95zM265 160l-97 -284h-138l75 284h160z" />
    <glyph glyph-name="less" unicode="&#x3c;" horiz-adv-x="666" 
d="M587 37l-508 214v103l508 214v-136l-306 -131l306 -127v-137z" />
    <glyph glyph-name="equal" unicode="=" horiz-adv-x="666" 
d="M598 335h-530v123h530v-123zM598 150h-530v123h530v-123z" />
    <glyph glyph-name="greater" unicode="&#x3e;" horiz-adv-x="666" 
d="M587 251l-508 -214v137l306 127l-306 131v136l508 -214v-103z" />
    <glyph glyph-name="question" unicode="?" horiz-adv-x="546" 
d="M527 527c0 -88 -43 -129 -112 -182c-43 -34 -54 -51 -54 -93v-26h-156v38c0 70 27 104 79 150l33 31c23 20 41 40 41 71c0 42 -28 70 -73 70c-55 0 -84 -45 -86 -93l-159 17c15 145 123 217 251 217c119 0 236 -61 236 -200zM381 85c0 -53 -43 -95 -97 -95
c-53 0 -98 41 -98 94c0 52 44 95 98 95c53 0 97 -42 97 -94z" />
    <glyph glyph-name="at" unicode="@" horiz-adv-x="800" 
d="M774 401c0 -153 -89 -241 -205 -241c-53 0 -90 26 -95 64h-4c-18 -31 -59 -64 -119 -64c-90 0 -144 70 -144 169c0 113 76 225 192 225c51 0 86 -25 95 -54h1l7 34h108l-31 -157c-7 -32 -13 -63 -13 -83c0 -19 6 -36 29 -36c40 0 77 46 77 139c0 156 -107 238 -259 238
c-163 0 -274 -121 -274 -282c0 -170 119 -277 287 -277c95 0 171 32 230 86l63 -70c-77 -75 -183 -110 -304 -110c-227 0 -386 154 -386 371c0 213 173 373 385 373c188 0 360 -110 360 -325zM465 379c0 40 -11 78 -56 78c-50 0 -83 -69 -83 -128c0 -33 12 -70 55 -70
c59 0 84 70 84 120z" />
    <glyph glyph-name="A" unicode="A" horiz-adv-x="729" 
d="M743 0h-190l-55 139h-274l-52 -139h-186l297 708h166zM451 276l-88 243l-90 -243h178z" />
    <glyph glyph-name="B" unicode="B" horiz-adv-x="665" 
d="M625 206c0 -154 -135 -206 -270 -206h-282v708h282c110 0 241 -39 241 -182c0 -78 -47 -130 -116 -153v-2c81 -14 145 -72 145 -165zM431 503c0 48 -37 69 -109 69h-84v-146h92c64 0 101 27 101 77zM454 222c0 59 -48 78 -121 78h-95v-162h96c54 0 120 15 120 84z" />
    <glyph glyph-name="C" unicode="C" horiz-adv-x="696" 
d="M696 98c-62 -72 -156 -117 -275 -117c-218 0 -381 152 -381 374c0 227 168 372 384 372c99 0 206 -36 265 -104l-116 -116c-32 44 -89 65 -143 65c-119 0 -204 -92 -204 -217c0 -129 83 -217 201 -217c67 0 120 30 150 72z" />
    <glyph glyph-name="D" unicode="D" horiz-adv-x="774" 
d="M734 356c0 -249 -202 -356 -397 -356h-264v708h256c201 0 405 -84 405 -352zM556 356c0 159 -113 206 -231 206h-85v-414h81c122 0 235 50 235 208z" />
    <glyph glyph-name="E" unicode="E" horiz-adv-x="607" 
d="M567 0h-494v708h476v-145h-311v-133h294v-137h-294v-147h329v-146z" />
    <glyph glyph-name="F" unicode="F" horiz-adv-x="576" 
d="M539 562h-297v-146h274v-141h-274v-275h-169v708h466v-146z" />
    <glyph glyph-name="G" unicode="G" horiz-adv-x="769" 
d="M702 43c-69 -36 -164 -61 -273 -61c-226 0 -389 150 -389 373c0 227 168 372 384 372c111 0 214 -37 273 -94l-108 -123c-33 38 -90 66 -159 66c-120 0 -208 -94 -208 -221c0 -130 77 -223 216 -223c40 0 77 6 107 19v129h-135v138h292v-375z" />
    <glyph glyph-name="H" unicode="H" horiz-adv-x="764" 
d="M691 0h-171v296h-276v-296h-171v708h171v-268h276v268h171v-708z" />
    <glyph glyph-name="I" unicode="I" horiz-adv-x="318" 
d="M245 0h-172v708h172v-708z" />
    <glyph glyph-name="J" unicode="J" horiz-adv-x="529" 
d="M460 242c0 -112 -40 -261 -233 -261c-119 0 -204 69 -230 166l151 51c9 -37 35 -62 71 -62c56 0 69 43 69 105v467h172v-466z" />
    <glyph glyph-name="K" unicode="K" horiz-adv-x="711" 
d="M729 0h-223l-263 326h-2v-326h-168v708h168v-288h3l253 288h214l-305 -326z" />
    <glyph glyph-name="L" unicode="L" horiz-adv-x="526" 
d="M519 0h-446v708h172v-559h274v-149z" />
    <glyph glyph-name="M" unicode="M" horiz-adv-x="955" 
d="M882 0h-167l4 501h-3l-184 -501h-120l-179 501h-3l4 -501h-161v708h243l161 -454h4l154 454h247v-708z" />
    <glyph glyph-name="N" unicode="N" horiz-adv-x="790" 
d="M717 0h-194l-285 463h-3l4 -463h-166v708h195l284 -462h3l-4 462h166v-708z" />
    <glyph glyph-name="O" unicode="O" horiz-adv-x="851" 
d="M811 357c0 -224 -164 -376 -386 -376c-221 0 -385 152 -385 376c0 227 164 370 385 370c222 0 386 -143 386 -370zM628 357c0 124 -83 216 -203 216s-202 -92 -202 -216c0 -128 83 -220 202 -220s203 92 203 220z" />
    <glyph glyph-name="P" unicode="P" horiz-adv-x="640" 
d="M610 490c0 -164 -133 -223 -281 -223h-85v-267h-171v708h260c155 0 277 -56 277 -218zM439 489c0 68 -59 81 -120 81h-75v-167h72c64 0 123 19 123 86z" />
    <glyph glyph-name="Q" unicode="Q" horiz-adv-x="857" 
d="M845 0h-431c-225 0 -378 131 -378 363c0 215 165 364 384 364c220 0 381 -148 381 -361c0 -108 -54 -191 -105 -230v-3l149 3v-136zM620 361c0 123 -82 211 -200 211c-114 0 -200 -88 -200 -211c0 -127 82 -215 199 -215c116 0 201 88 201 215z" />
    <glyph glyph-name="R" unicode="R" horiz-adv-x="663" 
d="M652 0h-200l-153 281h-58v-281h-168v708h270c136 0 271 -52 271 -214c0 -95 -56 -163 -147 -191zM445 491c0 66 -63 79 -114 79h-91v-165h81c55 0 124 14 124 86z" />
    <glyph glyph-name="S" unicode="S" horiz-adv-x="591" 
d="M556 639l-109 -115c-29 37 -82 61 -126 61s-99 -15 -99 -71c0 -47 42 -62 109 -83c96 -31 220 -72 220 -213c0 -163 -131 -236 -271 -236c-101 0 -203 37 -265 102l112 114c34 -43 97 -75 153 -75c52 0 98 20 98 77c0 54 -54 71 -147 101c-90 29 -181 75 -181 203
c0 157 142 222 274 222c80 0 170 -30 232 -87z" />
    <glyph glyph-name="T" unicode="T" horiz-adv-x="581" 
d="M576 562h-200v-562h-171v562h-200v146h571v-146z" />
    <glyph glyph-name="U" unicode="U" horiz-adv-x="738" 
d="M673 267c0 -170 -120 -286 -305 -286c-186 0 -302 116 -302 286v441h170v-427c0 -76 37 -146 133 -146c97 0 133 70 133 146v427h171v-441z" />
    <glyph glyph-name="V" unicode="V" horiz-adv-x="682" 
d="M697 708l-273 -708h-171l-268 708h192l164 -502h4l163 502h189z" />
    <glyph glyph-name="W" unicode="W" horiz-adv-x="1025" 
d="M1025 708l-202 -708h-169l-140 479h-3l-140 -479h-170l-201 708h184l112 -471h3l126 471h178l127 -471h3l114 471h178z" />
    <glyph glyph-name="X" unicode="X" horiz-adv-x="703" 
d="M711 0h-211l-155 250l-149 -250h-204l248 374l-228 334h206l132 -220l130 220h199l-224 -334z" />
    <glyph glyph-name="Y" unicode="Y" horiz-adv-x="669" 
d="M689 708l-272 -408v-300h-171v300l-266 408h207l151 -262l151 262h200z" />
    <glyph glyph-name="Z" unicode="Z" horiz-adv-x="635" 
d="M597 0h-558v148l337 415h-329v145h543v-137l-345 -423h352v-148z" />
    <glyph glyph-name="bracketleft" unicode="[" horiz-adv-x="342" 
d="M269 -156h-216v888h216v-102h-89v-684h89v-102z" />
    <glyph glyph-name="backslash" unicode="\" horiz-adv-x="415" 
d="M422 -15l-113 -37l-308 775l113 39z" />
    <glyph glyph-name="bracketright" unicode="]" horiz-adv-x="342" 
d="M289 -156h-216v102h89v684h-89v102h216v-888z" />
    <glyph glyph-name="asciicircum" unicode="^" horiz-adv-x="690" 
d="M616 343h-148l-124 213l-123 -213h-148l213 365h118z" />
    <glyph glyph-name="underscore" unicode="_" horiz-adv-x="500" 
d="M500 -164h-500v89h500v-89z" />
    <glyph glyph-name="quoteleft" unicode="&#x2018;" 
d="M259 708l-72 -271h-145l91 271h126z" />
    <glyph glyph-name="a" unicode="a" horiz-adv-x="566" 
d="M358 200v17h-21c-72 0 -153 -9 -153 -68c0 -38 38 -51 71 -51c66 0 103 40 103 102zM140 341l-83 89c58 55 141 84 222 84c167 0 229 -82 229 -263v-251h-150v53h-3c-25 -41 -82 -65 -141 -65c-79 0 -181 39 -181 156c0 144 175 168 320 168v8c0 49 -39 72 -90 72
c-47 0 -93 -23 -123 -51z" />
    <glyph glyph-name="b" unicode="b" horiz-adv-x="659" 
d="M619 251c0 -139 -87 -265 -237 -265c-66 0 -131 29 -163 79h-2v-65h-151v756h164v-311h2c28 33 79 67 152 67c145 0 235 -122 235 -261zM461 251c0 64 -40 127 -118 127c-74 0 -120 -65 -120 -128c0 -65 46 -128 120 -128c78 0 118 64 118 129z" />
    <glyph glyph-name="c" unicode="c" horiz-adv-x="503" 
d="M502 447l-95 -110c-18 24 -54 40 -87 40c-69 0 -115 -59 -115 -128s45 -127 117 -127c33 0 69 13 89 37l91 -111c-41 -40 -111 -64 -184 -64c-157 0 -279 100 -279 265c0 162 123 265 278 265c71 0 146 -27 185 -67z" />
    <glyph glyph-name="d" unicode="d" horiz-adv-x="658" 
d="M592 0h-151v65h-2c-32 -50 -97 -79 -163 -79c-150 0 -237 126 -237 265s90 261 235 261c73 0 124 -34 152 -67h2v311h164v-756zM435 250c0 63 -46 128 -120 128c-78 0 -118 -63 -118 -127c0 -65 40 -129 118 -129c74 0 120 63 120 128z" />
    <glyph glyph-name="e" unicode="e" horiz-adv-x="596" 
d="M196 306h211c0 52 -33 95 -98 95c-63 0 -109 -44 -113 -95zM558 243c0 -13 0 -27 -1 -39h-361c5 -55 60 -94 119 -94c52 0 88 22 110 52l114 -72c-47 -68 -125 -106 -226 -106c-150 0 -274 95 -274 263c0 163 118 267 269 267c147 0 250 -101 250 -271z" />
    <glyph glyph-name="f" unicode="f" horiz-adv-x="364" 
d="M384 765l-11 -130c-12 4 -29 7 -45 7c-60 0 -73 -48 -73 -94v-50h111v-123h-111v-375h-164v375h-91v123h91v48c0 122 48 229 214 229c28 0 57 -3 79 -10z" />
    <glyph glyph-name="g" unicode="g" horiz-adv-x="658" 
d="M592 47c0 -195 -116 -287 -293 -287c-87 0 -189 28 -256 78l82 117c48 -42 109 -63 165 -63c96 0 141 56 141 139v30h-3c-31 -40 -85 -66 -151 -66c-151 0 -238 118 -238 256s87 261 237 261c62 0 124 -25 159 -78h2v64h155v-451zM436 252c0 68 -47 126 -121 126
s-117 -57 -117 -126c0 -66 43 -127 117 -127c75 0 121 59 121 127z" />
    <glyph glyph-name="h" unicode="h" horiz-adv-x="617" 
d="M557 0h-165v270c0 56 -14 105 -73 105c-57 0 -89 -47 -89 -106v-269h-164v756h164v-321h2c22 40 74 77 143 77c135 0 182 -104 182 -204v-308z" />
    <glyph glyph-name="i" unicode="i" horiz-adv-x="296" 
d="M242 657c0 -51 -42 -90 -94 -90c-53 0 -94 41 -94 90c0 48 41 90 94 90c52 0 94 -40 94 -90zM230 0h-164v498h164v-498z" />
    <glyph glyph-name="j" unicode="j" horiz-adv-x="299" 
d="M245 657c0 -51 -42 -90 -94 -90c-53 0 -94 41 -94 90c0 48 41 90 94 90c52 0 94 -40 94 -90zM233 -13c0 -123 -38 -227 -199 -227c-22 0 -53 3 -71 8l11 137c12 -4 26 -5 35 -5c48 0 60 36 60 87v511h164v-511z" />
    <glyph glyph-name="k" unicode="k" horiz-adv-x="595" 
d="M399 273l200 -273h-203l-163 239h-3v-239h-165v756h165v-460h3l159 202h199z" />
    <glyph glyph-name="l" unicode="l" horiz-adv-x="298" 
d="M232 0h-166v756h166v-756z" />
    <glyph glyph-name="m" unicode="m" horiz-adv-x="924" 
d="M864 0h-164v272c0 57 -13 105 -71 105c-56 0 -83 -52 -83 -108v-269h-164v284c0 57 -22 93 -71 93c-52 0 -82 -47 -82 -107v-270h-165v498h159v-69h2c23 42 74 83 149 83c72 0 122 -31 150 -85c33 52 85 85 159 85c135 0 181 -110 181 -204v-308z" />
    <glyph glyph-name="n" unicode="n" horiz-adv-x="616" 
d="M556 0h-165v272c0 55 -15 105 -74 105c-58 0 -88 -50 -88 -107v-270h-165v498h159v-69h2c23 44 80 83 149 83c134 0 182 -104 182 -204v-308z" />
    <glyph glyph-name="o" unicode="o" horiz-adv-x="632" 
d="M592 251c0 -163 -126 -267 -277 -267c-150 0 -276 104 -276 267s126 263 276 263c151 0 277 -100 277 -263zM434 251c0 64 -42 127 -119 127s-117 -63 -117 -127s41 -129 118 -129s118 65 118 129z" />
    <glyph glyph-name="p" unicode="p" horiz-adv-x="657" 
d="M618 251c0 -139 -87 -265 -237 -265c-61 0 -120 26 -151 69h-2v-295h-164v738h156v-61h3c30 40 86 75 159 75c145 0 236 -122 236 -261zM459 251c0 64 -39 127 -117 127c-74 0 -120 -65 -120 -128c0 -65 46 -128 120 -128c78 0 117 64 117 129z" />
    <glyph glyph-name="q" unicode="q" horiz-adv-x="657" 
d="M592 -240h-163v295h-2c-32 -43 -90 -69 -151 -69c-151 0 -237 126 -237 265s90 261 235 261c74 0 130 -35 160 -75h3v61h155v-738zM435 250c0 63 -46 128 -120 128c-78 0 -118 -63 -118 -127c0 -65 40 -129 118 -129c74 0 120 63 120 128z" />
    <glyph glyph-name="r" unicode="r" horiz-adv-x="396" 
d="M394 508l-7 -144c-15 4 -29 5 -42 5c-88 0 -117 -72 -117 -113v-256h-164v498h158v-72h2c25 50 74 86 135 86c13 0 27 -1 35 -4z" />
    <glyph glyph-name="s" unicode="s" horiz-adv-x="472" 
d="M447 444l-90 -93c-26 25 -64 45 -104 45c-31 0 -62 -11 -62 -40c0 -28 27 -36 91 -50c76 -17 159 -55 159 -152c0 -126 -111 -170 -213 -170c-81 0 -165 27 -217 77l92 97c29 -32 74 -56 122 -56c27 0 59 11 59 43c0 31 -31 41 -99 57c-69 16 -145 51 -145 145
c0 119 112 167 207 167c74 0 151 -24 200 -70z" />
    <glyph glyph-name="t" unicode="t" horiz-adv-x="372" 
d="M359 375h-117v-190c0 -46 15 -70 62 -70c16 0 36 3 48 8l2 -120c-22 -8 -60 -15 -95 -15c-133 0 -177 71 -177 177v210h-80v123h79v131h161v-131h117v-123z" />
    <glyph glyph-name="u" unicode="u" horiz-adv-x="614" 
d="M550 0h-158v69h-2c-23 -44 -80 -83 -150 -83c-134 0 -181 104 -181 204v308h165v-270c0 -56 14 -106 74 -106c57 0 88 50 88 107v269h164v-498z" />
    <glyph glyph-name="v" unicode="v" horiz-adv-x="567" 
d="M568 498l-196 -498h-177l-196 498h181l105 -323h3l105 323h175z" />
    <glyph glyph-name="w" unicode="w" horiz-adv-x="871" 
d="M871 498l-173 -498h-165l-98 310h-2l-96 -310h-165l-172 498h177l86 -315h3l89 315h165l92 -315h2l87 315h170z" />
    <glyph glyph-name="x" unicode="x" horiz-adv-x="594" 
d="M597 0h-193l-107 153l-110 -153h-190l199 261l-180 237h191l93 -133l94 133h185l-179 -237z" />
    <glyph glyph-name="y" unicode="y" horiz-adv-x="567" 
d="M568 498l-223 -573c-40 -104 -94 -165 -219 -165c-31 0 -66 5 -90 11l18 138c16 -5 37 -9 53 -9c51 0 68 24 84 67l16 41l-208 490h182l111 -320h3l99 320h174z" />
    <glyph glyph-name="z" unicode="z" horiz-adv-x="512" 
d="M478 0h-444v128l234 244h-225v126h425v-123l-241 -248h251v-127z" />
    <glyph glyph-name="braceleft" unicode="{" horiz-adv-x="342" 
d="M292 -156h-82c-83 0 -137 58 -137 148v167c0 61 -34 74 -67 74v110c33 0 67 13 67 70v171c0 90 54 148 137 148h82v-105h-47c-39 0 -46 -31 -46 -60v-167c0 -78 -61 -107 -93 -111v-2c32 -3 93 -28 93 -115v-163c0 -29 7 -60 46 -60h47v-105z" />
    <glyph glyph-name="bar" unicode="|" horiz-adv-x="241" 
d="M186 -250h-130l-1 1000h131v-1000z" />
    <glyph glyph-name="braceright" unicode="}" horiz-adv-x="342" 
d="M336 233c-33 0 -67 -13 -67 -74v-167c0 -90 -54 -148 -137 -148h-82v105h47c39 0 46 31 46 60v163c0 87 61 112 93 115v2c-32 4 -93 33 -93 111v167c0 29 -7 60 -46 60h-47v105h82c83 0 137 -58 137 -148v-171c0 -57 34 -70 67 -70v-110z" />
    <glyph glyph-name="asciitilde" unicode="~" horiz-adv-x="666" 
d="M593 287v-2c-30 -51 -69 -100 -139 -100c-42 0 -71 12 -112 38c-40 25 -70 38 -107 38c-39 0 -64 -29 -84 -70l-66 104c31 60 75 99 137 99c43 0 80 -13 120 -37c45 -26 76 -40 99 -40c37 0 63 35 87 71z" />
    <glyph glyph-name="exclamdown" unicode="&#xa1;" horiz-adv-x="357" 
d="M276 423c0 -52 -44 -94 -98 -94s-97 43 -97 95c0 53 45 94 97 94c54 0 98 -42 98 -95zM262 -200h-168v471h168v-471z" />
    <glyph glyph-name="cent" unicode="&#xa2;" horiz-adv-x="646" 
d="M550 51c-39 -39 -100 -60 -160 -65v-65h-76v65c-141 16 -233 122 -233 264c0 143 93 242 233 262v64h76v-64c61 -4 122 -24 159 -63l-83 -104c-20 21 -46 35 -76 39v-270c31 3 59 18 79 39zM314 116v266c-60 -14 -92 -68 -92 -133c0 -63 34 -117 92 -133z" />
    <glyph glyph-name="sterling" unicode="&#xa3;" horiz-adv-x="646" 
d="M625 658l-96 -110c-21 23 -56 38 -92 38c-83 0 -105 -66 -105 -119v-51h156v-115h-156v-160h259v-141h-519v141h95v160h-95v115h95v61c0 109 73 250 260 250c86 0 153 -28 198 -69z" />
    <glyph glyph-name="fraction" unicode="&#x2044;" horiz-adv-x="100" 
d="M281 699l-388 -729l-87 39l388 731z" />
    <glyph glyph-name="yen" unicode="&#xa5;" horiz-adv-x="646" 
d="M637 708l-179 -292h124v-103h-179v-65h179v-103h-179v-145h-158v145h-178v103h178v65h-178v103h127l-182 292h185l132 -260l129 260h179z" />
    <glyph glyph-name="florin" unicode="&#x192;" horiz-adv-x="646" 
d="M528 436v-113h-148l-55 -274c-24 -121 -85 -188 -205 -188c-42 0 -87 10 -122 28l58 120c16 -11 35 -16 50 -16c44 0 60 36 70 89l49 241h-114v113h134l16 78c22 105 62 209 208 209c55 0 101 -13 137 -34l-60 -121c-20 12 -40 18 -57 18c-47 0 -63 -37 -73 -85l-14 -65
h126z" />
    <glyph glyph-name="section" unicode="&#xa7;" horiz-adv-x="607" 
d="M562 279c0 -53 -30 -100 -75 -125c36 -25 50 -66 50 -110c0 -138 -133 -192 -244 -192c-95 0 -200 41 -253 121l122 87c30 -51 89 -73 134 -73c33 0 73 17 73 51c0 44 -39 58 -131 90c-99 34 -176 71 -176 170c0 68 40 112 86 138c-35 26 -53 65 -53 113
c0 124 128 177 230 177c98 0 182 -36 228 -103l-116 -88c-24 37 -67 60 -105 60c-33 0 -71 -15 -71 -49c0 -36 40 -55 117 -82c100 -37 184 -82 184 -185zM414 263c0 40 -38 59 -78 76l-86 35c-22 -9 -41 -25 -41 -53c0 -41 39 -56 80 -72l94 -37c20 9 31 30 31 51z" />
    <glyph glyph-name="currency" unicode="&#xa4;" horiz-adv-x="950" 
d="M713 459c26 -40 42 -91 42 -150c0 -61 -16 -113 -45 -155l93 -93l-84 -84c-32 31 -65 64 -97 96c-41 -25 -92 -39 -146 -39c-51 0 -98 12 -147 41c-33 -33 -66 -66 -99 -98c-28 28 -55 56 -84 84l96 96c-27 40 -42 91 -42 152c0 57 14 106 39 147l-93 93
c29 28 57 56 85 84c32 -32 64 -63 95 -94c43 26 94 41 150 41s107 -14 150 -39l92 92c28 -28 57 -56 85 -84zM476 441c-75 0 -126 -61 -126 -132c0 -74 51 -134 126 -134c76 0 127 60 127 134c0 71 -52 132 -127 132z" />
    <glyph glyph-name="quotesingle" unicode="'" horiz-adv-x="303" 
d="M216 437h-130v271h130v-271z" />
    <glyph glyph-name="quotedblleft" unicode="&#x201c;" horiz-adv-x="507" 
d="M466 708l-71 -271h-144l89 271h126zM259 708l-74 -271h-143l91 271h126z" />
    <glyph glyph-name="guillemotleft" unicode="&#xab;" horiz-adv-x="543" 
d="M509 85l-97 -63l-161 232l161 232l97 -63l-115 -169zM284 85l-98 -63l-161 232l161 232l97 -63l-115 -169z" />
    <glyph glyph-name="guilsinglleft" unicode="&#x2039;" horiz-adv-x="318" 
d="M284 85l-98 -63l-161 232l161 232l97 -63l-115 -169z" />
    <glyph glyph-name="guilsinglright" unicode="&#x203a;" horiz-adv-x="318" 
d="M293 253l-161 -231l-97 63l115 168l-116 170l98 63z" />
    <glyph glyph-name="endash" unicode="&#x2013;" horiz-adv-x="400" 
d="M370 210h-340v103h340v-103z" />
    <glyph glyph-name="dagger" unicode="&#x2020;" horiz-adv-x="603" 
d="M565 382h-194v-511h-142v511h-191v125h191v201h142v-201h194v-125z" />
    <glyph glyph-name="daggerdbl" unicode="&#x2021;" horiz-adv-x="603" 
d="M562 50h-190v-179h-141v179h-189v124h189v232h-189v123h188v179h142v-179h190v-123h-190v-232h190v-124z" />
    <glyph glyph-name="periodcentered" unicode="&#xb7;" 
d="M251 291c0 -55 -46 -98 -100 -98c-55 0 -102 42 -102 97c0 54 46 99 102 99c54 0 100 -43 100 -98z" />
    <glyph glyph-name="paragraph" unicode="&#xb6;" horiz-adv-x="618" 
d="M555 -129h-116v737h-85v-737h-116v464c-131 3 -214 75 -214 183c0 144 107 190 244 190h287v-837z" />
    <glyph glyph-name="bullet" unicode="&#x2022;" horiz-adv-x="500" 
d="M427 354c0 -98 -79 -177 -177 -177s-177 79 -177 177s79 177 177 177s177 -79 177 -177z" />
    <glyph glyph-name="quotesinglbase" unicode="&#x201a;" 
d="M257 145l-91 -271h-126l72 271h145z" />
    <glyph glyph-name="quotedblbase" unicode="&#x201e;" horiz-adv-x="507" 
d="M464 145l-90 -271h-127l74 271h143zM255 145l-89 -271h-126l72 271h143z" />
    <glyph glyph-name="quotedblright" unicode="&#x201d;" horiz-adv-x="507" 
d="M465 708l-90 -271h-127l74 271h143zM256 708l-89 -271h-126l72 271h143z" />
    <glyph glyph-name="guillemotright" unicode="&#xbb;" horiz-adv-x="543" 
d="M519 253l-162 -231l-97 63l115 168l-115 170l97 63zM293 253l-161 -231l-97 63l115 168l-116 170l98 63z" />
    <glyph glyph-name="ellipsis" unicode="&#x2026;" horiz-adv-x="1000" 
d="M933 88c0 -55 -46 -98 -100 -98s-102 42 -102 97c0 54 46 99 102 99c54 0 100 -43 100 -98zM600 88c0 -55 -46 -98 -100 -98s-102 42 -102 97c0 54 46 99 102 99c54 0 100 -43 100 -98zM267 88c0 -55 -45 -98 -100 -98c-54 0 -101 42 -101 97c0 54 46 99 101 99
c54 0 100 -43 100 -98z" />
    <glyph glyph-name="perthousand" unicode="&#x2030;" horiz-adv-x="1245" 
d="M1210 167c0 -99 -81 -179 -180 -179c-98 0 -179 80 -179 179s81 178 179 178c99 0 180 -79 180 -178zM1104 167c0 42 -32 74 -74 74s-74 -32 -74 -74s32 -74 74 -74s74 32 74 74zM812 167c0 -99 -82 -179 -180 -179c-99 0 -180 80 -180 179s81 178 180 178
c98 0 180 -79 180 -178zM706 167c0 42 -33 74 -74 74c-42 0 -74 -32 -74 -74s32 -74 74 -74c41 0 74 32 74 74zM394 542c0 -99 -82 -179 -180 -179c-99 0 -180 80 -180 179s81 178 180 178c98 0 180 -79 180 -178zM288 542c0 42 -33 74 -74 74c-42 0 -74 -32 -74 -74
s32 -74 74 -74c41 0 74 32 74 74zM660 699l-388 -729l-89 39l388 731z" />
    <glyph glyph-name="questiondown" unicode="&#xbf;" horiz-adv-x="546" 
d="M361 424c0 -52 -44 -95 -98 -95c-53 0 -98 42 -98 94c0 53 44 95 98 95c53 0 98 -41 98 -94zM507 -2c-16 -145 -124 -216 -252 -216c-118 0 -236 61 -236 199c0 88 44 130 113 183c43 33 54 51 54 92v26h156v-37c0 -70 -28 -104 -79 -151l-34 -30
c-23 -21 -41 -41 -41 -71c0 -43 29 -71 74 -71c54 0 84 45 85 94z" />
    <glyph glyph-name="grave" unicode="`" 
d="M231 572h-124l-146 144h166z" />
    <glyph glyph-name="acute" unicode="&#xb4;" 
d="M339 716l-146 -144h-124l104 144h166z" />
    <glyph glyph-name="circumflex" unicode="&#x2c6;" 
d="M347 572h-130l-68 81l-68 -81h-128l124 144h148z" />
    <glyph glyph-name="tilde" unicode="&#x2dc;" 
d="M335 708c-8 -70 -40 -132 -113 -132c-28 0 -55 9 -81 21c-27 14 -45 20 -63 20c-24 0 -36 -19 -42 -40h-72c9 69 40 130 113 130c28 0 54 -8 80 -20c28 -13 47 -20 65 -20c25 0 36 17 42 41h71z" />
    <glyph glyph-name="macron" unicode="&#xaf;" 
d="M318 601h-336v86h336v-86z" />
    <glyph glyph-name="breve" unicode="&#x2d8;" 
d="M324 716c-9 -104 -82 -144 -175 -144c-91 0 -166 39 -173 144h84c4 -21 16 -35 32 -44c17 -8 38 -11 58 -11c45 0 81 8 90 55h84z" />
    <glyph glyph-name="dotaccent" unicode="&#x2d9;" 
d="M240 657c0 -48 -40 -85 -90 -85s-89 39 -89 85s39 86 89 86s90 -38 90 -86z" />
    <glyph glyph-name="dieresis" unicode="&#xa8;" 
d="M342 658c0 -46 -38 -82 -83 -82c-47 0 -83 37 -83 82c0 43 36 81 83 81c45 0 83 -36 83 -81zM125 658c0 -46 -38 -82 -84 -82s-83 37 -83 82c0 43 37 81 83 81s84 -36 84 -81z" />
    <glyph glyph-name="ring" unicode="&#x2da;" 
d="M259 664c0 -62 -49 -107 -109 -107s-109 45 -109 106c0 62 48 108 109 108c60 0 109 -46 109 -107zM209 664c0 33 -26 58 -59 58c-34 0 -59 -26 -59 -59c0 -32 26 -57 59 -57s59 25 59 58z" />
    <glyph glyph-name="cedilla" unicode="&#xb8;" 
d="M283 -142c0 -77 -84 -98 -147 -98c-41 0 -88 10 -119 25l27 60c25 -12 57 -19 84 -19c21 0 50 6 50 33c0 24 -27 29 -47 29c-12 0 -28 -2 -40 -6l-31 29l67 89h82l-47 -60c7 1 12 1 18 1c48 0 103 -15 103 -83z" />
    <glyph glyph-name="hungarumlaut" unicode="&#x2dd;" 
d="M456 716l-146 -144h-124l104 144h166zM236 716l-146 -144h-124l104 144h166z" />
    <glyph glyph-name="ogonek" unicode="&#x2db;" 
d="M240 -196c-31 -23 -73 -40 -115 -40c-54 0 -113 26 -113 91c0 59 60 115 108 149h91c-52 -41 -95 -86 -95 -122c0 -21 16 -36 37 -36c19 0 38 8 55 20z" />
    <glyph glyph-name="caron" unicode="&#x2c7;" 
d="M347 716l-123 -144h-147l-124 144h130l68 -81l68 81h128z" />
    <glyph glyph-name="emdash" unicode="&#x2014;" horiz-adv-x="600" 
d="M570 209h-540v104h540v-104z" />
    <glyph glyph-name="AE" unicode="&#xc6;" horiz-adv-x="1033" 
d="M993 0h-479v153h-231l-88 -153h-199l414 708h565v-145h-298v-133h281v-137h-281v-147h316v-146zM514 291v272h-10l-153 -272h163z" />
    <glyph glyph-name="ordfeminine" unicode="&#xaa;" horiz-adv-x="384" 
d="M236 431v27h-1c-14 -22 -48 -34 -84 -34c-51 0 -106 26 -106 88c0 87 103 98 186 98v4c0 24 -21 35 -50 35c-27 0 -52 -12 -68 -28c-18 18 -36 37 -54 55c33 31 83 47 131 47c110 0 139 -59 139 -128v-164h-93zM234 541v12h-12c-36 0 -80 -6 -80 -35c0 -19 20 -27 37 -27
c35 0 55 21 55 50z" />
    <glyph glyph-name="Lslash" unicode="&#x141;" horiz-adv-x="526" 
d="M519 0h-446v177l-64 -56v142l64 56v389h172v-262l191 167v-141l-191 -167v-156h274v-149z" />
    <glyph glyph-name="Oslash" unicode="&#xd8;" horiz-adv-x="851" 
d="M40 356c0 227 164 370 385 370c83 0 158 -20 219 -58c28 32 58 64 87 97c22 -20 45 -39 67 -59c-29 -30 -57 -62 -86 -93c64 -65 99 -151 99 -257c0 -223 -165 -373 -387 -374h-5c-87 0 -166 24 -224 69c-30 -32 -59 -63 -89 -95c-22 19 -45 39 -67 57c30 32 59 65 89 97
c-57 61 -88 148 -88 246zM635 356c0 51 -12 96 -38 130c-97 -106 -195 -212 -292 -318c30 -24 72 -37 119 -37c129 0 211 98 211 225zM214 355c0 -49 10 -88 31 -120c96 105 193 210 290 315c-27 18 -66 29 -110 29c-132 0 -211 -100 -211 -224z" />
    <glyph glyph-name="OE" unicode="&#x152;" horiz-adv-x="1019" 
d="M979 0h-537c-200 0 -402 98 -402 355c0 259 202 353 402 353h520v-145h-298v-133h281v-137h-281v-147h315v-146zM501 146v417h-46c-120 0 -233 -46 -233 -211c0 -151 114 -206 229 -206h50z" />
    <glyph glyph-name="ordmasculine" unicode="&#xba;" horiz-adv-x="384" 
d="M348 575c0 -91 -69 -151 -156 -151c-86 0 -155 60 -155 151c0 90 69 149 155 149c87 0 156 -59 156 -149zM253 575c0 33 -23 63 -61 63s-59 -30 -59 -63c0 -34 21 -64 59 -64c39 0 61 30 61 64z" />
    <glyph glyph-name="ae" unicode="&#xe6;" horiz-adv-x="899" 
d="M358 191v16h-21c-94 0 -153 -10 -153 -58c0 -38 38 -51 71 -51c66 0 103 36 103 93zM498 306h211c0 52 -33 95 -98 95c-63 0 -109 -44 -113 -95zM727 162l113 -72c-46 -68 -124 -106 -226 -106c-78 0 -148 33 -187 90c-31 -50 -90 -86 -202 -86c-86 0 -192 42 -192 156
c0 139 158 161 320 161v7c0 56 -35 80 -89 80c-46 0 -94 -23 -124 -51l-82 89c57 55 140 84 221 84c82 0 135 -35 161 -73c36 42 95 73 171 73c146 0 250 -101 250 -271c0 -13 -1 -27 -2 -39h-360c6 -56 59 -94 118 -94c53 0 89 22 110 52z" />
    <glyph glyph-name="dotlessi" unicode="&#x131;" horiz-adv-x="296" 
d="M230 0h-164v498h164v-498z" />
    <glyph glyph-name="lslash" unicode="&#x142;" horiz-adv-x="298" 
d="M290 454l-58 -56v-398h-166v267l-58 -56v143l58 57v345h166v-217l58 57v-142z" />
    <glyph glyph-name="oslash" unicode="&#xf8;" horiz-adv-x="632" 
d="M607 480l-70 -69c36 -42 55 -98 55 -161c0 -160 -124 -266 -277 -266c-59 0 -115 16 -157 47l-75 -74l-59 58l72 71c-35 40 -57 98 -57 164c0 160 124 265 276 265c61 0 117 -17 160 -49l72 72zM372 365c-14 11 -37 19 -59 19c-78 0 -121 -64 -121 -130
c0 -20 5 -44 14 -57zM436 248c0 21 -4 43 -13 58l-167 -168c14 -13 38 -20 61 -20c78 0 119 64 119 130z" />
    <glyph glyph-name="oe" unicode="&#x153;" horiz-adv-x="973" 
d="M198 251c0 -65 40 -129 117 -129s118 64 118 129c0 63 -41 127 -118 127s-117 -64 -117 -127zM573 306h211c0 52 -33 95 -98 95c-63 0 -109 -44 -113 -95zM802 162l113 -72c-46 -68 -124 -106 -225 -106c-84 0 -154 34 -191 83c-39 -50 -104 -83 -186 -83
c-151 0 -274 103 -274 267c0 162 123 263 274 263c81 0 150 -36 187 -87c41 49 106 87 187 87c145 0 248 -101 248 -271c0 -13 0 -27 -1 -39h-361c7 -56 60 -94 119 -94c52 0 88 22 110 52z" />
    <glyph glyph-name="germandbls" unicode="&#xdf;" horiz-adv-x="667" 
d="M277 140c22 -8 57 -13 73 -13c64 0 113 28 113 103c0 80 -61 114 -135 114h-21v129h22c26 0 86 9 86 81c0 43 -29 81 -84 81c-80 0 -103 -71 -103 -135v-500h-164v501c0 152 85 267 274 267c133 0 242 -76 242 -200c0 -74 -46 -132 -104 -150v-1c92 -18 153 -91 153 -195
c0 -147 -102 -235 -256 -235c-31 0 -63 4 -96 12v141z" />
    <glyph glyph-name="ydieresis.sc" horiz-adv-x="566" 
d="M365 222v-222h-167v222l-208 341h196l101 -201l100 201h189zM478 708c0 -46 -38 -82 -83 -82c-47 0 -83 37 -83 82c0 43 36 81 83 81c45 0 83 -36 83 -81zM261 708c0 -46 -38 -82 -84 -82s-83 37 -83 82c0 43 37 81 83 81s84 -36 84 -81z" />
    <glyph glyph-name="n.sc" horiz-adv-x="672" 
d="M70 0v563h184l190 -323h2l-5 323h161v-563h-182l-191 319h-3l4 -319h-160z" />
    <glyph glyph-name="multiply" unicode="&#xd7;" horiz-adv-x="666" 
d="M604 130l-94 -93l-177 173l-176 -173l-93 89l177 175l-178 174l94 91l177 -173l174 172l91 -87l-174 -173z" />
    <glyph glyph-name="greaterequal" unicode="&#x2265;" horiz-adv-x="666" 
d="M79 18v123h508v-123h-508zM79 154v137l306 127l-306 131v136l508 -214v-103z" />
    <glyph glyph-name="uhungarumlaut" unicode="&#x171;" horiz-adv-x="614" 
d="M550 0h-158v69h-2c-23 -44 -80 -83 -150 -83c-134 0 -181 104 -181 204v308h165v-270c0 -56 14 -106 74 -106c57 0 88 50 88 107v269h164v-498zM622 716l-146 -144h-124l104 144h166zM402 716l-146 -144h-124l104 144h166z" />
    <glyph glyph-name="ograve" unicode="&#xf2;" horiz-adv-x="632" 
d="M592 251c0 -163 -126 -267 -277 -267c-150 0 -276 104 -276 267s126 263 276 263c151 0 277 -100 277 -263zM434 251c0 64 -42 127 -119 127s-117 -63 -117 -127s41 -129 118 -129s118 65 118 129zM397 572h-124l-146 144h166z" />
    <glyph glyph-name="umacron.sc" horiz-adv-x="646" 
d="M321 -16c-159 0 -255 93 -255 234v345h167v-334c0 -60 32 -99 89 -99c58 0 91 39 91 99v334h167v-345c0 -141 -98 -234 -259 -234zM491 651h-336v86h336v-86z" />
    <glyph glyph-name="radical" unicode="&#x221a;" horiz-adv-x="569" 
d="M579 786l-214 -1000h-126l-145 300l-51 -24l-54 114l175 79l112 -239l158 770h145z" />
    <glyph glyph-name="notequal" unicode="&#x2260;" horiz-adv-x="666" 
d="M569 110h-273l-74 -146l-115 56l47 90h-102v127h167l43 84h-210v127h275l75 145l115 -55l-47 -90h99v-127h-164l-43 -84h207v-127z" />
    <glyph glyph-name="omacron" unicode="&#x14d;" horiz-adv-x="632" 
d="M592 251c0 -163 -126 -267 -277 -267c-150 0 -276 104 -276 267s126 263 276 263c151 0 277 -100 277 -263zM434 251c0 64 -42 127 -119 127s-117 -63 -117 -127s41 -129 118 -129s118 65 118 129zM483 601h-336v86h336v-86z" />
    <glyph glyph-name="ohungarumlaut.sc" horiz-adv-x="704" 
d="M665 283c0 -182 -143 -299 -314 -299c-169 0 -312 117 -312 299c0 180 143 296 312 296c171 0 314 -116 314 -296zM490 283c0 72 -49 145 -139 145c-89 0 -135 -73 -135 -145c0 -74 47 -147 137 -147c89 0 137 73 137 147zM675 766l-146 -144h-124l104 144h166zM455 766
l-146 -144h-124l104 144h166z" />
    <glyph glyph-name="iogonek.sc" horiz-adv-x="307" 
d="M70 0v563h167v-563c-52 -41 -95 -86 -95 -122c0 -21 16 -36 37 -36c19 0 38 8 55 20l32 -62c-31 -23 -73 -40 -115 -40c-54 0 -113 26 -113 91c0 59 60 115 108 149h-76z" />
    <glyph glyph-name="ohungarumlaut" unicode="&#x151;" horiz-adv-x="632" 
d="M592 251c0 -163 -126 -267 -277 -267c-150 0 -276 104 -276 267s126 263 276 263c151 0 277 -100 277 -263zM434 251c0 64 -42 127 -119 127s-117 -63 -117 -127s41 -129 118 -129s118 65 118 129zM633 716l-146 -144h-124l104 144h166zM413 716l-146 -144h-124l104 144
h166z" />
    <glyph glyph-name="uniF8FF" unicode="&#xf8ff;" horiz-adv-x="512" 
d="M222 117h56v67h-56v-67zM225 234h46c0 35 2 59 6 72s18 30 43 52c51 47 63 77 63 120c0 79 -53 131 -124 131c-72 0 -126 -42 -135 -137l50 -8c8 68 41 95 82 95s76 -37 76 -85c0 -25 -7 -42 -50 -83c-22 -22 -37 -42 -46 -59s-13 -44 -13 -81zM462 50h-412v617h412v-617
zM512 718h-512v-718h512v718z" />
    <glyph glyph-name="p.sc" horiz-adv-x="555" 
d="M237 185v-185h-167v563h231c138 0 232 -55 232 -182c0 -133 -96 -196 -234 -196h-62zM237 436v-126h49c49 0 80 23 80 68c0 33 -23 58 -77 58h-52z" />
    <glyph glyph-name="macron.sc" 
d="M318 651h-336v86h336v-86z" />
    <glyph glyph-name="otilde" unicode="&#xf5;" horiz-adv-x="632" 
d="M592 251c0 -163 -126 -267 -277 -267c-150 0 -276 104 -276 267s126 263 276 263c151 0 277 -100 277 -263zM434 251c0 64 -42 127 -119 127s-117 -63 -117 -127s41 -129 118 -129s118 65 118 129zM501 708c-8 -70 -40 -132 -113 -132c-28 0 -55 9 -81 21
c-27 14 -45 20 -63 20c-24 0 -36 -19 -42 -40h-72c9 69 40 130 113 130c28 0 54 -8 80 -20c28 -13 47 -20 65 -20c25 0 36 17 42 41h71z" />
    <glyph glyph-name="ugrave.sc" horiz-adv-x="646" 
d="M321 -16c-159 0 -255 93 -255 234v345h167v-334c0 -60 32 -99 89 -99c58 0 91 39 91 99v334h167v-345c0 -141 -98 -234 -259 -234zM398 622h-124l-146 144h166z" />
    <glyph glyph-name="ntilde" unicode="&#xf1;" horiz-adv-x="616" 
d="M556 0h-165v272c0 55 -15 105 -74 105c-58 0 -88 -50 -88 -107v-270h-165v498h159v-69h2c23 44 80 83 149 83c134 0 182 -104 182 -204v-308zM497 708c-8 -70 -40 -132 -113 -132c-28 0 -55 9 -81 21c-27 14 -45 20 -63 20c-24 0 -36 -19 -42 -40h-72
c9 69 40 130 113 130c28 0 54 -8 80 -20c28 -13 47 -20 65 -20c25 0 36 17 42 41h71z" />
    <glyph glyph-name="odieresis" unicode="&#xf6;" horiz-adv-x="632" 
d="M592 251c0 -163 -126 -267 -277 -267c-150 0 -276 104 -276 267s126 263 276 263c151 0 277 -100 277 -263zM434 251c0 64 -42 127 -119 127s-117 -63 -117 -127s41 -129 118 -129s118 65 118 129zM507 658c0 -46 -38 -82 -83 -82c-47 0 -83 37 -83 82c0 43 36 81 83 81
c45 0 83 -36 83 -81zM290 658c0 -46 -38 -82 -84 -82s-83 37 -83 82c0 43 37 81 83 81s84 -36 84 -81z" />
    <glyph glyph-name="jcircumflex" unicode="&#x135;" horiz-adv-x="299" 
d="M233 -13c0 -123 -38 -227 -199 -227c-22 0 -53 3 -71 8l11 137c12 -4 26 -5 35 -5c48 0 60 36 60 87v511h164v-511zM346 572h-130l-68 81l-68 -81h-128l124 144h148z" />
    <glyph glyph-name="oe.sc" horiz-adv-x="852" 
d="M360 0c-181 0 -316 104 -316 283c0 180 135 280 316 280h426v-127h-236v-90h223v-122h-223v-96h250v-128h-440zM220 283c0 -94 59 -140 140 -140h27v279h-27c-81 0 -140 -50 -140 -139z" />
    <glyph glyph-name="ncaron" unicode="&#x148;" horiz-adv-x="616" 
d="M556 0h-165v272c0 55 -15 105 -74 105c-58 0 -88 -50 -88 -107v-270h-165v498h159v-69h2c23 44 80 83 149 83c134 0 182 -104 182 -204v-308zM507 716l-123 -144h-147l-124 144h130l68 -81l68 81h128z" />
    <glyph glyph-name="idieresis" unicode="&#xef;" horiz-adv-x="296" 
d="M230 0h-164v498h164v-498zM342 658c0 -46 -38 -82 -83 -82c-47 0 -83 37 -83 82c0 43 36 81 83 81c45 0 83 -36 83 -81zM125 658c0 -46 -38 -82 -84 -82s-83 37 -83 82c0 43 37 81 83 81s84 -36 84 -81z" />
    <glyph glyph-name="udieresis.sc" horiz-adv-x="646" 
d="M321 -16c-159 0 -255 93 -255 234v345h167v-334c0 -60 32 -99 89 -99c58 0 91 39 91 99v334h167v-345c0 -141 -98 -234 -259 -234zM514 708c0 -46 -38 -82 -83 -82c-47 0 -83 37 -83 82c0 43 36 81 83 81c45 0 83 -36 83 -81zM297 708c0 -46 -38 -82 -84 -82
s-83 37 -83 82c0 43 37 81 83 81s84 -36 84 -81z" />
    <glyph glyph-name="ocircumflex" unicode="&#xf4;" horiz-adv-x="632" 
d="M592 251c0 -163 -126 -267 -277 -267c-150 0 -276 104 -276 267s126 263 276 263c151 0 277 -100 277 -263zM434 251c0 64 -42 127 -119 127s-117 -63 -117 -127s41 -129 118 -129s118 65 118 129zM507 576h-126l-66 79l-66 -79h-125l121 140h144z" />
    <glyph glyph-name="onehalf" unicode="&#xbd;" horiz-adv-x="940" 
d="M894 0h-319v92l170 156c17 15 29 33 29 55c0 24 -17 41 -44 41c-30 0 -52 -24 -55 -61l-110 14c10 93 83 148 169 148c81 0 160 -42 160 -135c0 -62 -37 -99 -76 -134l-87 -76h163v-100zM701 699l-388 -729l-87 39l384 730zM297 272h-117v306l-74 -58l-60 81l145 107h106
v-436z" />
    <glyph glyph-name="grave.sc" 
d="M231 622h-124l-146 144h166z" />
    <glyph glyph-name="hungarumlaut.cap" 
d="M456 908l-146 -144h-124l104 144h166zM236 908l-146 -144h-124l104 144h166z" />
    <glyph glyph-name="utilde" unicode="&#x169;" horiz-adv-x="614" 
d="M550 0h-158v69h-2c-23 -44 -80 -83 -150 -83c-134 0 -181 104 -181 204v308h165v-270c0 -56 14 -106 74 -106c57 0 88 50 88 107v269h164v-498zM491 708c-8 -70 -40 -132 -113 -132c-28 0 -55 9 -81 21c-27 14 -45 20 -63 20c-24 0 -36 -19 -42 -40h-72
c9 69 40 130 113 130c28 0 54 -8 80 -20c28 -13 47 -20 65 -20c25 0 36 17 42 41h71z" />
    <glyph glyph-name="otilde.sc" horiz-adv-x="704" 
d="M665 283c0 -182 -143 -299 -314 -299c-169 0 -312 117 -312 299c0 180 143 296 312 296c171 0 314 -116 314 -296zM490 283c0 72 -49 145 -139 145c-89 0 -135 -73 -135 -145c0 -74 47 -147 137 -147c89 0 137 73 137 147zM538 758c-8 -70 -40 -132 -113 -132
c-28 0 -55 8 -81 21c-27 13 -45 20 -63 20c-24 0 -36 -19 -42 -40h-72c9 69 40 130 113 130c28 0 54 -8 80 -20c28 -13 47 -20 65 -20c25 0 36 17 42 41h71z" />
    <glyph glyph-name="product" unicode="&#x220f;" horiz-adv-x="753" 
d="M695 -214h-152v867h-333v-867h-151v1000h636v-1000z" />
    <glyph glyph-name="twosuperior" unicode="&#xb2;" horiz-adv-x="420" 
d="M374 275h-319v92l170 155c17 16 29 34 29 56c0 24 -17 41 -45 41c-30 0 -51 -25 -54 -61l-110 13c10 94 83 148 169 148c81 0 160 -41 160 -134c0 -63 -37 -99 -76 -134l-87 -77h163v-99z" />
    <glyph glyph-name="imacron.sc" horiz-adv-x="307" 
d="M70 0v563h167v-563h-167zM322 651h-336v86h336v-86z" />
    <glyph glyph-name="lacute" unicode="&#x13a;" horiz-adv-x="298" 
d="M232 0h-166v756h166v-756zM336 936l-146 -144h-124l104 144h166z" />
    <glyph glyph-name="ocircumflex.sc" horiz-adv-x="704" 
d="M665 283c0 -182 -143 -299 -314 -299c-169 0 -312 117 -312 299c0 180 143 296 312 296c171 0 314 -116 314 -296zM490 283c0 72 -49 145 -139 145c-89 0 -135 -73 -135 -145c0 -74 47 -147 137 -147c89 0 137 73 137 147zM548 622h-130l-68 81l-68 -81h-128l124 144h148
z" />
    <glyph glyph-name="perthousand.sc" horiz-adv-x="1156" 
d="M338 424c0 -84 -73 -153 -157 -153c-85 0 -157 69 -157 153c0 85 72 152 157 152c84 0 157 -67 157 -152zM228 424c0 28 -21 45 -47 45s-47 -17 -47 -45s21 -45 47 -45s47 17 47 45zM772 138c0 -84 -73 -153 -157 -153c-85 0 -157 69 -157 153c0 85 72 152 157 152
c84 0 157 -67 157 -152zM662 138c0 28 -21 45 -47 45s-47 -17 -47 -45s21 -45 47 -45s47 17 47 45zM1136 138c0 -84 -73 -153 -157 -153c-85 0 -157 69 -157 153c0 85 72 152 157 152c84 0 157 -67 157 -152zM1026 138c0 28 -21 45 -47 45s-47 -17 -47 -45s21 -45 47 -45
s47 17 47 45zM608 551l-335 -584l-88 42l332 587z" />
    <glyph glyph-name="napostrophe.sc" horiz-adv-x="813" 
d="M211 0v563h184l190 -323h2l-5 323h161v-563h-182l-191 319h-3l4 -319h-160zM190 563l-86 -195h-126l67 195h145z" />
    <glyph glyph-name="ij.sc" horiz-adv-x="787" 
d="M70 0v563h167v-563h-167zM545 -16c-105 0 -180 63 -201 152l149 49c6 -40 27 -55 49 -55c33 0 44 22 44 58v375h167v-369c0 -105 -45 -210 -208 -210z" />
    <glyph glyph-name="uni03BC" unicode="&#x3bc;" horiz-adv-x="666" 
d="M89 498h162v-248c0 -45 10 -124 77 -124s91 51 91 111v261h162v-498h-155v57h-1c-20 -35 -52 -64 -111 -64c-24 0 -49 7 -63 20v-239h-162v724z" />
    <glyph glyph-name="percent.sc" horiz-adv-x="813" 
d="M338 424c0 -84 -73 -153 -157 -153c-85 0 -157 69 -157 153c0 85 72 152 157 152c84 0 157 -67 157 -152zM228 424c0 28 -21 45 -47 45s-47 -17 -47 -45s21 -45 47 -45s47 17 47 45zM772 138c0 -84 -73 -153 -157 -153c-85 0 -157 69 -157 153c0 85 72 152 157 152
c84 0 157 -67 157 -152zM662 138c0 28 -21 45 -47 45s-47 -17 -47 -45s21 -45 47 -45s47 17 47 45zM608 551l-335 -584l-88 42l332 587z" />
    <glyph glyph-name="obreve.sc" horiz-adv-x="704" 
d="M665 283c0 -182 -143 -299 -314 -299c-169 0 -312 117 -312 299c0 180 143 296 312 296c171 0 314 -116 314 -296zM490 283c0 72 -49 145 -139 145c-89 0 -135 -73 -135 -145c0 -74 47 -147 137 -147c89 0 137 73 137 147zM526 766c-9 -104 -82 -144 -175 -144
c-91 0 -166 39 -173 144h84c7 -43 49 -55 90 -55c45 0 81 8 90 55h84z" />
    <glyph glyph-name="summation" unicode="&#x2211;" horiz-adv-x="666" 
d="M644 -214h-618v111l292 395l-280 383v111h594v-133h-402l256 -360l-273 -374h431v-133z" />
    <glyph glyph-name="racute" unicode="&#x155;" horiz-adv-x="396" 
d="M394 508l-7 -144c-15 4 -29 5 -42 5c-88 0 -117 -72 -117 -113v-256h-164v498h158v-72h2c25 50 74 86 135 86c13 0 27 -1 35 -4zM377 716l-146 -144h-124l104 144h166z" />
    <glyph glyph-name="two.onum" horiz-adv-x="602" 
d="M548 0h-488v128l53 31c172 98 254 146 254 215c0 44 -30 72 -83 72c-47 0 -84 -29 -104 -71l-135 54c41 91 126 154 249 154c124 0 245 -52 245 -193c0 -117 -105 -182 -198 -237l-29 -18v-2h236v-133z" />
    <glyph glyph-name="trademark" unicode="&#x2122;" horiz-adv-x="1000" 
d="M948 296h-106v259h-2l-97 -259h-79l-96 259h-2v-259h-105v412h150l95 -260l92 260h150v-412zM386 613h-118v-317h-110v317h-118v95h346v-95z" />
    <glyph glyph-name="Uacute" unicode="&#xda;" horiz-adv-x="738" 
d="M673 267c0 -170 -120 -286 -305 -286c-186 0 -302 116 -302 286v441h170v-427c0 -76 37 -146 133 -146c97 0 133 70 133 146v427h171v-441zM543 908l-146 -144h-124l104 144h166z" />
    <glyph glyph-name="lcommaaccent" unicode="&#x13c;" horiz-adv-x="298" 
d="M232 0h-166v756h166v-756zM223 -45l-86 -195h-126l67 195h145z" />
    <glyph glyph-name="imacron" unicode="&#x12b;" horiz-adv-x="296" 
d="M230 0h-164v498h164v-498zM318 601h-336v86h336v-86z" />
    <glyph glyph-name="nine.sc" horiz-adv-x="576" 
d="M281 191l-2 2c-11 -3 -30 -4 -37 -4c-98 0 -180 65 -180 183c0 127 101 207 237 207c137 0 236 -80 236 -204c0 -57 -25 -119 -62 -175l-131 -200h-201zM299 304c42 0 71 29 71 72c0 42 -29 73 -71 73c-43 0 -73 -31 -73 -73c0 -43 30 -72 73 -72z" />
    <glyph glyph-name="uni021B" unicode="&#x21b;" horiz-adv-x="372" 
d="M359 375h-117v-190c0 -46 15 -70 62 -70c16 0 36 3 48 8l2 -120c-22 -8 -60 -15 -95 -15c-133 0 -177 71 -177 177v210h-80v123h79v131h161v-131h117v-123zM288 -45l-86 -195h-126l67 195h145z" />
    <glyph glyph-name="oacute.sc" horiz-adv-x="704" 
d="M665 283c0 -182 -143 -299 -314 -299c-169 0 -312 117 -312 299c0 180 143 296 312 296c171 0 314 -116 314 -296zM490 283c0 72 -49 145 -139 145c-89 0 -135 -73 -135 -145c0 -74 47 -147 137 -147c89 0 137 73 137 147zM546 766l-146 -144h-124l104 144h166z" />
    <glyph glyph-name="idotaccent.sc" horiz-adv-x="307" 
d="M70 0v563h167v-563h-167zM240 707c0 -48 -40 -85 -90 -85s-89 39 -89 85s39 86 89 86s90 -38 90 -86z" />
    <glyph glyph-name="Aring" unicode="&#xc5;" horiz-adv-x="729" 
d="M743 0h-190l-55 139h-274l-52 -139h-186l297 708h166zM451 276l-88 243l-90 -243h178zM476 856c0 -62 -49 -107 -109 -107s-109 45 -109 106c0 62 48 108 109 108c60 0 109 -46 109 -107zM426 856c0 33 -26 58 -59 58c-34 0 -59 -26 -59 -59c0 -32 26 -57 59 -57
s59 25 59 58z" />
    <glyph glyph-name="oacute" unicode="&#xf3;" horiz-adv-x="632" 
d="M592 251c0 -163 -126 -267 -277 -267c-150 0 -276 104 -276 267s126 263 276 263c151 0 277 -100 277 -263zM434 251c0 64 -42 127 -119 127s-117 -63 -117 -127s41 -129 118 -129s118 65 118 129zM500 716l-146 -144h-124l104 144h166z" />
    <glyph glyph-name="ncommaaccent" unicode="&#x146;" horiz-adv-x="616" 
d="M556 0h-165v272c0 55 -15 105 -74 105c-58 0 -88 -50 -88 -107v-270h-165v498h159v-69h2c23 44 80 83 149 83c134 0 182 -104 182 -204v-308zM379 -45l-86 -195h-126l67 195h145z" />
    <glyph glyph-name="nacute" unicode="&#x144;" horiz-adv-x="616" 
d="M556 0h-165v272c0 55 -15 105 -74 105c-58 0 -88 -50 -88 -107v-270h-165v498h159v-69h2c23 44 80 83 149 83c134 0 182 -104 182 -204v-308zM484 716l-146 -144h-124l104 144h166z" />
    <glyph glyph-name="ucircumflex.sc" horiz-adv-x="646" 
d="M321 -16c-159 0 -255 93 -255 234v345h167v-334c0 -60 32 -99 89 -99c58 0 91 39 91 99v334h167v-345c0 -141 -98 -234 -259 -234zM520 622h-130l-68 81l-68 -81h-128l124 144h148z" />
    <glyph glyph-name="macron.cap" 
d="M318 793h-336v86h336v-86z" />
    <glyph glyph-name="oslash.sc" horiz-adv-x="704" 
d="M39 283c0 180 143 296 312 296c69 0 133 -20 177 -50l69 72l59 -59l-63 -66c46 -47 72 -114 72 -193c0 -182 -143 -299 -314 -299c-69 0 -129 18 -177 51l-75 -78l-58 59l69 72c-45 48 -71 116 -71 195zM213 284c0 -28 4 -55 13 -73l198 205c-19 12 -45 19 -71 19
c-81 0 -140 -62 -140 -151zM493 284c0 25 -5 51 -13 69l-197 -205c18 -11 44 -17 70 -17c81 0 140 60 140 153z" />
    <glyph glyph-name="iogonek" unicode="&#x12f;" horiz-adv-x="296" 
d="M249 -196c-31 -23 -73 -40 -115 -40c-54 0 -113 26 -113 91c0 57 55 111 102 145h-57v498h164v-498h-15c-50 -40 -90 -83 -90 -118c0 -21 16 -36 37 -36c19 0 38 8 55 20zM242 657c0 -51 -42 -90 -94 -90c-53 0 -94 41 -94 90c0 48 41 90 94 90c52 0 94 -40 94 -90z" />
    <glyph glyph-name="yacute.sc" horiz-adv-x="566" 
d="M365 222v-222h-167v222l-208 341h196l101 -201l100 201h189zM477 766l-146 -144h-124l104 144h166z" />
    <glyph glyph-name="hbar" unicode="&#x127;" horiz-adv-x="617" 
d="M557 0h-165v270c0 56 -14 105 -73 105c-57 0 -89 -47 -89 -106v-269h-164v570h-46v89h46v97h164v-97h149v-89h-149v-135h2c22 40 74 77 143 77c135 0 182 -104 182 -204v-308z" />
    <glyph glyph-name="uhungarumlaut.sc" horiz-adv-x="646" 
d="M321 -16c-159 0 -255 93 -255 234v345h167v-334c0 -60 32 -99 89 -99c58 0 91 39 91 99v334h167v-345c0 -141 -98 -234 -259 -234zM640 766l-146 -144h-124l104 144h166zM420 766l-146 -144h-124l104 144h166z" />
    <glyph glyph-name="omacron.sc" horiz-adv-x="704" 
d="M665 283c0 -182 -143 -299 -314 -299c-169 0 -312 117 -312 299c0 180 143 296 312 296c171 0 314 -116 314 -296zM490 283c0 72 -49 145 -139 145c-89 0 -135 -73 -135 -145c0 -74 47 -147 137 -147c89 0 137 73 137 147zM520 651h-336v86h336v-86z" />
    <glyph glyph-name="z.sc" horiz-adv-x="569" 
d="M53 0v126l245 301h-239v136h451v-122l-247 -302h253v-139h-463z" />
    <glyph glyph-name="questiondown.sc" horiz-adv-x="500" 
d="M170 343h163v-19c0 -38 -13 -70 -57 -102l-23 -17c-22 -16 -32 -31 -32 -49c0 -15 11 -34 36 -34c20 0 36 15 40 43l156 -18c-7 -76 -74 -163 -203 -163c-128 0 -193 74 -193 163c0 55 18 95 75 136c28 20 38 34 38 51v9zM154 479c0 53 42 94 96 94c53 0 97 -40 97 -93
c0 -52 -43 -94 -97 -94c-53 0 -96 41 -96 93z" />
    <glyph glyph-name="idieresis.sc" horiz-adv-x="307" 
d="M70 0v563h167v-563h-167zM346 708c0 -46 -38 -82 -83 -82c-47 0 -83 37 -83 82c0 43 36 81 83 81c45 0 83 -36 83 -81zM129 708c0 -46 -38 -82 -84 -82s-83 37 -83 82c0 43 37 81 83 81s84 -36 84 -81z" />
    <glyph glyph-name="one.sc" horiz-adv-x="576" 
d="M238 0v375l-100 -75l-88 116l201 147h153v-563h-166z" />
    <glyph glyph-name="question.sc" horiz-adv-x="500" 
d="M330 220h-163v19c0 38 13 70 57 102l23 17c22 16 32 31 32 49c0 15 -11 34 -36 34c-20 0 -36 -15 -40 -43l-156 18c7 76 74 163 203 163c128 0 193 -74 193 -163c0 -55 -18 -95 -75 -136c-28 -20 -38 -34 -38 -51v-9zM346 84c0 -53 -42 -94 -96 -94c-53 0 -97 40 -97 93
c0 52 43 94 97 94c53 0 96 -41 96 -93z" />
    <glyph glyph-name="wcircumflex" unicode="&#x175;" horiz-adv-x="871" 
d="M871 498l-173 -498h-165l-98 310h-2l-96 -310h-165l-172 498h177l86 -315h3l89 315h165l92 -315h2l87 315h170zM635 572h-130l-68 81l-68 -81h-128l124 144h148z" />
    <glyph glyph-name="iacute.sc" horiz-adv-x="307" 
d="M70 0v563h167v-563h-167zM354 766l-146 -144h-124l104 144h166z" />
    <glyph glyph-name="three.sc" horiz-adv-x="576" 
d="M419 296v-3c67 -22 92 -70 92 -129c0 -125 -116 -180 -229 -180c-110 0 -205 43 -238 153l153 42c13 -40 40 -63 80 -63s65 20 65 56c0 39 -31 63 -85 63h-37v109h36c46 0 74 22 74 57c0 28 -21 48 -53 48c-30 0 -56 -21 -64 -56l-154 36c29 103 124 150 224 150
c112 0 215 -49 215 -159c0 -56 -26 -102 -79 -124z" />
    <glyph glyph-name="Ubreve" unicode="&#x16c;" horiz-adv-x="738" 
d="M673 267c0 -170 -120 -286 -305 -286c-186 0 -302 116 -302 286v441h170v-427c0 -76 37 -146 133 -146c97 0 133 70 133 146v427h171v-441zM544 908c-9 -104 -82 -144 -175 -144c-91 0 -166 39 -173 144h84c7 -43 49 -55 90 -55c45 0 81 8 90 55h84z" />
    <glyph glyph-name="ordfeminine.sc" horiz-adv-x="384" 
d="M16 431l130 293h94l127 -293h-104l-19 51h-104l-20 -51h-104zM222 542l-31 86l-32 -86h63z" />
    <glyph glyph-name="Ccircumflex" unicode="&#x108;" horiz-adv-x="696" 
d="M696 98c-62 -72 -156 -117 -275 -117c-218 0 -381 152 -381 374c0 227 168 372 384 372c99 0 206 -36 265 -104l-116 -116c-32 44 -89 65 -143 65c-119 0 -204 -92 -204 -217c0 -129 83 -217 201 -217c67 0 120 30 150 72zM625 764h-130l-68 81l-68 -81h-128l124 144h148
z" />
    <glyph glyph-name="l.sc" horiz-adv-x="471" 
d="M70 0v563h167v-423h208v-140h-375z" />
    <glyph glyph-name="igrave" unicode="&#xec;" horiz-adv-x="296" 
d="M230 0h-164v498h164v-498zM228 572h-124l-146 144h166z" />
    <glyph glyph-name="Cdotaccent" unicode="&#x10a;" horiz-adv-x="696" 
d="M696 98c-62 -72 -156 -117 -275 -117c-218 0 -381 152 -381 374c0 227 168 372 384 372c99 0 206 -36 265 -104l-116 -116c-32 44 -89 65 -143 65c-119 0 -204 -92 -204 -217c0 -129 83 -217 201 -217c67 0 120 30 150 72zM515 849c0 -48 -40 -85 -90 -85s-89 39 -89 85
s39 86 89 86s90 -38 90 -86z" />
    <glyph glyph-name="pi" unicode="&#x3c0;" horiz-adv-x="666" 
d="M627 18c-36 -18 -74 -25 -119 -25c-98 0 -124 61 -124 138v230h-115v-361h-166v361h-69v137h591v-137h-78v-201c0 -21 7 -43 35 -43c12 0 27 4 45 12v-111z" />
    <glyph glyph-name="umacron" unicode="&#x16b;" horiz-adv-x="614" 
d="M550 0h-158v69h-2c-23 -44 -80 -83 -150 -83c-134 0 -181 104 -181 204v308h165v-270c0 -56 14 -106 74 -106c57 0 88 50 88 107v269h164v-498zM472 601h-336v86h336v-86z" />
    <glyph glyph-name="Utilde" unicode="&#x168;" horiz-adv-x="738" 
d="M673 267c0 -170 -120 -286 -305 -286c-186 0 -302 116 -302 286v441h170v-427c0 -76 37 -146 133 -146c97 0 133 70 133 146v427h171v-441zM559 900c-8 -70 -40 -132 -113 -132c-28 0 -55 9 -81 21c-27 14 -45 20 -63 20c-24 0 -36 -19 -42 -40h-72c9 69 40 130 113 130
c28 0 54 -8 80 -20c28 -13 47 -20 65 -20c25 0 36 17 42 41h71z" />
    <glyph glyph-name="scommaaccent.sc" horiz-adv-x="507" 
d="M473 498l-95 -103c-29 27 -68 50 -111 50c-31 0 -64 -13 -64 -45c0 -31 28 -41 95 -57c81 -19 168 -59 168 -168c0 -142 -118 -191 -225 -191c-85 0 -174 30 -228 87l96 108c31 -36 80 -62 130 -62c28 0 61 12 61 48c0 34 -33 46 -104 64c-73 18 -153 55 -153 161
c0 133 118 189 219 189c78 0 159 -28 211 -81zM337 -45l-86 -195h-126l67 195h145z" />
    <glyph glyph-name="lessequal" unicode="&#x2264;" horiz-adv-x="666" 
d="M587 18h-508v123h508v-123zM587 154l-508 214v103l508 214v-136l-306 -131l306 -127v-137z" />
    <glyph glyph-name="uni00A0" unicode="&#xa0;" horiz-adv-x="250" 
 />
    <glyph glyph-name="uring.sc" horiz-adv-x="646" 
d="M321 -16c-159 0 -255 93 -255 234v345h167v-334c0 -60 32 -99 89 -99c58 0 91 39 91 99v334h167v-345c0 -141 -98 -234 -259 -234zM433 714c0 -62 -49 -107 -109 -107s-109 45 -109 106c0 62 48 108 109 108c60 0 109 -46 109 -107zM383 714c0 33 -26 58 -59 58
c-34 0 -59 -26 -59 -59c0 -32 26 -57 59 -57s59 25 59 58z" />
    <glyph glyph-name="Wcircumflex" unicode="&#x174;" horiz-adv-x="1025" 
d="M1025 708l-202 -708h-169l-140 479h-3l-140 -479h-170l-201 708h184l112 -471h3l126 471h178l127 -471h3l114 471h178zM712 764h-130l-68 81l-68 -81h-128l124 144h148z" />
    <glyph glyph-name="i.sc" horiz-adv-x="307" 
d="M70 0v563h167v-563h-167z" />
    <glyph glyph-name="onesuperior" unicode="&#xb9;" horiz-adv-x="420" 
d="M297 272h-117v306l-74 -58l-60 81l145 107h106v-436z" />
    <glyph glyph-name="threequarters" unicode="&#xbe;" horiz-adv-x="940" 
d="M882 83h-58v-83h-106v83h-200v93l175 260h131v-259h58v-94zM718 177v134h-1l-88 -134h89zM701 699l-388 -729l-87 39l384 730zM379 404c0 -96 -85 -137 -164 -137s-151 35 -176 122l105 28c9 -29 30 -53 64 -53c27 0 56 12 56 46c0 39 -39 47 -78 47h-33v84h36
c36 0 65 11 65 46c0 23 -19 38 -46 38c-24 0 -45 -19 -51 -48l-105 25c22 78 92 118 164 118c79 0 153 -37 153 -121c0 -45 -23 -78 -57 -95c43 -15 67 -53 67 -100z" />
    <glyph glyph-name="uni03A9" unicode="&#x3a9;" horiz-adv-x="771" 
d="M720 0h-291v219c43 10 76 34 98 67s33 74 33 119c0 107 -83 175 -173 175c-92 0 -175 -67 -175 -176c0 -92 54 -162 130 -185v-219h-291v144h167v11c-52 16 -94 49 -122 92c-29 44 -45 98 -45 158c0 189 151 316 334 316c184 0 335 -124 335 -314
c0 -121 -58 -220 -167 -252v-11h167v-144z" />
    <glyph glyph-name="Ucircumflex" unicode="&#xdb;" horiz-adv-x="738" 
d="M673 267c0 -170 -120 -286 -305 -286c-186 0 -302 116 -302 286v441h170v-427c0 -76 37 -146 133 -146c97 0 133 70 133 146v427h171v-441zM567 764h-130l-68 81l-68 -81h-128l124 144h148z" />
    <glyph glyph-name="hcircumflex.sc" horiz-adv-x="656" 
d="M419 0v226h-182v-226h-167v563h167v-209h182v209h167v-563h-167zM527 622h-130l-68 81l-68 -81h-128l124 144h148z" />
    <glyph glyph-name="zcaron" unicode="&#x17e;" horiz-adv-x="512" 
d="M478 0h-444v128l234 244h-225v126h425v-123l-241 -248h251v-127zM459 716l-123 -144h-147l-124 144h130l68 -81l68 81h128z" />
    <glyph glyph-name="ograve.sc" horiz-adv-x="704" 
d="M665 283c0 -182 -143 -299 -314 -299c-169 0 -312 117 -312 299c0 180 143 296 312 296c171 0 314 -116 314 -296zM490 283c0 72 -49 145 -139 145c-89 0 -135 -73 -135 -145c0 -74 47 -147 137 -147c89 0 137 73 137 147zM424 622h-124l-146 144h166z" />
    <glyph glyph-name="Yacute" unicode="&#xdd;" horiz-adv-x="669" 
d="M689 708l-272 -408v-300h-171v300l-266 408h207l151 -262l151 262h200zM543 908l-146 -144h-124l104 144h166z" />
    <glyph glyph-name="ycircumflex.sc" horiz-adv-x="566" 
d="M365 222v-222h-167v222l-208 341h196l101 -201l100 201h189zM484 622h-130l-68 81l-68 -81h-128l124 144h148z" />
    <glyph glyph-name="o.sc" horiz-adv-x="704" 
d="M665 283c0 -182 -143 -299 -314 -299c-169 0 -312 117 -312 299c0 180 143 296 312 296c171 0 314 -116 314 -296zM490 283c0 72 -49 145 -139 145c-89 0 -135 -73 -135 -145c0 -74 47 -147 137 -147c89 0 137 73 137 147z" />
    <glyph glyph-name="tbar" unicode="&#x167;" horiz-adv-x="372" 
d="M339 215h-97v-30c0 -46 15 -70 62 -70c16 0 36 3 48 8l2 -120c-22 -8 -60 -15 -95 -15c-133 0 -177 71 -177 177v50h-71v89h71v71h-80v123h79v131h161v-131h117v-123h-117v-71h97v-89z" />
    <glyph glyph-name="icircumflex" unicode="&#xee;" horiz-adv-x="296" 
d="M230 0h-164v498h164v-498zM348 572h-130l-68 81l-68 -81h-128l124 144h148z" />
    <glyph glyph-name="itilde" unicode="&#x129;" horiz-adv-x="296" 
d="M230 0h-164v498h164v-498zM335 708c-8 -70 -40 -132 -113 -132c-28 0 -55 9 -81 21c-27 14 -45 20 -63 20c-24 0 -36 -19 -42 -40h-72c9 69 40 130 113 130c28 0 54 -8 80 -20c28 -13 47 -20 65 -20c25 0 36 17 42 41h71z" />
    <glyph glyph-name="scircumflex.sc" horiz-adv-x="507" 
d="M473 498l-95 -103c-29 27 -68 50 -111 50c-31 0 -64 -13 -64 -45c0 -31 28 -41 95 -57c81 -19 168 -59 168 -168c0 -142 -118 -191 -225 -191c-85 0 -174 30 -228 87l96 108c31 -36 80 -62 130 -62c28 0 61 12 61 48c0 34 -33 46 -104 64c-73 18 -153 55 -153 161
c0 133 118 189 219 189c78 0 159 -28 211 -81zM457 622h-130l-68 81l-68 -81h-128l124 144h148z" />
    <glyph glyph-name="j.sc" horiz-adv-x="476" 
d="M202 -16c-105 0 -180 63 -201 152l149 49c6 -40 27 -55 49 -55c33 0 44 22 44 58v375h167v-369c0 -105 -45 -210 -208 -210z" />
    <glyph glyph-name="scommaaccent" unicode="&#x219;" horiz-adv-x="472" 
d="M447 444l-90 -93c-26 25 -64 45 -104 45c-31 0 -62 -11 -62 -40c0 -28 27 -36 91 -50c76 -17 159 -55 159 -152c0 -126 -111 -170 -213 -170c-81 0 -165 27 -217 77l92 97c29 -32 74 -56 122 -56c27 0 59 11 59 43c0 31 -31 41 -99 57c-69 16 -145 51 -145 145
c0 119 112 167 207 167c74 0 151 -24 200 -70zM304 -45l-86 -195h-126l67 195h145z" />
    <glyph glyph-name="Atilde" unicode="&#xc3;" horiz-adv-x="729" 
d="M743 0h-190l-55 139h-274l-52 -139h-186l297 708h166zM451 276l-88 243l-90 -243h178zM551 900c-8 -70 -40 -132 -113 -132c-28 0 -55 9 -81 21c-27 14 -45 20 -63 20c-24 0 -36 -19 -42 -40h-72c9 69 40 130 113 130c28 0 54 -8 80 -20c28 -13 47 -20 65 -20
c25 0 36 17 42 41h71z" />
    <glyph glyph-name="igrave.sc" horiz-adv-x="307" 
d="M70 0v563h167v-563h-167zM221 622h-124l-146 144h166z" />
    <glyph glyph-name="aring.sc" horiz-adv-x="641" 
d="M-2 0l237 563h174l234 -563h-181l-38 102h-210l-39 -102h-177zM382 222l-63 172l-64 -172h127zM429 714c0 -62 -49 -107 -109 -107s-109 45 -109 106c0 62 48 108 109 108c60 0 109 -46 109 -107zM379 714c0 33 -26 58 -59 58c-34 0 -59 -26 -59 -59c0 -32 26 -57 59 -57
s59 25 59 58z" />
    <glyph glyph-name="gdotaccent" unicode="&#x121;" horiz-adv-x="658" 
d="M592 47c0 -195 -116 -287 -293 -287c-87 0 -189 28 -256 78l82 117c48 -42 109 -63 165 -63c96 0 141 56 141 139v30h-3c-31 -40 -85 -66 -151 -66c-151 0 -238 118 -238 256s87 261 237 261c62 0 124 -25 159 -78h2v64h155v-451zM436 252c0 68 -47 126 -121 126
s-117 -57 -117 -126c0 -66 43 -127 117 -127c75 0 121 59 121 127zM411 657c0 -48 -40 -85 -90 -85s-89 39 -89 85s39 86 89 86s90 -38 90 -86z" />
    <glyph glyph-name="ucircumflex" unicode="&#xfb;" horiz-adv-x="614" 
d="M550 0h-158v69h-2c-23 -44 -80 -83 -150 -83c-134 0 -181 104 -181 204v308h165v-270c0 -56 14 -106 74 -106c57 0 88 50 88 107v269h164v-498zM505 572h-130l-68 81l-68 -81h-128l124 144h148z" />
    <glyph glyph-name="ring.sc" 
d="M259 714c0 -62 -49 -107 -109 -107s-109 45 -109 106c0 62 48 108 109 108c60 0 109 -46 109 -107zM209 714c0 33 -26 58 -59 58c-34 0 -59 -26 -59 -59c0 -32 26 -57 59 -57s59 25 59 58z" />
    <glyph glyph-name="ugrave" unicode="&#xf9;" horiz-adv-x="614" 
d="M550 0h-158v69h-2c-23 -44 -80 -83 -150 -83c-134 0 -181 104 -181 204v308h165v-270c0 -56 14 -106 74 -106c57 0 88 50 88 107v269h164v-498zM408 572h-124l-146 144h166z" />
    <glyph glyph-name="Tcommaaccent" unicode="&#x162;" horiz-adv-x="581" 
d="M576 562h-200v-562h-171v562h-200v146h571v-146zM365 -45l-86 -195h-126l67 195h145z" />
    <glyph glyph-name="Zcaron" unicode="&#x17d;" horiz-adv-x="635" 
d="M597 0h-558v148l337 415h-329v145h543v-137l-345 -423h352v-148zM516 908l-123 -144h-147l-124 144h130l68 -81l68 81h128z" />
    <glyph glyph-name="aacute" unicode="&#xe1;" horiz-adv-x="566" 
d="M358 200v17h-21c-72 0 -153 -9 -153 -68c0 -38 38 -51 71 -51c66 0 103 40 103 102zM140 341l-83 89c58 55 141 84 222 84c167 0 229 -82 229 -263v-251h-150v53h-3c-25 -41 -82 -65 -141 -65c-79 0 -181 39 -181 156c0 144 175 168 320 168v8c0 49 -39 72 -90 72
c-47 0 -93 -23 -123 -51zM458 716l-146 -144h-124l104 144h166z" />
    <glyph glyph-name="hungarumlaut.sc" 
d="M456 766l-146 -144h-124l104 144h166zM236 766l-146 -144h-124l104 144h166z" />
    <glyph glyph-name="Ocircumflex" unicode="&#xd4;" horiz-adv-x="851" 
d="M811 357c0 -224 -164 -376 -386 -376c-221 0 -385 152 -385 376c0 227 164 370 385 370c222 0 386 -143 386 -370zM628 357c0 124 -83 216 -203 216s-202 -92 -202 -216c0 -128 83 -220 202 -220s203 92 203 220zM623 764h-130l-68 81l-68 -81h-128l124 144h148z" />
    <glyph glyph-name="Oacute" unicode="&#xd3;" horiz-adv-x="851" 
d="M811 357c0 -224 -164 -376 -386 -376c-221 0 -385 152 -385 376c0 227 164 370 385 370c222 0 386 -143 386 -370zM628 357c0 124 -83 216 -203 216s-202 -92 -202 -216c0 -128 83 -220 202 -220s203 92 203 220zM605 908l-146 -144h-124l104 144h166z" />
    <glyph glyph-name="sterling.sc" horiz-adv-x="576" 
d="M71 0v128h69v106h-69v113h69v38c0 103 69 194 202 194c76 0 130 -25 164 -62l-95 -109c-12 18 -32 30 -60 30c-32 0 -52 -24 -52 -53v-38h120v-113h-120v-106h203v-128h-431z" />
    <glyph glyph-name="nacute.sc" horiz-adv-x="672" 
d="M70 0v563h184l190 -323h2l-5 323h161v-563h-182l-191 319h-3l4 -319h-160zM518 766l-146 -144h-124l104 144h166z" />
    <glyph glyph-name="uring" unicode="&#x16f;" horiz-adv-x="614" 
d="M550 0h-158v69h-2c-23 -44 -80 -83 -150 -83c-134 0 -181 104 -181 204v308h165v-270c0 -56 14 -106 74 -106c57 0 88 50 88 107v269h164v-498zM414 664c0 -62 -49 -107 -109 -107s-109 45 -109 106c0 62 48 108 109 108c60 0 109 -46 109 -107zM364 664
c0 33 -26 58 -59 58c-34 0 -59 -26 -59 -59c0 -32 26 -57 59 -57s59 25 59 58z" />
    <glyph glyph-name="uacute" unicode="&#xfa;" horiz-adv-x="614" 
d="M550 0h-158v69h-2c-23 -44 -80 -83 -150 -83c-134 0 -181 104 -181 204v308h165v-270c0 -56 14 -106 74 -106c57 0 88 50 88 107v269h164v-498zM489 716l-146 -144h-124l104 144h166z" />
    <glyph glyph-name="ubreve.sc" horiz-adv-x="646" 
d="M321 -16c-159 0 -255 93 -255 234v345h167v-334c0 -60 32 -99 89 -99c58 0 91 39 91 99v334h167v-345c0 -141 -98 -234 -259 -234zM496 766c-9 -104 -82 -144 -175 -144c-91 0 -166 39 -173 144h84c7 -43 49 -55 90 -55c45 0 81 8 90 55h84z" />
    <glyph glyph-name="seven.sc" horiz-adv-x="576" 
d="M296 0h-181l222 424h-256v139h424v-128z" />
    <glyph glyph-name="odieresis.sc" horiz-adv-x="704" 
d="M665 283c0 -182 -143 -299 -314 -299c-169 0 -312 117 -312 299c0 180 143 296 312 296c171 0 314 -116 314 -296zM490 283c0 72 -49 145 -139 145c-89 0 -135 -73 -135 -145c0 -74 47 -147 137 -147c89 0 137 73 137 147zM544 708c0 -46 -38 -82 -83 -82
c-47 0 -83 37 -83 82c0 43 36 81 83 81c45 0 83 -36 83 -81zM327 708c0 -46 -38 -82 -84 -82s-83 37 -83 82c0 43 37 81 83 81s84 -36 84 -81z" />
    <glyph glyph-name="zcaron.sc" horiz-adv-x="569" 
d="M53 0v126l245 301h-239v136h451v-122l-247 -302h253v-139h-463zM483 766l-123 -144h-147l-124 144h130l68 -81l68 81h128z" />
    <glyph glyph-name="obreve" unicode="&#x14f;" horiz-adv-x="632" 
d="M592 251c0 -163 -126 -267 -277 -267c-150 0 -276 104 -276 267s126 263 276 263c151 0 277 -100 277 -263zM434 251c0 64 -42 127 -119 127s-117 -63 -117 -127s41 -129 118 -129s118 65 118 129zM488 716c-9 -104 -82 -144 -175 -144c-91 0 -166 39 -173 144h84
c4 -21 16 -35 32 -44c17 -8 38 -11 58 -11c45 0 81 8 90 55h84z" />
    <glyph glyph-name="nine.onum" horiz-adv-x="656" 
d="M606 318c0 -179 -176 -383 -321 -502l-153 71c90 72 179 161 223 228l-2 2c-16 -11 -44 -17 -72 -17c-123 0 -231 89 -231 229c0 161 125 254 278 254s278 -87 278 -265zM437 332c0 61 -44 110 -109 110c-66 0 -110 -47 -110 -111c0 -61 43 -108 109 -108s110 46 110 109
z" />
    <glyph glyph-name="uni02C9" unicode="&#x2c9;" 
d="M318 793h-336v86h336v-86z" />
    <glyph glyph-name="germandbls.sc" horiz-adv-x="1013" 
d="M473 498l-95 -103c-29 27 -68 50 -111 50c-31 0 -64 -13 -64 -45c0 -31 28 -41 95 -57c81 -19 168 -59 168 -168c0 -142 -118 -191 -225 -191c-85 0 -174 30 -228 87l96 108c31 -36 80 -62 130 -62c28 0 61 12 61 48c0 34 -33 46 -104 64c-73 18 -153 55 -153 161
c0 133 118 189 219 189c78 0 159 -28 211 -81zM979 498l-95 -103c-29 27 -68 50 -111 50c-31 0 -64 -13 -64 -45c0 -31 28 -41 95 -57c81 -19 168 -59 168 -168c0 -142 -118 -191 -225 -191c-85 0 -174 30 -228 87l96 108c31 -36 80 -62 130 -62c28 0 61 12 61 48
c0 34 -33 46 -104 64c-73 18 -153 55 -153 161c0 133 118 189 219 189c78 0 159 -28 211 -81z" />
    <glyph glyph-name="mu" unicode="&#xb5;" horiz-adv-x="666" 
d="M89 498h162v-248c0 -45 10 -124 77 -124s91 51 91 111v261h162v-498h-155v57h-1c-20 -35 -52 -64 -111 -64c-24 0 -49 7 -63 20v-239h-162v724z" />
    <glyph glyph-name="Racute" unicode="&#x154;" horiz-adv-x="663" 
d="M652 0h-200l-153 281h-58v-281h-168v708h270c136 0 271 -52 271 -214c0 -95 -56 -163 -147 -191zM445 491c0 66 -63 79 -114 79h-91v-165h81c55 0 124 14 124 86zM496 908l-146 -144h-124l104 144h166z" />
    <glyph glyph-name="aacute.sc" horiz-adv-x="641" 
d="M-2 0l237 563h174l234 -563h-181l-38 102h-210l-39 -102h-177zM382 222l-63 172l-64 -172h127zM522 766l-146 -144h-124l104 144h166z" />
    <glyph glyph-name="Dcaron" unicode="&#x10e;" horiz-adv-x="774" 
d="M734 356c0 -249 -202 -356 -397 -356h-264v708h256c201 0 405 -84 405 -352zM556 356c0 159 -113 206 -231 206h-85v-414h81c122 0 235 50 235 208zM554 908l-123 -144h-147l-124 144h130l68 -81l68 81h128z" />
    <glyph glyph-name="plusminus" unicode="&#xb1;" horiz-adv-x="666" 
d="M616 331h-212v-132h-130v132h-213v127h213v132h130v-132h212v-127zM616 31h-555v127h555v-127z" />
    <glyph glyph-name="abreve" unicode="&#x103;" horiz-adv-x="566" 
d="M358 200v17h-21c-72 0 -153 -9 -153 -68c0 -38 38 -51 71 -51c66 0 103 40 103 102zM140 341l-83 89c58 55 141 84 222 84c167 0 229 -82 229 -263v-251h-150v53h-3c-25 -41 -82 -65 -141 -65c-79 0 -181 39 -181 156c0 144 175 168 320 168v8c0 49 -39 72 -90 72
c-47 0 -93 -23 -123 -51zM460 716c-9 -104 -82 -144 -175 -144c-91 0 -166 39 -173 144h84c4 -21 16 -35 32 -44c17 -8 38 -11 58 -11c45 0 81 8 90 55h84z" />
    <glyph glyph-name="q.sc" horiz-adv-x="709" 
d="M588 132v-4l107 5v-133h-349c-183 0 -307 100 -307 288c0 173 133 291 312 291c184 0 311 -106 311 -277c0 -72 -27 -129 -74 -170zM215 286c0 -89 53 -150 136 -150c87 0 137 63 137 150c0 79 -51 145 -137 145c-82 0 -136 -65 -136 -145z" />
    <glyph glyph-name="Aogonek" unicode="&#x104;" horiz-adv-x="729" 
d="M680 -196c-31 -23 -73 -40 -115 -40c-54 0 -113 26 -113 91c0 57 55 111 102 145h-1l-55 139h-274l-52 -139h-186l297 708h166l294 -708h-97c-50 -40 -90 -83 -90 -118c0 -21 16 -36 37 -36c19 0 38 8 55 20zM451 276l-88 243l-90 -243h178z" />
    <glyph glyph-name="lozenge" unicode="&#x25ca;" horiz-adv-x="606" 
d="M546 356l-184 -391h-120l-181 391l182 391h119zM405 356l-103 241l-101 -241l101 -241z" />
    <glyph glyph-name="exclamdown.sc" horiz-adv-x="339" 
d="M252 0h-166v343h166v-343zM266 480c0 -52 -43 -93 -97 -93s-96 42 -96 94c0 53 44 92 96 92c54 0 97 -40 97 -93z" />
    <glyph glyph-name="zdotaccent" unicode="&#x17c;" horiz-adv-x="512" 
d="M478 0h-444v128l234 244h-225v126h425v-123l-241 -248h251v-127zM349 657c0 -48 -40 -85 -90 -85s-89 39 -89 85s39 86 89 86s90 -38 90 -86z" />
    <glyph glyph-name="jcircumflex.sc" horiz-adv-x="476" 
d="M202 -16c-105 0 -180 63 -201 152l149 49c6 -40 27 -55 49 -55c33 0 44 22 44 58v375h167v-369c0 -105 -45 -210 -208 -210zM523 622h-130l-68 81l-68 -81h-128l124 144h148z" />
    <glyph glyph-name="Eacute" unicode="&#xc9;" horiz-adv-x="607" 
d="M567 0h-494v708h476v-145h-311v-133h294v-137h-294v-147h329v-146zM503 908l-146 -144h-124l104 144h166z" />
    <glyph glyph-name="Ydieresis" unicode="&#x178;" horiz-adv-x="669" 
d="M689 708l-272 -408v-300h-171v300l-266 408h207l151 -262l151 262h200zM530 850c0 -46 -38 -82 -83 -82c-47 0 -83 37 -83 82c0 43 36 81 83 81c45 0 83 -36 83 -81zM313 850c0 -46 -38 -82 -84 -82s-83 37 -83 82c0 43 37 81 83 81s84 -36 84 -81z" />
    <glyph glyph-name="zacute" unicode="&#x17a;" horiz-adv-x="512" 
d="M478 0h-444v128l234 244h-225v126h425v-123l-241 -248h251v-127zM443 716l-146 -144h-124l104 144h166z" />
    <glyph glyph-name="Zacute" unicode="&#x179;" horiz-adv-x="635" 
d="M597 0h-558v148l337 415h-329v145h543v-137l-345 -423h352v-148zM517 908l-146 -144h-124l104 144h166z" />
    <glyph glyph-name="minus" unicode="&#x2212;" horiz-adv-x="666" 
d="M598 242h-530v123h530v-123z" />
    <glyph glyph-name="uogonek" unicode="&#x173;" horiz-adv-x="614" 
d="M518 -196c-31 -23 -73 -40 -115 -40c-54 0 -113 26 -113 91c0 57 55 111 102 145v69h-2c-23 -44 -80 -83 -150 -83c-134 0 -181 104 -181 204v308h165v-270c0 -56 14 -106 74 -106c57 0 88 50 88 107v269h164v-498h-66c-50 -40 -90 -83 -90 -118c0 -21 16 -36 37 -36
c19 0 38 8 55 20z" />
    <glyph glyph-name="Dcroat" unicode="&#x110;" horiz-adv-x="774" 
d="M732 356c0 -245 -200 -356 -386 -356h-272v309h-61v107h61v292h273c201 0 385 -100 385 -352zM557 356c0 140 -93 203 -226 203h-90v-143h181v-107h-181v-159h74c139 0 242 59 242 206z" />
    <glyph glyph-name="lacute.sc" horiz-adv-x="471" 
d="M70 0v563h167v-423h208v-140h-375zM360 766l-146 -144h-124l104 144h166z" />
    <glyph glyph-name="uni2215" unicode="&#x2215;" horiz-adv-x="100" 
d="M281 699l-388 -729l-87 39l388 731z" />
    <glyph glyph-name="Uogonek" unicode="&#x172;" horiz-adv-x="738" 
d="M483 -196c-31 -23 -73 -40 -115 -40c-54 0 -113 26 -113 91c0 48 39 94 80 128c-167 13 -269 124 -269 284v441h170v-427c0 -76 37 -146 133 -146c97 0 133 70 133 146v427h171v-441c0 -150 -93 -257 -241 -281c-41 -36 -73 -73 -73 -104c0 -21 16 -36 37 -36
c19 0 38 8 55 20z" />
    <glyph glyph-name="ecaron" unicode="&#x11b;" horiz-adv-x="596" 
d="M196 306h211c0 52 -33 95 -98 95c-63 0 -109 -44 -113 -95zM558 243c0 -13 0 -27 -1 -39h-361c5 -55 60 -94 119 -94c52 0 88 22 110 52l114 -72c-47 -68 -125 -106 -226 -106c-150 0 -274 95 -274 263c0 163 118 267 269 267c147 0 250 -101 250 -271zM509 716
l-123 -144h-147l-124 144h130l68 -81l68 81h128z" />
    <glyph glyph-name="Amacron" unicode="&#x100;" horiz-adv-x="729" 
d="M743 0h-190l-55 139h-274l-52 -139h-186l297 708h166zM451 276l-88 243l-90 -243h178zM532 793h-336v86h336v-86z" />
    <glyph glyph-name="zacute.sc" horiz-adv-x="569" 
d="M53 0v126l245 301h-239v136h451v-122l-247 -302h253v-139h-463zM463 766l-146 -144h-124l104 144h166z" />
    <glyph glyph-name="Odieresis" unicode="&#xd6;" horiz-adv-x="851" 
d="M811 357c0 -224 -164 -376 -386 -376c-221 0 -385 152 -385 376c0 227 164 370 385 370c222 0 386 -143 386 -370zM628 357c0 124 -83 216 -203 216s-202 -92 -202 -216c0 -128 83 -220 202 -220s203 92 203 220zM618 850c0 -46 -38 -82 -83 -82c-47 0 -83 37 -83 82
c0 43 36 81 83 81c45 0 83 -36 83 -81zM401 850c0 -46 -38 -82 -84 -82s-83 37 -83 82c0 43 37 81 83 81s84 -36 84 -81z" />
    <glyph glyph-name="six.onum" horiz-adv-x="656" 
d="M606 234c0 -160 -125 -254 -278 -254c-152 0 -278 82 -278 263c0 184 176 377 317 493l154 -70c-85 -64 -175 -151 -220 -218l2 -2c16 11 43 17 72 17c123 0 231 -89 231 -229zM438 232c0 62 -43 108 -109 108s-110 -46 -110 -108s44 -111 109 -111c66 0 110 47 110 111z
" />
    <glyph glyph-name="approxequal" unicode="&#x2248;" horiz-adv-x="666" 
d="M580 468c-11 -122 -70 -192 -161 -192c-80 0 -185 64 -246 64c-28 0 -45 -27 -51 -55h-96c8 91 52 183 162 183c82 0 166 -59 245 -59c29 0 45 22 50 59h97zM579 247c-10 -86 -48 -184 -159 -184c-81 0 -188 65 -248 65c-28 0 -46 -26 -52 -62h-96c8 92 52 191 158 191
c83 0 169 -61 251 -61c27 0 42 22 49 51h97z" />
    <glyph glyph-name="Uring" unicode="&#x16e;" horiz-adv-x="738" 
d="M673 267c0 -170 -120 -286 -305 -286c-186 0 -302 116 -302 286v441h170v-427c0 -76 37 -146 133 -146c97 0 133 70 133 146v427h171v-441zM483 856c0 -62 -49 -107 -109 -107s-109 45 -109 106c0 62 48 108 109 108c60 0 109 -46 109 -107zM433 856c0 33 -26 58 -59 58
c-34 0 -59 -26 -59 -59c0 -32 26 -57 59 -57s59 25 59 58z" />
    <glyph glyph-name="k.sc" horiz-adv-x="623" 
d="M417 0l-179 250h-2v-250h-166v563h166v-225h2l177 225h201l-228 -260l241 -303h-212z" />
    <glyph glyph-name="tcommaaccent.sc" horiz-adv-x="483" 
d="M325 425v-425h-167v425h-153v138h473v-138h-153zM315 -45l-86 -195h-126l67 195h145z" />
    <glyph glyph-name="udieresis" unicode="&#xfc;" horiz-adv-x="614" 
d="M550 0h-158v69h-2c-23 -44 -80 -83 -150 -83c-134 0 -181 104 -181 204v308h165v-270c0 -56 14 -106 74 -106c57 0 88 50 88 107v269h164v-498zM499 658c0 -46 -38 -82 -83 -82c-47 0 -83 37 -83 82c0 43 36 81 83 81c45 0 83 -36 83 -81zM282 658c0 -46 -38 -82 -84 -82
s-83 37 -83 82c0 43 37 81 83 81s84 -36 84 -81z" />
    <glyph glyph-name="scircumflex" unicode="&#x15d;" horiz-adv-x="472" 
d="M447 444l-90 -93c-26 25 -64 45 -104 45c-31 0 -62 -11 -62 -40c0 -28 27 -36 91 -50c76 -17 159 -55 159 -152c0 -126 -111 -170 -213 -170c-81 0 -165 27 -217 77l92 97c29 -32 74 -56 122 -56c27 0 59 11 59 43c0 31 -31 41 -99 57c-69 16 -145 51 -145 145
c0 119 112 167 207 167c74 0 151 -24 200 -70zM445 572h-130l-68 81l-68 -81h-128l124 144h148z" />
    <glyph glyph-name="r.sc" horiz-adv-x="568" 
d="M70 0v563h235c125 0 225 -45 225 -174c0 -78 -40 -134 -102 -159l137 -230h-184l-108 200h-38v-200h-165zM235 436v-116h55c37 0 74 13 74 63c0 42 -33 53 -73 53h-56z" />
    <glyph glyph-name="integral" unicode="&#x222b;" horiz-adv-x="633" 
d="M519 696c0 -37 -27 -67 -66 -67c-52 0 -51 52 -73 60c-12 -11 -11 -38 -11 -53c0 -28 2 -55 2 -83v-440c0 -37 0 -76 -2 -113c-4 -105 -32 -214 -166 -214c-50 0 -124 24 -124 92c0 7 2 13 5 18c7 27 32 46 62 46c51 0 49 -51 70 -58c13 7 12 33 12 47c1 27 -2 54 -2 80
v34v462c0 118 5 278 170 278c46 0 123 -23 123 -89z" />
    <glyph glyph-name="yacute" unicode="&#xfd;" horiz-adv-x="567" 
d="M568 498l-223 -573c-40 -104 -94 -165 -219 -165c-31 0 -66 5 -90 11l18 138c16 -5 37 -9 53 -9c51 0 68 24 84 67l16 41l-208 490h182l111 -320h3l99 320h174zM488 716l-146 -144h-124l104 144h166z" />
    <glyph glyph-name="lslash.sc" horiz-adv-x="471" 
d="M70 0v171l-64 -50v142l64 49v251h167v-121l107 83v-141l-107 -83v-161h208v-140h-375z" />
    <glyph glyph-name="Umacron" unicode="&#x16a;" horiz-adv-x="738" 
d="M673 267c0 -170 -120 -286 -305 -286c-186 0 -302 116 -302 286v441h170v-427c0 -76 37 -146 133 -146c97 0 133 70 133 146v427h171v-441zM542 793h-336v86h336v-86z" />
    <glyph glyph-name="scaron.sc" horiz-adv-x="507" 
d="M473 498l-95 -103c-29 27 -68 50 -111 50c-31 0 -64 -13 -64 -45c0 -31 28 -41 95 -57c81 -19 168 -59 168 -168c0 -142 -118 -191 -225 -191c-85 0 -174 30 -228 87l96 108c31 -36 80 -62 130 -62c28 0 61 12 61 48c0 34 -33 46 -104 64c-73 18 -153 55 -153 161
c0 133 118 189 219 189c78 0 159 -28 211 -81zM458 766l-123 -144h-147l-124 144h130l68 -81l68 81h128z" />
    <glyph glyph-name="iacute" unicode="&#xed;" horiz-adv-x="296" 
d="M230 0h-164v498h164v-498zM337 716l-146 -144h-124l104 144h166z" />
    <glyph glyph-name="icircumflex.sc" horiz-adv-x="307" 
d="M70 0v563h167v-563h-167zM351 622h-130l-68 81l-68 -81h-128l124 144h148z" />
    <glyph glyph-name="itilde.sc" horiz-adv-x="307" 
d="M70 0v563h167v-563h-167zM340 758c-8 -70 -40 -132 -113 -132c-28 0 -55 8 -81 21c-27 13 -45 20 -63 20c-24 0 -36 -19 -42 -40h-72c9 69 40 130 113 130c28 0 54 -8 80 -20c28 -13 47 -20 65 -20c25 0 36 17 42 41h71z" />
    <glyph glyph-name="Edieresis" unicode="&#xcb;" horiz-adv-x="607" 
d="M567 0h-494v708h476v-145h-311v-133h294v-137h-294v-147h329v-146zM507 850c0 -46 -38 -82 -83 -82c-47 0 -83 37 -83 82c0 43 36 81 83 81c45 0 83 -36 83 -81zM290 850c0 -46 -38 -82 -84 -82s-83 37 -83 82c0 43 37 81 83 81s84 -36 84 -81z" />
    <glyph glyph-name="Ograve" unicode="&#xd2;" horiz-adv-x="851" 
d="M811 357c0 -224 -164 -376 -386 -376c-221 0 -385 152 -385 376c0 227 164 370 385 370c222 0 386 -143 386 -370zM628 357c0 124 -83 216 -203 216s-202 -92 -202 -216c0 -128 83 -220 202 -220s203 92 203 220zM527 764h-124l-146 144h166z" />
    <glyph glyph-name="Scaron" unicode="&#x160;" horiz-adv-x="591" 
d="M556 639l-109 -115c-29 37 -82 61 -126 61s-99 -15 -99 -71c0 -47 42 -62 109 -83c96 -31 220 -72 220 -213c0 -163 -131 -236 -271 -236c-101 0 -203 37 -265 102l112 114c34 -43 97 -75 153 -75c52 0 98 20 98 77c0 54 -54 71 -147 101c-90 29 -181 75 -181 203
c0 157 142 222 274 222c80 0 170 -30 232 -87zM520 908l-123 -144h-147l-124 144h130l68 -81l68 81h128z" />
    <glyph glyph-name="s.sc" horiz-adv-x="507" 
d="M473 498l-95 -103c-29 27 -68 50 -111 50c-31 0 -64 -13 -64 -45c0 -31 28 -41 95 -57c81 -19 168 -59 168 -168c0 -142 -118 -191 -225 -191c-85 0 -174 30 -228 87l96 108c31 -36 80 -62 130 -62c28 0 61 12 61 48c0 34 -33 46 -104 64c-73 18 -153 55 -153 161
c0 133 118 189 219 189c78 0 159 -28 211 -81z" />
    <glyph glyph-name="ldot" unicode="&#x140;" horiz-adv-x="448" 
d="M232 0h-166v756h166v-756zM448 467c0 -48 -40 -85 -90 -85s-89 39 -89 85s39 86 89 86s90 -38 90 -86z" />
    <glyph glyph-name="hbar.sc" horiz-adv-x="656" 
d="M419 0v216h-182v-216h-167v563h167v-75h182v75h167v-563h-167zM237 344h182v66h-182v-66z" />
    <glyph glyph-name="y.sc" horiz-adv-x="566" 
d="M365 222v-222h-167v222l-208 341h196l101 -201l100 201h189z" />
    <glyph glyph-name="kcommaaccent.sc" horiz-adv-x="623" 
d="M417 0l-179 250h-2v-250h-166v563h166v-225h2l177 225h201l-228 -260l241 -303h-212zM387 -45l-86 -195h-126l67 195h145z" />
    <glyph glyph-name="Ugrave" unicode="&#xd9;" horiz-adv-x="738" 
d="M673 267c0 -170 -120 -286 -305 -286c-186 0 -302 116 -302 286v441h170v-427c0 -76 37 -146 133 -146c97 0 133 70 133 146v427h171v-441zM470 764h-124l-146 144h166z" />
    <glyph glyph-name="afii61289" unicode="&#x2113;" horiz-adv-x="500" 
d="M465 56c-57 -47 -114 -70 -181 -70c-113 0 -173 67 -173 151v25l-54 -45h-2l-54 84l109 86v233c0 112 79 201 192 201c98 0 160 -63 160 -155c0 -103 -62 -195 -196 -303v-101c0 -47 29 -63 57 -63c24 0 54 13 88 37h2zM336 557c0 33 -13 62 -35 62
c-20 0 -35 -29 -35 -69v-157c52 53 70 109 70 164z" />
    <glyph glyph-name="Egrave" unicode="&#xc8;" horiz-adv-x="607" 
d="M567 0h-494v708h476v-145h-311v-133h294v-137h-294v-147h329v-146zM406 764h-124l-146 144h166z" />
    <glyph glyph-name="lcaron" unicode="&#x13e;" horiz-adv-x="432" 
d="M232 0h-166v756h166v-756zM473 708l-86 -195h-126l67 195h145z" />
    <glyph glyph-name="zdotaccent.sc" horiz-adv-x="569" 
d="M53 0v126l245 301h-239v136h451v-122l-247 -302h253v-139h-463zM376 707c0 -48 -40 -85 -90 -85s-89 39 -89 85s39 86 89 86s90 -38 90 -86z" />
    <glyph glyph-name="Acircumflex" unicode="&#xc2;" horiz-adv-x="729" 
d="M743 0h-190l-55 139h-274l-52 -139h-186l297 708h166zM451 276l-88 243l-90 -243h178zM564 764h-130l-68 81l-68 -81h-128l124 144h148z" />
    <glyph glyph-name="uni00AD" unicode="&#xad;" horiz-adv-x="326" 
d="M290 197h-254v130h254v-130z" />
    <glyph glyph-name="tcaron" unicode="&#x165;" horiz-adv-x="432" 
d="M359 375h-117v-190c0 -46 15 -70 62 -70c16 0 36 3 48 8l2 -120c-22 -8 -60 -15 -95 -15c-133 0 -177 71 -177 177v210h-80v123h79v131h161v-131h117v-123zM482 731l-86 -195h-126l67 195h145z" />
    <glyph glyph-name="Tbar" unicode="&#x166;" horiz-adv-x="581" 
d="M576 562h-200v-85h136v-89h-136v-388h-171v388h-131v89h131v85h-200v146h571v-146z" />
    <glyph glyph-name="exclam.sc" horiz-adv-x="339" 
d="M252 563v-343h-166v343h166zM266 83c0 -53 -43 -93 -97 -93c-52 0 -96 39 -96 92c0 52 42 94 96 94s97 -41 97 -93z" />
    <glyph glyph-name="a.sc" horiz-adv-x="641" 
d="M-2 0l237 563h174l234 -563h-181l-38 102h-210l-39 -102h-177zM382 222l-63 172l-64 -172h127z" />
    <glyph glyph-name="Omacron" unicode="&#x14c;" horiz-adv-x="851" 
d="M811 357c0 -224 -164 -376 -386 -376c-221 0 -385 152 -385 376c0 227 164 370 385 370c222 0 386 -143 386 -370zM628 357c0 124 -83 216 -203 216s-202 -92 -202 -216c0 -128 83 -220 202 -220s203 92 203 220zM591 793h-336v86h336v-86z" />
    <glyph glyph-name="Obreve" unicode="&#x14e;" horiz-adv-x="851" 
d="M811 357c0 -224 -164 -376 -386 -376c-221 0 -385 152 -385 376c0 227 164 370 385 370c222 0 386 -143 386 -370zM628 357c0 124 -83 216 -203 216s-202 -92 -202 -216c0 -128 83 -220 202 -220s203 92 203 220zM598 908c-9 -104 -82 -144 -175 -144
c-91 0 -166 39 -173 144h84c7 -43 49 -55 90 -55c45 0 81 8 90 55h84z" />
    <glyph glyph-name="h.sc" horiz-adv-x="656" 
d="M419 0v226h-182v-226h-167v563h167v-209h182v209h167v-563h-167z" />
    <glyph glyph-name="m.sc" horiz-adv-x="809" 
d="M342 0l-112 346h-3l3 -346h-160v563h225l111 -328h4l106 328h223v-563h-165l3 346h-3l-115 -346h-117z" />
    <glyph glyph-name="kcommaaccent" unicode="&#x137;" horiz-adv-x="595" 
d="M399 273l200 -273h-203l-163 239h-3v-239h-165v756h165v-460h3l159 202h199zM385 -45l-86 -195h-126l67 195h145z" />
    <glyph glyph-name="tilde.sc" 
d="M275 563l-86 -195h-126l67 195h145z" />
    <glyph glyph-name="hcircumflex" unicode="&#x125;" horiz-adv-x="617" 
d="M557 0h-165v270c0 56 -14 105 -73 105c-57 0 -89 -47 -89 -106v-269h-164v756h164v-321h2c22 40 74 77 143 77c135 0 182 -104 182 -204v-308zM512 796h-130l-68 81l-68 -81h-128l124 144h148z" />
    <glyph glyph-name="ubreve" unicode="&#x16d;" horiz-adv-x="614" 
d="M550 0h-158v69h-2c-23 -44 -80 -83 -150 -83c-134 0 -181 104 -181 204v308h165v-270c0 -56 14 -106 74 -106c57 0 88 50 88 107v269h164v-498zM479 716c-9 -104 -82 -144 -175 -144c-91 0 -166 39 -173 144h84c4 -21 16 -35 32 -44c17 -8 38 -11 58 -11c45 0 81 8 90 55
h84z" />
    <glyph glyph-name="Rcaron" unicode="&#x158;" horiz-adv-x="663" 
d="M652 0h-200l-153 281h-58v-281h-168v708h270c136 0 271 -52 271 -214c0 -95 -56 -163 -147 -191zM445 491c0 66 -63 79 -114 79h-91v-165h81c55 0 124 14 124 86zM517 908l-123 -144h-147l-124 144h130l68 -81l68 81h128z" />
    <glyph glyph-name="Thorn" unicode="&#xde;" horiz-adv-x="640" 
d="M610 369c0 -164 -133 -223 -281 -223h-85v-146h-171v708h171v-121h89c155 0 277 -56 277 -218zM439 368c0 69 -59 82 -120 82h-75v-168h72c64 0 123 19 123 86z" />
    <glyph glyph-name="grave.cap" 
d="M235 764h-124l-146 144h166z" />
    <glyph glyph-name="Scedilla" unicode="&#x15e;" horiz-adv-x="591" 
d="M417 -142c0 -77 -84 -98 -147 -98c-41 0 -88 10 -119 25l27 60c25 -12 57 -19 84 -19c21 0 50 6 50 33c0 24 -27 29 -47 29c-12 0 -28 -2 -40 -6l-31 29l54 72c-90 7 -178 42 -233 101l112 114c34 -43 97 -75 153 -75c52 0 98 20 98 77c0 54 -54 71 -147 101
c-90 29 -181 75 -181 203c0 157 142 222 274 222c80 0 170 -30 232 -87l-109 -115c-29 37 -82 61 -126 61s-99 -15 -99 -71c0 -47 42 -62 109 -83c96 -31 220 -72 220 -213c0 -143 -101 -217 -220 -232l-35 -46c7 1 12 1 18 1c48 0 103 -15 103 -83z" />
    <glyph glyph-name="Gbreve" unicode="&#x11e;" horiz-adv-x="769" 
d="M702 43c-69 -36 -164 -61 -273 -61c-226 0 -389 150 -389 373c0 227 168 372 384 372c111 0 214 -37 273 -94l-108 -123c-33 38 -90 66 -159 66c-120 0 -208 -94 -208 -221c0 -130 77 -223 216 -223c40 0 77 6 107 19v129h-135v138h292v-375zM610 908
c-9 -104 -82 -144 -175 -144c-91 0 -166 39 -173 144h84c7 -43 49 -55 90 -55c45 0 81 8 90 55h84z" />
    <glyph glyph-name="acircumflex" unicode="&#xe2;" horiz-adv-x="566" 
d="M358 200v17h-21c-72 0 -153 -9 -153 -68c0 -38 38 -51 71 -51c66 0 103 40 103 102zM140 341l-83 89c58 55 141 84 222 84c167 0 229 -82 229 -263v-251h-150v53h-3c-25 -41 -82 -65 -141 -65c-79 0 -181 39 -181 156c0 144 175 168 320 168v8c0 49 -39 72 -90 72
c-47 0 -93 -23 -123 -51zM482 572h-130l-68 81l-68 -81h-128l124 144h148z" />
    <glyph glyph-name="Agrave" unicode="&#xc0;" horiz-adv-x="729" 
d="M743 0h-190l-55 139h-274l-52 -139h-186l297 708h166zM451 276l-88 243l-90 -243h178zM439 764h-124l-146 144h166z" />
    <glyph glyph-name="Aacute" unicode="&#xc1;" horiz-adv-x="729" 
d="M743 0h-190l-55 139h-274l-52 -139h-186l297 708h166zM451 276l-88 243l-90 -243h178zM564 908l-146 -144h-124l104 144h166z" />
    <glyph glyph-name="seven.onum" horiz-adv-x="576" 
d="M535 436c-104 -210 -219 -463 -281 -616l-173 37c70 155 200 424 273 565h-312v144h493v-130z" />
    <glyph glyph-name="tbar.sc" horiz-adv-x="483" 
d="M55 264v86h103v75h-153v138h473v-138h-153v-75h103v-86h-103v-264h-167v264h-103z" />
    <glyph glyph-name="acute.cap" 
d="M335 908l-146 -144h-124l104 144h166z" />
    <glyph glyph-name="Emacron" unicode="&#x112;" horiz-adv-x="607" 
d="M567 0h-494v708h476v-145h-311v-133h294v-137h-294v-147h329v-146zM478 793h-336v86h336v-86z" />
    <glyph glyph-name="wcircumflex.sc" horiz-adv-x="878" 
d="M874 563l-173 -563h-165l-98 350h-2l-96 -350h-164l-172 563h177l85 -356h3l89 356h166l91 -356h2l87 356h170zM636 622h-130l-68 81l-68 -81h-128l124 144h148z" />
    <glyph glyph-name="ebreve.sc" horiz-adv-x="535" 
d="M70 0v563h399v-127h-236v-90h223v-122h-223v-96h250v-128h-413zM445 766c-9 -104 -82 -144 -175 -144c-91 0 -166 39 -173 144h84c7 -43 49 -55 90 -55c45 0 81 8 90 55h84z" />
    <glyph glyph-name="ncommaaccent.sc" horiz-adv-x="672" 
d="M70 0v563h184l190 -323h2l-5 323h161v-563h-182l-191 319h-3l4 -319h-160zM409 -45l-86 -195h-126l67 195h145z" />
    <glyph glyph-name="logicalnot" unicode="&#xac;" horiz-adv-x="666" 
d="M606 145h-130v183h-425v123h555v-306z" />
    <glyph glyph-name="Ccedilla" unicode="&#xc7;" horiz-adv-x="696" 
d="M531 -142c0 -77 -84 -98 -147 -98c-41 0 -88 10 -119 25l27 60c25 -12 57 -19 84 -19c21 0 50 6 50 33c0 24 -27 29 -47 29c-12 0 -28 -2 -40 -6l-31 29l55 74c-188 24 -323 168 -323 370c0 227 168 372 384 372c99 0 206 -36 265 -104l-116 -116c-32 44 -89 65 -143 65
c-119 0 -204 -92 -204 -217c0 -129 83 -217 201 -217c67 0 120 30 150 72l119 -112c-58 -68 -145 -111 -254 -116l-32 -42c7 1 12 1 18 1c48 0 103 -15 103 -83z" />
    <glyph glyph-name="three.onum" horiz-adv-x="576" 
d="M526 83c0 -182 -159 -253 -320 -253c-40 0 -94 4 -138 13l24 143c33 -7 74 -11 102 -11c90 0 161 33 161 108c0 59 -60 92 -143 92c-31 0 -71 -5 -110 -14l-29 116c64 39 171 108 231 149v4h-240v136h433v-142c-56 -42 -149 -106 -205 -140v-3c8 1 16 2 27 2
c113 0 207 -76 207 -200z" />
    <glyph glyph-name="Rcommaaccent" unicode="&#x156;" horiz-adv-x="663" 
d="M652 0h-200l-153 281h-58v-281h-168v708h270c136 0 271 -52 271 -214c0 -95 -56 -163 -147 -191zM445 491c0 66 -63 79 -114 79h-91v-165h81c55 0 124 14 124 86zM413 -45l-86 -195h-126l67 195h145z" />
    <glyph glyph-name="Gcircumflex" unicode="&#x11c;" horiz-adv-x="769" 
d="M702 43c-69 -36 -164 -61 -273 -61c-226 0 -389 150 -389 373c0 227 168 372 384 372c111 0 214 -37 273 -94l-108 -123c-33 38 -90 66 -159 66c-120 0 -208 -94 -208 -221c0 -130 77 -223 216 -223c40 0 77 6 107 19v129h-135v138h292v-375zM629 764h-130l-68 81
l-68 -81h-128l124 144h148z" />
    <glyph glyph-name="Uhungarumlaut" unicode="&#x170;" horiz-adv-x="738" 
d="M673 267c0 -170 -120 -286 -305 -286c-186 0 -302 116 -302 286v441h170v-427c0 -76 37 -146 133 -146c97 0 133 70 133 146v427h171v-441zM686 908l-146 -144h-124l104 144h166zM466 908l-146 -144h-124l104 144h166z" />
    <glyph glyph-name="partialdiff" unicode="&#x2202;" horiz-adv-x="666" 
d="M427 428c-1 71 -39 154 -129 154c-44 0 -89 -10 -137 -66l-77 112c62 62 134 93 215 93c223 0 290 -194 290 -362c0 -158 -44 -372 -273 -372c-145 0 -247 100 -247 242c0 132 89 228 240 228c44 0 83 -10 118 -29zM420 292c-30 23 -61 36 -92 36c-61 0 -93 -44 -93 -106
c0 -60 34 -102 84 -102c73 0 101 82 101 159v13z" />
    <glyph glyph-name="Delta" unicode="&#x2206;" horiz-adv-x="710" 
d="M701 0h-692l268 708h140zM482 145l-138 358l-130 -358h268z" />
    <glyph glyph-name="agrave" unicode="&#xe0;" horiz-adv-x="566" 
d="M358 200v17h-21c-72 0 -153 -9 -153 -68c0 -38 38 -51 71 -51c66 0 103 40 103 102zM140 341l-83 89c58 55 141 84 222 84c167 0 229 -82 229 -263v-251h-150v53h-3c-25 -41 -82 -65 -141 -65c-79 0 -181 39 -181 156c0 144 175 168 320 168v8c0 49 -39 72 -90 72
c-47 0 -93 -23 -123 -51zM382 572h-124l-146 144h166z" />
    <glyph glyph-name="one.onum" horiz-adv-x="477" 
d="M368 0h-169v391l-98 -72l-81 114l188 133h160v-566z" />
    <glyph glyph-name="ntilde.sc" horiz-adv-x="672" 
d="M70 0v563h184l190 -323h2l-5 323h161v-563h-182l-191 319h-3l4 -319h-160zM518 758c-8 -70 -40 -132 -113 -132c-28 0 -55 8 -81 21c-27 13 -45 20 -63 20c-24 0 -36 -19 -42 -40h-72c9 69 40 130 113 130c28 0 54 -8 80 -20c28 -13 47 -20 65 -20c25 0 36 17 42 41h71z
" />
    <glyph glyph-name="w.sc" horiz-adv-x="878" 
d="M874 563l-173 -563h-165l-98 350h-2l-96 -350h-164l-172 563h177l85 -356h3l89 356h166l91 -356h2l87 356h170z" />
    <glyph glyph-name="acute.sc" 
d="M339 766l-146 -144h-124l104 144h166z" />
    <glyph glyph-name="Tcaron" unicode="&#x164;" horiz-adv-x="581" 
d="M576 562h-200v-562h-171v562h-200v146h571v-146zM488 908l-123 -144h-147l-124 144h130l68 -81l68 81h128z" />
    <glyph glyph-name="scaron" unicode="&#x161;" horiz-adv-x="472" 
d="M447 444l-90 -93c-26 25 -64 45 -104 45c-31 0 -62 -11 -62 -40c0 -28 27 -36 91 -50c76 -17 159 -55 159 -152c0 -126 -111 -170 -213 -170c-81 0 -165 27 -217 77l92 97c29 -32 74 -56 122 -56c27 0 59 11 59 43c0 31 -31 41 -99 57c-69 16 -145 51 -145 145
c0 119 112 167 207 167c74 0 151 -24 200 -70zM444 716l-123 -144h-147l-124 144h130l68 -81l68 81h128z" />
    <glyph glyph-name="CR" unicode="&#xd;" horiz-adv-x="500" 
 />
    <glyph glyph-name="Lcaron" unicode="&#x13d;" horiz-adv-x="526" 
d="M519 0h-446v708h172v-559h274v-149zM486 708l-86 -195h-126l67 195h145z" />
    <glyph glyph-name="scedilla" unicode="&#x15f;" horiz-adv-x="472" 
d="M363 -142c0 -77 -84 -98 -147 -98c-41 0 -88 10 -119 25l27 60c25 -12 57 -19 84 -19c21 0 50 6 50 33c0 24 -27 29 -47 29c-12 0 -28 -2 -40 -6l-31 29l56 75c-71 6 -140 31 -185 75l92 97c29 -32 74 -56 122 -56c27 0 59 11 59 43c0 31 -31 41 -99 57
c-69 16 -145 51 -145 145c0 119 112 168 207 168c74 0 151 -25 200 -71l-90 -93c-26 25 -64 45 -104 45c-31 0 -62 -11 -62 -40c0 -28 27 -36 91 -50c76 -17 159 -55 159 -152c0 -105 -77 -154 -162 -166l-37 -48c7 1 12 1 18 1c48 0 103 -15 103 -83z" />
    <glyph glyph-name="onequarter" unicode="&#xbc;" horiz-adv-x="940" 
d="M882 83h-58v-83h-106v83h-200v93l175 260h131v-259h58v-94zM718 177v134h-1l-88 -134h89zM701 699l-388 -729l-87 39l384 730zM297 272h-117v306l-74 -58l-60 81l145 107h106v-436z" />
    <glyph glyph-name="Imacron" unicode="&#x12a;" horiz-adv-x="318" 
d="M245 0h-172v708h172v-708zM326 793h-336v86h336v-86z" />
    <glyph glyph-name="Sacute" unicode="&#x15a;" horiz-adv-x="591" 
d="M556 639l-109 -115c-29 37 -82 61 -126 61s-99 -15 -99 -71c0 -47 42 -62 109 -83c96 -31 220 -72 220 -213c0 -163 -131 -236 -271 -236c-101 0 -203 37 -265 102l112 114c34 -43 97 -75 153 -75c52 0 98 20 98 77c0 54 -54 71 -147 101c-90 29 -181 75 -181 203
c0 157 142 222 274 222c80 0 170 -30 232 -87zM487 908l-146 -144h-124l104 144h166z" />
    <glyph glyph-name="Zdotaccent" unicode="&#x17b;" horiz-adv-x="635" 
d="M597 0h-558v148l337 415h-329v145h543v-137l-345 -423h352v-148zM418 849c0 -48 -40 -85 -90 -85s-89 39 -89 85s39 86 89 86s90 -38 90 -86z" />
    <glyph glyph-name="four.sc" horiz-adv-x="576" 
d="M457 104v-104h-153v104h-268v129l218 330h203v-339h73v-120h-73zM302 409l-116 -185h118v185h-2z" />
    <glyph glyph-name="Abreve" unicode="&#x102;" horiz-adv-x="729" 
d="M743 0h-190l-55 139h-274l-52 -139h-186l297 708h166zM451 276l-88 243l-90 -243h178zM537 908c-9 -104 -82 -144 -175 -144c-91 0 -166 39 -173 144h84c7 -43 49 -55 90 -55c45 0 81 8 90 55h84z" />
    <glyph glyph-name="Euro.sc" horiz-adv-x="576" 
d="M487 139l38 -124c-40 -19 -96 -31 -150 -31c-130 0 -225 61 -253 185h-80l29 90h40v23c0 8 1 14 1 19h-70l32 90h50c37 123 141 188 277 188c55 0 103 -10 136 -23l-50 -127c-25 12 -63 20 -96 20c-46 0 -86 -18 -106 -58h189l-29 -90h-180c-1 -5 -2 -10 -2 -20
c0 -7 0 -11 1 -22h170l-30 -90h-122c16 -39 63 -54 102 -54c36 0 67 7 103 24z" />
    <glyph glyph-name="dotaccent.cap" 
d="M240 849c0 -48 -40 -85 -90 -85s-89 39 -89 85s39 86 89 86s90 -38 90 -86z" />
    <glyph glyph-name="infinity" unicode="&#x221e;" horiz-adv-x="837" 
d="M792 266c0 -105 -67 -191 -183 -191c-82 0 -141 49 -190 103c-51 -54 -103 -102 -188 -102c-114 0 -186 82 -186 189c0 104 68 187 182 187c87 0 143 -52 192 -109c48 57 105 110 191 110c114 0 182 -83 182 -187zM674 263c0 41 -25 71 -67 71c-43 0 -85 -41 -114 -72
c31 -34 71 -68 117 -68c40 0 64 30 64 69zM344 262c-31 31 -76 71 -117 71c-38 0 -64 -32 -64 -70c0 -41 26 -68 67 -68c42 0 84 35 114 67z" />
    <glyph glyph-name="aogonek.sc" horiz-adv-x="641" 
d="M582 -200c-31 -23 -73 -40 -115 -40c-54 0 -113 26 -113 91c0 59 60 115 108 149l-38 102h-210l-39 -102h-177l237 563h174l234 -563h-90c-52 -41 -95 -86 -95 -122c0 -21 16 -36 37 -36c19 0 38 8 55 20zM382 222l-63 172l-64 -172h127z" />
    <glyph glyph-name="uni0394" unicode="&#x394;" horiz-adv-x="710" 
d="M701 0h-692l268 708h140zM482 145l-138 358l-130 -358h268z" />
    <glyph glyph-name="Ohungarumlaut" unicode="&#x150;" horiz-adv-x="851" 
d="M811 357c0 -224 -164 -376 -386 -376c-221 0 -385 152 -385 376c0 227 164 370 385 370c222 0 386 -143 386 -370zM628 357c0 124 -83 216 -203 216s-202 -92 -202 -216c0 -128 83 -220 202 -220s203 92 203 220zM735 908l-146 -144h-124l104 144h166zM515 908l-146 -144
h-124l104 144h166z" />
    <glyph glyph-name="adieresis" unicode="&#xe4;" horiz-adv-x="566" 
d="M358 200v17h-21c-72 0 -153 -9 -153 -68c0 -38 38 -51 71 -51c66 0 103 40 103 102zM140 341l-83 89c58 55 141 84 222 84c167 0 229 -82 229 -263v-251h-150v53h-3c-25 -41 -82 -65 -141 -65c-79 0 -181 39 -181 156c0 144 175 168 320 168v8c0 49 -39 72 -90 72
c-47 0 -93 -23 -123 -51zM477 658c0 -46 -38 -82 -83 -82c-47 0 -83 37 -83 82c0 43 36 81 83 81c45 0 83 -36 83 -81zM260 658c0 -46 -38 -82 -84 -82s-83 37 -83 82c0 43 37 81 83 81s84 -36 84 -81z" />
    <glyph glyph-name="Omega" unicode="&#x2126;" horiz-adv-x="771" 
d="M720 0h-291v219c43 10 76 34 98 67s33 74 33 119c0 107 -83 175 -173 175c-92 0 -175 -67 -175 -176c0 -92 54 -162 130 -185v-219h-291v144h167v11c-52 16 -94 49 -122 92c-29 44 -45 98 -45 158c0 189 151 316 334 316c184 0 335 -124 335 -314
c0 -121 -58 -220 -167 -252v-11h167v-144z" />
    <glyph glyph-name="Ebreve" unicode="&#x114;" horiz-adv-x="607" 
d="M567 0h-494v708h476v-145h-311v-133h294v-137h-294v-147h329v-146zM484 908c-9 -104 -82 -144 -175 -144c-91 0 -166 39 -173 144h84c7 -43 49 -55 90 -55c45 0 81 8 90 55h84z" />
    <glyph glyph-name="five.onum" horiz-adv-x="573" 
d="M506 566v-144h-256l-16 -118c15 3 31 4 46 4c132 0 231 -75 231 -219c0 -192 -158 -259 -312 -259c-39 0 -88 3 -139 12l23 143c32 -6 70 -10 98 -10c95 0 159 33 159 113c0 72 -65 100 -137 100c-39 0 -88 -7 -133 -17l35 395h401z" />
    <glyph glyph-name="Ecircumflex" unicode="&#xca;" horiz-adv-x="607" 
d="M567 0h-494v708h476v-145h-311v-133h294v-137h-294v-147h329v-146zM512 764h-130l-68 81l-68 -81h-128l124 144h148z" />
    <glyph glyph-name="Idotaccent" unicode="&#x130;" horiz-adv-x="318" 
d="M245 0h-172v708h172v-708zM249 849c0 -48 -40 -85 -90 -85s-89 39 -89 85s39 86 89 86s90 -38 90 -86z" />
    <glyph glyph-name="florin.sc" horiz-adv-x="576" 
d="M477 349v-111h-111l-29 -141c-24 -117 -80 -183 -197 -183c-36 0 -85 11 -117 29l48 120c18 -12 39 -19 57 -19c32 0 50 22 61 76l23 118h-72v111h92l16 78c21 102 88 152 182 152c45 0 90 -11 124 -32l-59 -120c-17 12 -37 18 -54 18c-21 0 -39 -11 -45 -43l-11 -53h92z
" />
    <glyph glyph-name="atilde.sc" horiz-adv-x="641" 
d="M-2 0l237 563h174l234 -563h-181l-38 102h-210l-39 -102h-177zM382 222l-63 172l-64 -172h127zM506 758c-8 -70 -40 -132 -113 -132c-28 0 -55 8 -81 21c-27 13 -45 20 -63 20c-24 0 -36 -19 -42 -40h-72c9 69 40 130 113 130c28 0 54 -8 80 -20c28 -13 47 -20 65 -20
c25 0 36 17 42 41h71z" />
    <glyph glyph-name="dollar.sc" horiz-adv-x="576" 
d="M331 616v-52c69 -4 124 -24 174 -60l-84 -107c-27 25 -56 39 -88 44v-94c111 -27 182 -75 182 -171c0 -112 -78 -172 -191 -177v-57h-70v56c-66 1 -149 22 -194 65l95 109c28 -30 69 -45 99 -48v103c-111 29 -176 64 -176 168c0 100 93 163 183 169v52h70zM263 362v80
c-26 -4 -40 -20 -40 -36c0 -23 13 -35 40 -44zM324 213v-89c30 4 43 21 43 42c0 22 -15 37 -43 47z" />
    <glyph glyph-name="divide" unicode="&#xf7;" horiz-adv-x="666" 
d="M246 489c0 46 40 84 87 84s86 -38 86 -84c0 -47 -39 -85 -86 -85s-87 38 -87 85zM246 117c0 46 40 84 87 84s86 -38 86 -84s-39 -85 -86 -85s-87 39 -87 85zM586 240h-507v127h507v-127z" />
    <glyph glyph-name="Idieresis" unicode="&#xcf;" horiz-adv-x="318" 
d="M245 0h-172v708h172v-708zM351 850c0 -46 -38 -82 -83 -82c-47 0 -83 37 -83 82c0 43 36 81 83 81c45 0 83 -36 83 -81zM134 850c0 -46 -38 -82 -84 -82s-83 37 -83 82c0 43 37 81 83 81s84 -36 84 -81z" />
    <glyph glyph-name="Gcommaaccent" unicode="&#x122;" horiz-adv-x="769" 
d="M702 43c-69 -36 -164 -61 -273 -61c-226 0 -389 150 -389 373c0 227 168 372 384 372c111 0 214 -37 273 -94l-108 -123c-33 38 -90 66 -159 66c-120 0 -208 -94 -208 -221c0 -130 77 -223 216 -223c40 0 77 6 107 19v129h-135v138h292v-375zM506 -45l-86 -195h-126
l67 195h145z" />
    <glyph glyph-name="Udieresis" unicode="&#xdc;" horiz-adv-x="738" 
d="M673 267c0 -170 -120 -286 -305 -286c-186 0 -302 116 -302 286v441h170v-427c0 -76 37 -146 133 -146c97 0 133 70 133 146v427h171v-441zM562 850c0 -46 -38 -82 -83 -82c-47 0 -83 37 -83 82c0 43 36 81 83 81c45 0 83 -36 83 -81zM345 850c0 -46 -38 -82 -84 -82
s-83 37 -83 82c0 43 37 81 83 81s84 -36 84 -81z" />
    <glyph glyph-name="aogonek" unicode="&#x105;" horiz-adv-x="566" 
d="M480 -196c-31 -23 -73 -40 -115 -40c-54 0 -113 26 -113 91c0 58 58 114 106 147v51h-3c-25 -41 -82 -65 -141 -65c-79 0 -181 39 -181 156c0 144 175 168 320 168v8c0 49 -39 72 -90 72c-47 0 -93 -23 -123 -51l-83 89c58 55 141 84 222 84c167 0 229 -82 229 -263v-251
h-62c-50 -40 -90 -83 -90 -118c0 -21 16 -36 37 -36c19 0 38 8 55 20zM358 200v17h-21c-72 0 -153 -9 -153 -68c0 -38 38 -51 71 -51c66 0 103 40 103 102z" />
    <glyph glyph-name="aring" unicode="&#xe5;" horiz-adv-x="566" 
d="M358 200v17h-21c-72 0 -153 -9 -153 -68c0 -38 38 -51 71 -51c66 0 103 40 103 102zM140 341l-83 89c58 55 141 84 222 84c167 0 229 -82 229 -263v-251h-150v53h-3c-25 -41 -82 -65 -141 -65c-79 0 -181 39 -181 156c0 144 175 168 320 168v8c0 49 -39 72 -90 72
c-47 0 -93 -23 -123 -51zM396 664c0 -62 -49 -107 -109 -107s-109 45 -109 106c0 62 48 108 109 108c60 0 109 -46 109 -107zM346 664c0 33 -26 58 -59 58c-34 0 -59 -26 -59 -59c0 -32 26 -57 59 -57s59 25 59 58z" />
    <glyph glyph-name="ccedilla.sc" horiz-adv-x="578" 
d="M463 -142c0 -77 -84 -98 -147 -98c-41 0 -88 10 -119 25l27 60c25 -12 57 -19 84 -19c21 0 50 6 50 33c0 24 -27 29 -47 29c-12 0 -28 -2 -40 -6l-31 29l58 77c-149 20 -259 127 -259 294c0 181 138 297 312 297c80 0 164 -31 211 -78l-102 -118c-24 32 -68 49 -108 49
c-81 0 -136 -69 -136 -150s54 -149 139 -149c40 0 83 14 109 47l98 -121c-44 -43 -111 -69 -185 -74l-35 -45c7 1 12 1 18 1c48 0 103 -15 103 -83z" />
    <glyph glyph-name="Edotaccent" unicode="&#x116;" horiz-adv-x="607" 
d="M567 0h-494v708h476v-145h-311v-133h294v-137h-294v-147h329v-146zM400 849c0 -48 -40 -85 -90 -85s-89 39 -89 85s39 86 89 86s90 -38 90 -86z" />
    <glyph glyph-name="gbreve.sc" horiz-adv-x="645" 
d="M358 -16c-185 0 -319 112 -319 299c0 180 140 296 319 296c97 0 173 -27 228 -74l-108 -123c-30 34 -71 53 -117 53c-84 0 -145 -60 -145 -153c0 -95 58 -154 147 -154c25 0 51 3 71 11v76h-100v118h256v-295c-60 -31 -143 -54 -232 -54zM536 766
c-9 -104 -82 -144 -175 -144c-91 0 -166 39 -173 144h84c7 -43 49 -55 90 -55c45 0 81 8 90 55h84z" />
    <glyph glyph-name="Scircumflex" unicode="&#x15c;" horiz-adv-x="591" 
d="M556 639l-109 -115c-29 37 -82 61 -126 61s-99 -15 -99 -71c0 -47 42 -62 109 -83c96 -31 220 -72 220 -213c0 -163 -131 -236 -271 -236c-101 0 -203 37 -265 102l112 114c34 -43 97 -75 153 -75c52 0 98 20 98 77c0 54 -54 71 -147 101c-90 29 -181 75 -181 203
c0 157 142 222 274 222c80 0 170 -30 232 -87zM518 764h-130l-68 81l-68 -81h-128l124 144h148z" />
    <glyph glyph-name="Ycircumflex" unicode="&#x176;" horiz-adv-x="669" 
d="M689 708l-272 -408v-300h-171v300l-266 408h207l151 -262l151 262h200zM535 764h-130l-68 81l-68 -81h-128l124 144h148z" />
    <glyph glyph-name="uni021A" unicode="&#x21a;" horiz-adv-x="581" 
d="M576 562h-200v-562h-171v562h-200v146h571v-146zM365 -45l-86 -195h-126l67 195h145z" />
    <glyph glyph-name="Ncaron" unicode="&#x147;" horiz-adv-x="790" 
d="M717 0h-194l-285 463h-3l4 -463h-166v708h195l284 -462h3l-4 462h166v-708zM595 908l-123 -144h-147l-124 144h130l68 -81l68 81h128z" />
    <glyph glyph-name="Ntilde" unicode="&#xd1;" horiz-adv-x="790" 
d="M717 0h-194l-285 463h-3l4 -463h-166v708h195l284 -462h3l-4 462h166v-708zM584 900c-8 -70 -40 -132 -113 -132c-28 0 -55 9 -81 21c-27 14 -45 20 -63 20c-24 0 -36 -19 -42 -40h-72c9 69 40 130 113 130c28 0 54 -8 80 -20c28 -13 47 -20 65 -20c25 0 36 17 42 41h71z
" />
    <glyph glyph-name="Ccaron" unicode="&#x10c;" horiz-adv-x="696" 
d="M696 98c-62 -72 -156 -117 -275 -117c-218 0 -381 152 -381 374c0 227 168 372 384 372c99 0 206 -36 265 -104l-116 -116c-32 44 -89 65 -143 65c-119 0 -204 -92 -204 -217c0 -129 83 -217 201 -217c67 0 120 30 150 72zM624 908l-123 -144h-147l-124 144h130l68 -81
l68 81h128z" />
    <glyph glyph-name="lcaron.sc" horiz-adv-x="471" 
d="M70 0v563h167v-423h208v-140h-375zM484 563l-86 -195h-126l67 195h145z" />
    <glyph glyph-name="racute.sc" horiz-adv-x="568" 
d="M70 0v563h235c125 0 225 -45 225 -174c0 -78 -40 -134 -102 -159l137 -230h-184l-108 200h-38v-200h-165zM235 436v-116h55c37 0 74 13 74 63c0 42 -33 53 -73 53h-56zM460 766l-146 -144h-124l104 144h166z" />
    <glyph glyph-name="dcroat.sc" horiz-adv-x="655" 
d="M293 0h-223v235h-62v105h62v223h218c170 0 328 -67 328 -280c0 -197 -157 -283 -323 -283zM236 432v-92h99v-105h-99v-103h42c89 0 162 37 162 152c0 111 -70 148 -159 148h-45z" />
    <glyph glyph-name="four.onum" horiz-adv-x="645" 
d="M621 3h-99v-173h-159v173h-328v142l251 438h173l-262 -444h167v207h158v-207h99v-136z" />
    <glyph glyph-name="tilde.cap" 
d="M335 900c-8 -70 -40 -132 -113 -132c-28 0 -55 9 -81 21c-27 14 -45 20 -63 20c-24 0 -36 -19 -42 -40h-72c9 69 40 130 113 130c28 0 54 -8 80 -20c28 -13 47 -20 65 -20c25 0 36 17 42 41h71z" />
    <glyph glyph-name="utilde.sc" horiz-adv-x="646" 
d="M321 -16c-159 0 -255 93 -255 234v345h167v-334c0 -60 32 -99 89 -99c58 0 91 39 91 99v334h167v-345c0 -141 -98 -234 -259 -234zM509 758c-8 -70 -40 -132 -113 -132c-28 0 -55 8 -81 21c-27 13 -45 20 -63 20c-24 0 -36 -19 -42 -40h-72c9 69 40 130 113 130
c28 0 54 -8 80 -20c28 -13 47 -20 65 -20c25 0 36 17 42 41h71z" />
    <glyph glyph-name="acircumflex.sc" horiz-adv-x="641" 
d="M-2 0l237 563h174l234 -563h-181l-38 102h-210l-39 -102h-177zM382 222l-63 172l-64 -172h127zM517 622h-130l-68 81l-68 -81h-128l124 144h148z" />
    <glyph glyph-name="Gdotaccent" unicode="&#x120;" horiz-adv-x="769" 
d="M702 43c-69 -36 -164 -61 -273 -61c-226 0 -389 150 -389 373c0 227 168 372 384 372c111 0 214 -37 273 -94l-108 -123c-33 38 -90 66 -159 66c-120 0 -208 -94 -208 -221c0 -130 77 -223 216 -223c40 0 77 6 107 19v129h-135v138h292v-375zM521 849
c0 -48 -40 -85 -90 -85s-89 39 -89 85s39 86 89 86s90 -38 90 -86z" />
    <glyph glyph-name="Ldot" unicode="&#x13f;" horiz-adv-x="526" 
d="M519 0h-446v708h172v-559h274v-149zM478 437c0 -48 -40 -85 -90 -85s-89 39 -89 85s39 86 89 86s90 -38 90 -86z" />
    <glyph glyph-name="Hbar" unicode="&#x126;" horiz-adv-x="764" 
d="M691 0h-171v296h-276v-296h-171v708h171v-119h276v119h171v-708zM244 440h276v60h-276v-60z" />
    <glyph glyph-name="edotaccent" unicode="&#x117;" horiz-adv-x="596" 
d="M196 306h211c0 52 -33 95 -98 95c-63 0 -109 -44 -113 -95zM558 243c0 -13 0 -27 -1 -39h-361c5 -55 60 -94 119 -94c52 0 88 22 110 52l114 -72c-47 -68 -125 -106 -226 -106c-150 0 -274 95 -274 263c0 163 118 267 269 267c147 0 250 -101 250 -271zM401 657
c0 -48 -40 -85 -90 -85s-89 39 -89 85s39 86 89 86s90 -38 90 -86z" />
    <glyph glyph-name="fi.sc" horiz-adv-x="810" 
d="M236 436v-104h207v-122h-206v-210h-167v563h392v-127h-226zM573 0v563h167v-563h-167z" />
    <glyph glyph-name="ldot.sc" horiz-adv-x="471" 
d="M70 0v563h167v-423h208v-140h-375zM470 347c0 -48 -40 -85 -90 -85s-89 39 -89 85s39 86 89 86s90 -38 90 -86z" />
    <glyph glyph-name="Cacute" unicode="&#x106;" horiz-adv-x="696" 
d="M696 98c-62 -72 -156 -117 -275 -117c-218 0 -381 152 -381 374c0 227 168 372 384 372c99 0 206 -36 265 -104l-116 -116c-32 44 -89 65 -143 65c-119 0 -204 -92 -204 -217c0 -129 83 -217 201 -217c67 0 120 30 150 72zM599 908l-146 -144h-124l104 144h166z" />
    <glyph glyph-name="zero.sc" horiz-adv-x="576" 
d="M288 -16c-163 0 -243 138 -243 299s80 296 243 296s243 -135 243 -296s-80 -299 -243 -299zM288 433c-48 0 -74 -63 -74 -150c0 -88 25 -150 74 -150s74 62 74 150c0 87 -25 150 -74 150z" />
    <glyph glyph-name="uni2219" unicode="&#x2219;" 
d="M251 291c0 -55 -46 -98 -100 -98c-55 0 -102 42 -102 97c0 54 46 99 102 99c54 0 100 -43 100 -98z" />
    <glyph glyph-name="b.sc" horiz-adv-x="571" 
d="M70 563h242c106 0 202 -32 202 -149c0 -56 -29 -97 -78 -116v-3c66 -14 101 -59 101 -130c0 -125 -110 -165 -228 -165h-239v563zM233 235v-114h65c39 0 70 18 70 60c0 33 -23 54 -68 54h-67zM233 440v-100h58c33 0 60 18 60 53c0 27 -17 47 -62 47h-56z" />
    <glyph glyph-name="Igrave" unicode="&#xcc;" horiz-adv-x="318" 
d="M245 0h-172v708h172v-708zM245 764h-124l-146 144h166z" />
    <glyph glyph-name="sacute" unicode="&#x15b;" horiz-adv-x="472" 
d="M447 444l-90 -93c-26 25 -64 45 -104 45c-31 0 -62 -11 -62 -40c0 -28 27 -36 91 -50c76 -17 159 -55 159 -152c0 -126 -111 -170 -213 -170c-81 0 -165 27 -217 77l92 97c29 -32 74 -56 122 -56c27 0 59 11 59 43c0 31 -31 41 -99 57c-69 16 -145 51 -145 145
c0 119 112 167 207 167c74 0 151 -24 200 -70zM424 716l-146 -144h-124l104 144h166z" />
    <glyph glyph-name="caron.cap" 
d="M347 908l-123 -144h-147l-124 144h130l68 -81l68 81h128z" />
    <glyph glyph-name="ebreve" unicode="&#x115;" horiz-adv-x="596" 
d="M196 306h211c0 52 -33 95 -98 95c-63 0 -109 -44 -113 -95zM558 243c0 -13 0 -27 -1 -39h-361c5 -55 60 -94 119 -94c52 0 88 22 110 52l114 -72c-47 -68 -125 -106 -226 -106c-150 0 -274 95 -274 263c0 163 118 267 269 267c147 0 250 -101 250 -271zM486 716
c-9 -104 -82 -144 -175 -144c-91 0 -166 39 -173 144h84c4 -21 16 -35 32 -44c17 -8 38 -11 58 -11c45 0 81 8 90 55h84z" />
    <glyph glyph-name="Adieresis" unicode="&#xc4;" horiz-adv-x="729" 
d="M743 0h-190l-55 139h-274l-52 -139h-186l297 708h166zM451 276l-88 243l-90 -243h178zM558 850c0 -46 -38 -82 -83 -82c-47 0 -83 37 -83 82c0 43 36 81 83 81c45 0 83 -36 83 -81zM341 850c0 -46 -38 -82 -84 -82s-83 37 -83 82c0 43 37 81 83 81s84 -36 84 -81z" />
    <glyph glyph-name="Lacute" unicode="&#x139;" horiz-adv-x="526" 
d="M519 0h-446v708h172v-559h274v-149zM365 908l-146 -144h-124l104 144h166z" />
    <glyph glyph-name="two.sc" horiz-adv-x="576" 
d="M75 121l215 189c35 31 46 55 46 81c0 25 -19 48 -50 48c-29 0 -56 -20 -62 -69l-158 22c13 119 117 187 229 187c107 0 215 -54 215 -173c0 -72 -30 -123 -102 -183l-105 -88h209v-135h-437v121z" />
    <glyph glyph-name="Hcircumflex" unicode="&#x124;" horiz-adv-x="764" 
d="M691 0h-171v296h-276v-296h-171v708h171v-268h276v268h171v-708zM582 764h-130l-68 81l-68 -81h-128l124 144h148z" />
    <glyph glyph-name="dotaccent.sc" 
d="M240 707c0 -48 -40 -85 -90 -85s-89 39 -89 85s39 86 89 86s90 -38 90 -86z" />
    <glyph glyph-name="eth" unicode="&#xf0;" horiz-adv-x="632" 
d="M593 282c0 -184 -111 -298 -278 -298c-152 0 -276 103 -276 266c0 159 118 260 264 260c30 0 58 -7 82 -25l2 1c-28 41 -61 83 -98 114l-108 -48l-80 70l109 47c-16 16 -47 40 -75 59l127 71c37 -28 68 -56 86 -72l113 50l87 -71l-121 -52c95 -103 166 -224 166 -372z
M435 250c0 63 -42 127 -120 127c-77 0 -118 -64 -118 -127c0 -65 42 -128 119 -128s119 63 119 128z" />
    <glyph glyph-name="cdotaccent" unicode="&#x10b;" horiz-adv-x="503" 
d="M502 447l-95 -110c-18 24 -54 40 -87 40c-69 0 -115 -59 -115 -128s45 -127 117 -127c33 0 69 13 89 37l91 -111c-41 -40 -111 -64 -184 -64c-157 0 -279 100 -279 265c0 162 123 265 278 265c71 0 146 -27 185 -67zM410 657c0 -48 -40 -85 -90 -85s-89 39 -89 85
s39 86 89 86s90 -38 90 -86z" />
    <glyph glyph-name="yen.sc" horiz-adv-x="576" 
d="M203 0v86h-137v100h137v44h-137v100h96l-146 233h182l93 -184l91 184h178l-143 -233h80v-100h-139v-44h139v-100h-139v-86h-155z" />
    <glyph glyph-name="Otilde" unicode="&#xd5;" horiz-adv-x="851" 
d="M811 357c0 -224 -164 -376 -386 -376c-221 0 -385 152 -385 376c0 227 164 370 385 370c222 0 386 -143 386 -370zM628 357c0 124 -83 216 -203 216s-202 -92 -202 -216c0 -128 83 -220 202 -220s203 92 203 220zM612 900c-8 -70 -40 -132 -113 -132c-28 0 -55 9 -81 21
c-27 14 -45 20 -63 20c-24 0 -36 -19 -42 -40h-72c9 69 40 130 113 130c28 0 54 -8 80 -20c28 -13 47 -20 65 -20c25 0 36 17 42 41h71z" />
    <glyph glyph-name="eogonek" unicode="&#x119;" horiz-adv-x="596" 
d="M434 -196c-31 -23 -73 -40 -115 -40c-54 0 -113 26 -113 91c0 49 41 96 82 130c-139 9 -249 103 -249 262c0 163 118 267 269 267c147 0 250 -101 250 -271c0 -13 0 -27 -1 -39h-361c5 -55 60 -94 119 -94c52 0 88 22 110 52l114 -72c-34 -50 -85 -83 -149 -97
c-45 -38 -80 -78 -80 -111c0 -21 16 -36 37 -36c19 0 38 8 55 20zM196 306h211c0 52 -33 95 -98 95c-63 0 -109 -44 -113 -95z" />
    <glyph glyph-name="Icircumflex" unicode="&#xce;" horiz-adv-x="318" 
d="M245 0h-172v708h172v-708zM355 764h-130l-68 81l-68 -81h-128l124 144h148z" />
    <glyph glyph-name="scedilla.sc" horiz-adv-x="507" 
d="M367 -142c0 -77 -84 -98 -147 -98c-41 0 -88 10 -119 25l27 60c25 -12 57 -19 84 -19c21 0 50 6 50 33c0 24 -27 29 -47 29c-12 0 -28 -2 -40 -6l-31 29l56 75c-72 8 -142 37 -187 85l96 108c31 -36 80 -62 130 -62c28 0 61 12 61 48c0 34 -33 46 -104 64
c-73 18 -153 55 -153 161c0 133 118 189 219 189c78 0 159 -28 211 -81l-95 -103c-29 27 -68 50 -111 50c-31 0 -64 -13 -64 -45c0 -31 28 -41 95 -57c81 -19 168 -59 168 -168c0 -124 -90 -177 -184 -188l-36 -47c7 1 12 1 18 1c48 0 103 -15 103 -83z" />
    <glyph glyph-name="cent.sc" horiz-adv-x="576" 
d="M556 51c-39 -39 -100 -60 -160 -65v-65h-76v65c-141 16 -233 122 -233 264c0 143 93 242 233 262v64h76v-64c61 -4 122 -24 159 -63l-83 -104c-20 21 -46 35 -76 39v-270c31 3 59 18 79 39zM320 116v266c-60 -14 -92 -68 -92 -133c0 -63 34 -117 92 -133z" />
    <glyph glyph-name="gcircumflex" unicode="&#x11d;" horiz-adv-x="658" 
d="M592 47c0 -195 -116 -287 -293 -287c-87 0 -189 28 -256 78l82 117c48 -42 109 -63 165 -63c96 0 141 56 141 139v30h-3c-31 -40 -85 -66 -151 -66c-151 0 -238 118 -238 256s87 261 237 261c62 0 124 -25 159 -78h2v64h155v-451zM436 252c0 68 -47 126 -121 126
s-117 -57 -117 -126c0 -66 43 -127 117 -127c75 0 121 59 121 127zM517 572h-130l-68 81l-68 -81h-128l124 144h148z" />
    <glyph glyph-name="uogonek.sc" horiz-adv-x="646" 
d="M441 -200c-31 -23 -73 -40 -115 -40c-54 0 -113 26 -113 91c0 51 44 100 87 134c-147 8 -234 98 -234 233v345h167v-334c0 -60 32 -99 89 -99c58 0 91 39 91 99v334h167v-345c0 -115 -65 -198 -176 -224c-49 -39 -87 -82 -87 -116c0 -21 16 -36 37 -36c19 0 38 8 55 20z
" />
    <glyph glyph-name="emacron.sc" horiz-adv-x="535" 
d="M70 0v563h399v-127h-236v-90h223v-122h-223v-96h250v-128h-413zM437 651h-336v86h336v-86z" />
    <glyph glyph-name="rcaron.sc" horiz-adv-x="568" 
d="M70 0v563h235c125 0 225 -45 225 -174c0 -78 -40 -134 -102 -159l137 -230h-184l-108 200h-38v-200h-165zM235 436v-116h55c37 0 74 13 74 63c0 42 -33 53 -73 53h-56zM487 766l-123 -144h-147l-124 144h130l68 -81l68 81h128z" />
    <glyph glyph-name="registered" unicode="&#xae;" horiz-adv-x="600" 
d="M279 521h26c16 0 28 10 28 23c0 11 -14 18 -28 18h-26v-41zM439 365h-100l-44 94h-16v-94h-88v266h114c57 0 121 -19 121 -86c0 -35 -17 -62 -48 -74zM72 492c0 126 103 227 229 227c125 0 227 -101 227 -227s-102 -225 -227 -225c-126 0 -229 99 -229 225zM108 492
c0 -105 86 -192 193 -192c106 0 191 87 191 192c0 106 -85 192 -191 192c-107 0 -193 -86 -193 -192z" />
    <glyph glyph-name="eth.sc" horiz-adv-x="655" 
d="M293 0h-223v235h-62v105h62v223h218c170 0 328 -67 328 -280c0 -197 -157 -283 -323 -283zM236 432v-92h99v-105h-99v-103h42c89 0 162 37 162 152c0 111 -70 148 -159 148h-45z" />
    <glyph glyph-name="Ecaron" unicode="&#x11a;" horiz-adv-x="607" 
d="M567 0h-494v708h476v-145h-311v-133h294v-137h-294v-147h329v-146zM508 908l-123 -144h-147l-124 144h130l68 -81l68 81h128z" />
    <glyph glyph-name="ampersand.sc" horiz-adv-x="693" 
d="M667 297l-146 -157l141 -140h-198l-38 40c-46 -36 -94 -56 -170 -56c-127 0 -211 65 -211 175c0 75 42 120 112 158c-30 30 -49 64 -49 110c0 86 74 152 190 152c110 0 182 -58 182 -148c0 -61 -37 -110 -106 -145l51 -52l48 63h194zM331 135l-85 90
c-25 -10 -41 -32 -41 -61c0 -35 30 -55 60 -55c28 0 50 10 66 26zM298 461c-21 0 -38 -16 -38 -37c0 -19 9 -34 28 -53c35 15 49 33 49 53c0 21 -17 37 -39 37z" />
    <glyph glyph-name="rcaron" unicode="&#x159;" horiz-adv-x="396" 
d="M394 508l-7 -144c-15 4 -29 5 -42 5c-88 0 -117 -72 -117 -113v-256h-164v498h158v-72h2c25 50 74 86 135 86c13 0 27 -1 35 -4zM425 716l-123 -144h-147l-124 144h130l68 -81l68 81h128z" />
    <glyph glyph-name="eight.onum" horiz-adv-x="649" 
d="M591 199c0 -148 -129 -218 -266 -218c-138 0 -267 70 -267 217c0 85 54 147 126 172v2c-61 22 -108 78 -108 154c0 133 119 201 249 201c128 0 248 -67 248 -200c0 -75 -44 -133 -108 -154v-3c72 -22 126 -87 126 -171zM325 597c-51 0 -86 -37 -86 -83
c0 -45 35 -84 86 -84c49 0 86 39 86 84c0 46 -37 83 -86 83zM424 208c0 54 -39 96 -99 96c-61 0 -100 -42 -100 -96s39 -95 100 -95c60 0 99 41 99 95z" />
    <glyph glyph-name="Jcircumflex" unicode="&#x134;" horiz-adv-x="529" 
d="M460 242c0 -112 -40 -261 -233 -261c-119 0 -204 69 -230 166l151 51c9 -37 35 -62 71 -62c56 0 69 43 69 105v467h172v-466zM570 764h-130l-68 81l-68 -81h-128l124 144h148z" />
    <glyph glyph-name="ncaron.sc" horiz-adv-x="672" 
d="M70 0v563h184l190 -323h2l-5 323h161v-563h-182l-191 319h-3l4 -319h-160zM533 766l-123 -144h-147l-124 144h130l68 -81l68 81h128z" />
    <glyph glyph-name="x.sc" horiz-adv-x="610" 
d="M408 0l-107 173l-105 -173h-196l198 297l-180 266h197l90 -152l90 152h189l-178 -266l204 -297h-202z" />
    <glyph glyph-name="Iacute" unicode="&#xcd;" horiz-adv-x="318" 
d="M245 0h-172v708h172v-708zM343 908l-146 -144h-124l104 144h166z" />
    <glyph glyph-name="Euro" unicode="&#x20ac;" horiz-adv-x="646" 
d="M567 147l37 -127c-38 -22 -102 -39 -176 -39c-175 0 -280 101 -315 235h-92l34 103h45c-1 12 -1 24 -1 35c0 12 1 24 3 36h-78l36 104h57c43 146 170 233 333 233c58 0 125 -12 163 -30l-49 -126c-29 15 -76 23 -119 23c-68 0 -138 -35 -162 -100h265l-35 -104h-258
c-2 -12 -2 -23 -2 -37c0 -9 0 -23 1 -34h241l-34 -103h-186c18 -57 85 -100 165 -100c49 0 93 11 127 31z" />
    <glyph glyph-name="threesuperior" unicode="&#xb3;" horiz-adv-x="420" 
d="M379 404c0 -96 -85 -137 -164 -137s-151 35 -176 122l105 28c9 -29 30 -53 64 -53c27 0 56 12 56 46c0 39 -39 47 -78 47h-33v84h36c36 0 65 11 65 46c0 23 -19 38 -46 38c-24 0 -45 -19 -51 -48l-105 25c22 78 92 118 164 118c79 0 153 -37 153 -121
c0 -45 -23 -78 -57 -95c43 -15 67 -53 67 -100z" />
    <glyph glyph-name="breve.sc" 
d="M324 766c-9 -104 -82 -144 -175 -144c-91 0 -166 39 -173 144h84c7 -43 49 -55 90 -55c45 0 81 8 90 55h84z" />
    <glyph glyph-name="fl.sc" horiz-adv-x="974" 
d="M236 436v-104h207v-122h-206v-210h-167v563h392v-127h-226zM573 0v563h167v-423h208v-140h-375z" />
    <glyph glyph-name="dcaron.sc" horiz-adv-x="655" 
d="M293 0h-223v563h218c170 0 328 -67 328 -280c0 -197 -157 -283 -323 -283zM236 432v-299h42c89 0 162 37 162 152c0 111 -70 147 -159 147h-45zM504 766l-123 -144h-147l-124 144h130l68 -81l68 81h128z" />
    <glyph glyph-name="agrave.sc" horiz-adv-x="641" 
d="M-2 0l237 563h174l234 -563h-181l-38 102h-210l-39 -102h-177zM382 222l-63 172l-64 -172h127zM394 622h-124l-146 144h166z" />
    <glyph glyph-name="rcommaaccent.sc" horiz-adv-x="568" 
d="M70 0v563h235c125 0 225 -45 225 -174c0 -78 -40 -134 -102 -159l137 -230h-184l-108 200h-38v-200h-165zM235 436v-116h55c37 0 74 13 74 63c0 42 -33 53 -73 53h-56zM372 -45l-86 -195h-126l67 195h145z" />
    <glyph glyph-name="ydieresis" unicode="&#xff;" horiz-adv-x="567" 
d="M568 498l-223 -573c-40 -104 -94 -165 -219 -165c-31 0 -66 5 -90 11l18 138c16 -5 37 -9 53 -9c51 0 68 24 84 67l16 41l-208 490h182l111 -320h3l99 320h174zM485 658c0 -46 -38 -82 -83 -82c-47 0 -83 37 -83 82c0 43 36 81 83 81c45 0 83 -36 83 -81zM268 658
c0 -46 -38 -82 -84 -82s-83 37 -83 82c0 43 37 81 83 81s84 -36 84 -81z" />
    <glyph glyph-name="Scommaaccent" unicode="&#x218;" horiz-adv-x="591" 
d="M556 639l-109 -115c-29 37 -82 61 -126 61s-99 -15 -99 -71c0 -47 42 -62 109 -83c96 -31 220 -72 220 -213c0 -163 -131 -236 -271 -236c-101 0 -203 37 -265 102l112 114c34 -43 97 -75 153 -75c52 0 98 20 98 77c0 54 -54 71 -147 101c-90 29 -181 75 -181 203
c0 157 142 222 274 222c80 0 170 -30 232 -87zM364 -45l-86 -195h-126l67 195h145z" />
    <glyph glyph-name="ccaron" unicode="&#x10d;" horiz-adv-x="503" 
d="M502 447l-95 -110c-18 24 -54 40 -87 40c-69 0 -115 -59 -115 -128s45 -127 117 -127c33 0 69 13 89 37l91 -111c-41 -40 -111 -64 -184 -64c-157 0 -279 100 -279 265c0 162 123 265 278 265c71 0 146 -27 185 -67zM514 716l-123 -144h-147l-124 144h130l68 -81l68 81
h128z" />
    <glyph glyph-name="Iogonek" unicode="&#x12e;" horiz-adv-x="318" 
d="M268 -196c-31 -23 -73 -40 -115 -40c-54 0 -113 26 -113 91c0 57 55 111 102 145h-69v708h172v-708h-11c-50 -40 -90 -83 -90 -118c0 -21 16 -36 37 -36c19 0 38 8 55 20z" />
    <glyph glyph-name="u.sc" horiz-adv-x="646" 
d="M321 -16c-159 0 -255 93 -255 234v345h167v-334c0 -60 32 -99 89 -99c58 0 91 39 91 99v334h167v-345c0 -141 -98 -234 -259 -234z" />
    <glyph glyph-name="amacron" unicode="&#x101;" horiz-adv-x="566" 
d="M358 200v17h-21c-72 0 -153 -9 -153 -68c0 -38 38 -51 71 -51c66 0 103 40 103 102zM140 341l-83 89c58 55 141 84 222 84c167 0 229 -82 229 -263v-251h-150v53h-3c-25 -41 -82 -65 -141 -65c-79 0 -181 39 -181 156c0 144 175 168 320 168v8c0 49 -39 72 -90 72
c-47 0 -93 -23 -123 -51zM454 601h-336v86h336v-86z" />
    <glyph glyph-name="uacute.sc" horiz-adv-x="646" 
d="M321 -16c-159 0 -255 93 -255 234v345h167v-334c0 -60 32 -99 89 -99c58 0 91 39 91 99v334h167v-345c0 -141 -98 -234 -259 -234zM514 766l-146 -144h-124l104 144h166z" />
    <glyph glyph-name="dcroat" unicode="&#x111;" horiz-adv-x="658" 
d="M592 0h-151v65h-2c-32 -50 -97 -79 -163 -79c-150 0 -237 126 -237 265s90 261 235 261c73 0 124 -34 152 -67h2v125h-149v89h149v97h164v-97h46v-89h-46v-570zM435 250c0 63 -46 128 -120 128c-78 0 -118 -63 -118 -127c0 -65 40 -129 118 -129c74 0 120 63 120 128z
" />
    <glyph glyph-name="zero.onum" horiz-adv-x="722" 
d="M673 285c0 -185 -140 -302 -313 -302c-170 0 -310 117 -310 302s140 298 310 298c173 0 313 -113 313 -298zM506 285c0 85 -58 153 -146 153c-87 0 -144 -68 -144 -153c0 -87 57 -155 144 -155c89 0 146 68 146 155z" />
    <glyph glyph-name="eacute.sc" horiz-adv-x="535" 
d="M70 0v563h399v-127h-236v-90h223v-122h-223v-96h250v-128h-413zM468 766l-146 -144h-124l104 144h166z" />
    <glyph glyph-name="dotlessj" horiz-adv-x="299" 
d="M233 -13c0 -123 -38 -227 -199 -227c-22 0 -53 3 -71 8l11 137c12 -4 26 -5 35 -5c48 0 60 36 60 87v511h164v-511z" />
    <glyph glyph-name="atilde" unicode="&#xe3;" horiz-adv-x="566" 
d="M358 200v17h-21c-72 0 -153 -9 -153 -68c0 -38 38 -51 71 -51c66 0 103 40 103 102zM140 341l-83 89c58 55 141 84 222 84c167 0 229 -82 229 -263v-251h-150v53h-3c-25 -41 -82 -65 -141 -65c-79 0 -181 39 -181 156c0 144 175 168 320 168v8c0 49 -39 72 -90 72
c-47 0 -93 -23 -123 -51zM473 708c-8 -70 -40 -132 -113 -132c-28 0 -55 9 -81 21c-27 14 -45 20 -63 20c-24 0 -36 -19 -42 -40h-72c9 69 40 130 113 130c28 0 54 -8 80 -20c28 -13 47 -20 65 -20c25 0 36 17 42 41h71z" />
    <glyph glyph-name="eight.sc" horiz-adv-x="576" 
d="M288 459c-31 0 -54 -22 -54 -54s22 -54 54 -54c31 0 54 22 54 54s-24 54 -54 54zM288 233c-37 0 -64 -25 -64 -63c0 -39 27 -63 64 -63c36 0 64 24 64 63c0 38 -28 63 -64 63zM422 297v-3c60 -23 96 -69 96 -132c0 -120 -104 -178 -230 -178c-125 0 -230 57 -230 178
c0 62 37 109 96 132v3c-50 21 -80 64 -80 117c0 107 95 165 214 165s214 -55 214 -162c0 -57 -29 -99 -80 -120z" />
    <glyph glyph-name="dieresis.sc" 
d="M335 758c-8 -70 -40 -132 -113 -132c-28 0 -55 8 -81 21c-27 13 -45 20 -63 20c-24 0 -36 -19 -42 -40h-72c9 69 40 130 113 130c28 0 54 -8 80 -20c28 -13 47 -20 65 -20c25 0 36 17 42 41h71z" />
    <glyph glyph-name="edieresis.sc" horiz-adv-x="535" 
d="M70 0v563h399v-127h-236v-90h223v-122h-223v-96h250v-128h-413zM459 708c0 -46 -38 -82 -83 -82c-47 0 -83 37 -83 82c0 43 36 81 83 81c45 0 83 -36 83 -81zM242 708c0 -46 -38 -82 -84 -82s-83 37 -83 82c0 43 37 81 83 81s84 -36 84 -81z" />
    <glyph glyph-name="caron.alt" 
d="M281 708l-86 -195h-126l67 195h145z" />
    <glyph glyph-name="Kcommaaccent" unicode="&#x136;" horiz-adv-x="711" 
d="M729 0h-223l-263 326h-2v-326h-168v708h168v-288h3l253 288h214l-305 -326zM443 -45l-86 -195h-126l67 195h145z" />
    <glyph glyph-name="amacron.sc" horiz-adv-x="641" 
d="M-2 0l237 563h174l234 -563h-181l-38 102h-210l-39 -102h-177zM382 222l-63 172l-64 -172h127zM488 651h-336v86h336v-86z" />
    <glyph glyph-name="Ncommaaccent" unicode="&#x145;" horiz-adv-x="790" 
d="M717 0h-194l-285 463h-3l4 -463h-166v708h195l284 -462h3l-4 462h166v-708zM465 -45l-86 -195h-126l67 195h145z" />
    <glyph glyph-name="ccedilla" unicode="&#xe7;" horiz-adv-x="503" 
d="M430 -142c0 -77 -84 -98 -147 -98c-41 0 -88 10 -119 25l27 60c25 -12 57 -19 84 -19c21 0 50 6 50 33c0 24 -27 29 -47 29c-12 0 -28 -2 -40 -6l-31 29l58 77c-131 20 -226 115 -226 261c0 162 123 265 278 265c71 0 146 -27 185 -67l-95 -110c-18 24 -54 40 -87 40
c-69 0 -115 -59 -115 -128s45 -127 117 -127c33 0 69 13 89 37l91 -111c-36 -35 -95 -58 -158 -63l-35 -45c7 1 12 1 18 1c48 0 103 -15 103 -83z" />
    <glyph glyph-name="Itilde" unicode="&#x128;" horiz-adv-x="318" 
d="M245 0h-172v708h172v-708zM345 900c-8 -70 -40 -132 -113 -132c-28 0 -55 9 -81 21c-27 14 -45 20 -63 20c-24 0 -36 -19 -42 -40h-72c9 69 40 130 113 130c28 0 54 -8 80 -20c28 -13 47 -20 65 -20c25 0 36 17 42 41h71z" />
    <glyph glyph-name="thorn" unicode="&#xfe;" horiz-adv-x="659" 
d="M619 251c0 -139 -86 -265 -237 -265c-61 0 -122 27 -151 70h-2v-296h-163v996h163v-311h3c28 33 78 67 152 67c145 0 235 -122 235 -261zM461 251c0 64 -40 127 -118 127c-74 0 -120 -65 -120 -128c0 -65 46 -128 120 -128c78 0 118 64 118 129z" />
    <glyph glyph-name="brokenbar" unicode="&#xa6;" horiz-adv-x="241" 
d="M186 313h-131v362h131v-362zM186 -175h-131v362h131v-362z" />
    <glyph glyph-name="ccircumflex.sc" horiz-adv-x="578" 
d="M562 501l-102 -118c-24 32 -68 49 -108 49c-81 0 -136 -69 -136 -150s54 -149 139 -149c40 0 83 14 109 47l98 -121c-49 -48 -127 -75 -210 -75c-176 0 -313 112 -313 298c0 181 138 297 312 297c80 0 164 -31 211 -78zM547 622h-130l-68 81l-68 -81h-128l124 144h148z
" />
    <glyph glyph-name="Eogonek" unicode="&#x118;" horiz-adv-x="607" 
d="M584 -196c-31 -23 -73 -40 -115 -40c-54 0 -113 26 -113 91c0 57 55 111 102 145h-385v708h476v-145h-311v-133h294v-137h-294v-147h329v-146h-17c-50 -40 -90 -83 -90 -118c0 -21 16 -36 37 -36c19 0 38 8 55 20z" />
    <glyph glyph-name="eacute" unicode="&#xe9;" horiz-adv-x="596" 
d="M196 306h211c0 52 -33 95 -98 95c-63 0 -109 -44 -113 -95zM558 243c0 -13 0 -27 -1 -39h-361c5 -55 60 -94 119 -94c52 0 88 22 110 52l114 -72c-47 -68 -125 -106 -226 -106c-150 0 -274 95 -274 263c0 163 118 267 269 267c147 0 250 -101 250 -271zM477 716
l-146 -144h-124l104 144h166z" />
    <glyph glyph-name="g.sc" horiz-adv-x="645" 
d="M358 -16c-185 0 -319 112 -319 299c0 180 140 296 319 296c97 0 173 -27 228 -74l-108 -123c-30 34 -71 53 -117 53c-84 0 -145 -60 -145 -153c0 -95 58 -154 147 -154c25 0 51 3 71 11v76h-100v118h256v-295c-60 -31 -143 -54 -232 -54z" />
    <glyph glyph-name="Eth" unicode="&#xd0;" horiz-adv-x="774" 
d="M732 356c0 -245 -200 -356 -386 -356h-272v309h-61v107h61v292h273c201 0 385 -100 385 -352zM557 356c0 140 -93 203 -226 203h-90v-143h181v-107h-181v-159h74c139 0 242 59 242 206z" />
    <glyph glyph-name="Lcommaaccent" unicode="&#x13b;" horiz-adv-x="526" 
d="M519 0h-446v708h172v-559h274v-149zM366 -45l-86 -195h-126l67 195h145z" />
    <glyph glyph-name="ecaron.sc" horiz-adv-x="535" 
d="M70 0v563h399v-127h-236v-90h223v-122h-223v-96h250v-128h-413zM468 766l-123 -144h-147l-124 144h130l68 -81l68 81h128z" />
    <glyph glyph-name="estimated" unicode="&#x212e;" horiz-adv-x="500" 
d="M157 259h404c-1 162 -105 276 -259 276c-157 0 -258 -121 -258 -276c0 -154 101 -276 258 -276c105 0 167 40 228 135l-35 21c-50 -84 -110 -120 -193 -120c-58 0 -106 20 -145 59v181zM448 295h-291v145c39 39 87 60 144 60c56 0 105 -20 147 -60v-145z" />
    <glyph glyph-name="eogonek.sc" horiz-adv-x="535" 
d="M70 0v563h399v-127h-236v-90h223v-122h-223v-96h250v-128h-23c-52 -41 -95 -86 -95 -122c0 -21 16 -36 37 -36c19 0 38 8 55 20l32 -62c-31 -23 -73 -40 -115 -40c-54 0 -113 26 -113 91c0 59 60 115 108 149h-299z" />
    <glyph glyph-name="lcommaaccent.sc" horiz-adv-x="471" 
d="M70 0v563h167v-423h208v-140h-375zM329 -45l-86 -195h-126l67 195h145z" />
    <glyph glyph-name="edieresis" unicode="&#xeb;" horiz-adv-x="596" 
d="M196 306h211c0 52 -33 95 -98 95c-63 0 -109 -44 -113 -95zM558 243c0 -13 0 -27 -1 -39h-361c5 -55 60 -94 119 -94c52 0 88 22 110 52l114 -72c-47 -68 -125 -106 -226 -106c-150 0 -274 95 -274 263c0 163 118 267 269 267c147 0 250 -101 250 -271zM505 658
c0 -46 -38 -82 -83 -82c-47 0 -83 37 -83 82c0 43 36 81 83 81c45 0 83 -36 83 -81zM288 658c0 -46 -38 -82 -84 -82s-83 37 -83 82c0 43 37 81 83 81s84 -36 84 -81z" />
    <glyph glyph-name="ae.sc" horiz-adv-x="892" 
d="M427 0v112h-177l-64 -112h-191l329 563h502v-127h-236v-90h223v-122h-223v-96h250v-128h-413zM420 430l-111 -198h118v198h-7z" />
    <glyph glyph-name="ccaron.sc" horiz-adv-x="578" 
d="M562 501l-102 -118c-24 32 -68 49 -108 49c-81 0 -136 -69 -136 -150s54 -149 139 -149c40 0 83 14 109 47l98 -121c-49 -48 -127 -75 -210 -75c-176 0 -313 112 -313 298c0 181 138 297 312 297c80 0 164 -31 211 -78zM548 766l-123 -144h-147l-124 144h130l68 -81
l68 81h128z" />
    <glyph glyph-name="ecircumflex" unicode="&#xea;" horiz-adv-x="596" 
d="M196 306h211c0 52 -33 95 -98 95c-63 0 -109 -44 -113 -95zM558 243c0 -13 0 -27 -1 -39h-361c5 -55 60 -94 119 -94c52 0 88 22 110 52l114 -72c-47 -68 -125 -106 -226 -106c-150 0 -274 95 -274 263c0 163 118 267 269 267c147 0 250 -101 250 -271zM511 572h-130
l-68 81l-68 -81h-128l124 144h148z" />
    <glyph glyph-name="v.sc" horiz-adv-x="589" 
d="M210 0l-214 563h181l118 -361h4l117 361h177l-218 -563h-165z" />
    <glyph glyph-name="thorn.sc" horiz-adv-x="556" 
d="M70 0v563h167v-72h75c155 0 222 -71 222 -183c0 -119 -87 -188 -226 -188h-71v-120h-167zM237 248h51c54 0 78 21 78 59c0 37 -24 57 -76 57h-53v-116z" />
    <glyph glyph-name="ring.cap" 
d="M259 856c0 -62 -49 -107 -109 -107s-109 45 -109 106c0 62 48 108 109 108c60 0 109 -46 109 -107zM209 856c0 33 -26 58 -59 58c-34 0 -59 -26 -59 -59c0 -32 26 -57 59 -57s59 25 59 58z" />
    <glyph glyph-name="emacron" unicode="&#x113;" horiz-adv-x="596" 
d="M196 306h211c0 52 -33 95 -98 95c-63 0 -109 -44 -113 -95zM558 243c0 -13 0 -27 -1 -39h-361c5 -55 60 -94 119 -94c52 0 88 22 110 52l114 -72c-47 -68 -125 -106 -226 -106c-150 0 -274 95 -274 263c0 163 118 267 269 267c147 0 250 -101 250 -271zM480 601h-336v86
h336v-86z" />
    <glyph glyph-name="e.sc" horiz-adv-x="535" 
d="M70 0v563h399v-127h-236v-90h223v-122h-223v-96h250v-128h-413z" />
    <glyph glyph-name="abreve.sc" horiz-adv-x="641" 
d="M-2 0l237 563h174l234 -563h-181l-38 102h-210l-39 -102h-177zM382 222l-63 172l-64 -172h127zM494 766c-9 -104 -82 -144 -175 -144c-91 0 -166 39 -173 144h84c7 -43 49 -55 90 -55c45 0 81 8 90 55h84z" />
    <glyph glyph-name="adieresis.sc" horiz-adv-x="641" 
d="M-2 0l237 563h174l234 -563h-181l-38 102h-210l-39 -102h-177zM382 222l-63 172l-64 -172h127zM512 708c0 -46 -38 -82 -83 -82c-47 0 -83 37 -83 82c0 43 36 81 83 81c45 0 83 -36 83 -81zM295 708c0 -46 -38 -82 -84 -82s-83 37 -83 82c0 43 37 81 83 81s84 -36 84 -81
z" />
    <glyph glyph-name="ccircumflex" unicode="&#x109;" horiz-adv-x="503" 
d="M502 447l-95 -110c-18 24 -54 40 -87 40c-69 0 -115 -59 -115 -128s45 -127 117 -127c33 0 69 13 89 37l91 -111c-41 -40 -111 -64 -184 -64c-157 0 -279 100 -279 265c0 162 123 265 278 265c71 0 146 -27 185 -67zM516 572h-130l-68 81l-68 -81h-128l124 144h148z" />
    <glyph glyph-name="five.sc" horiz-adv-x="576" 
d="M512 187c0 -136 -101 -203 -228 -203c-115 0 -196 50 -230 151l151 46c15 -43 45 -61 75 -61c41 0 66 26 66 62c0 54 -40 75 -91 75c-37 0 -107 -12 -153 -29l14 335h367v-127h-219l-5 -71c16 4 43 6 57 6c114 0 196 -63 196 -184z" />
    <glyph glyph-name="ecircumflex.sc" horiz-adv-x="535" 
d="M70 0v563h399v-127h-236v-90h223v-122h-223v-96h250v-128h-413zM464 622h-130l-68 81l-68 -81h-128l124 144h148z" />
    <glyph glyph-name="circumflex.cap" 
d="M347 764h-130l-68 81l-68 -81h-128l124 144h148z" />
    <glyph glyph-name="commaaccent" 
d="M235 -45l-86 -195h-126l67 195h145z" />
    <glyph glyph-name="ycircumflex" unicode="&#x177;" horiz-adv-x="567" 
d="M568 498l-223 -573c-40 -104 -94 -165 -219 -165c-31 0 -66 5 -90 11l18 138c16 -5 37 -9 53 -9c51 0 68 24 84 67l16 41l-208 490h182l111 -320h3l99 320h174zM489 572h-130l-68 81l-68 -81h-128l124 144h148z" />
    <glyph glyph-name="Nacute" unicode="&#x143;" horiz-adv-x="790" 
d="M717 0h-194l-285 463h-3l4 -463h-166v708h195l284 -462h3l-4 462h166v-708zM588 908l-146 -144h-124l104 144h166z" />
    <glyph glyph-name="rcommaaccent" unicode="&#x157;" horiz-adv-x="396" 
d="M394 508l-7 -144c-15 4 -29 5 -42 5c-88 0 -117 -72 -117 -113v-256h-164v498h158v-72h2c25 50 74 86 135 86c13 0 27 -1 35 -4zM224 -46l-86 -195h-126l67 195h145z" />
    <glyph glyph-name="cacute.sc" horiz-adv-x="578" 
d="M562 501l-102 -118c-24 32 -68 49 -108 49c-81 0 -136 -69 -136 -150s54 -149 139 -149c40 0 83 14 109 47l98 -121c-49 -48 -127 -75 -210 -75c-176 0 -313 112 -313 298c0 181 138 297 312 297c80 0 164 -31 211 -78zM515 766l-146 -144h-124l104 144h166z" />
    <glyph glyph-name="egrave" unicode="&#xe8;" horiz-adv-x="596" 
d="M196 306h211c0 52 -33 95 -98 95c-63 0 -109 -44 -113 -95zM558 243c0 -13 0 -27 -1 -39h-361c5 -55 60 -94 119 -94c52 0 88 22 110 52l114 -72c-47 -68 -125 -106 -226 -106c-150 0 -274 95 -274 263c0 163 118 267 269 267c147 0 250 -101 250 -271zM402 572h-124
l-146 144h166z" />
    <glyph glyph-name="breve.cap" 
d="M324 908c-9 -104 -82 -144 -175 -144c-91 0 -166 39 -173 144h84c7 -43 49 -55 90 -55c45 0 81 8 90 55h84z" />
    <glyph glyph-name="tcommaaccent" unicode="&#x163;" horiz-adv-x="372" 
d="M359 375h-117v-190c0 -46 15 -70 62 -70c16 0 36 3 48 8l2 -120c-22 -8 -60 -15 -95 -15c-133 0 -177 71 -177 177v210h-80v123h79v131h161v-131h117v-123zM288 -45l-86 -195h-126l67 195h145z" />
    <glyph glyph-name="dcaron" unicode="&#x10f;" horiz-adv-x="791" 
d="M592 0h-151v65h-2c-32 -50 -97 -79 -163 -79c-150 0 -237 126 -237 265s90 261 235 261c73 0 124 -34 152 -67h2v311h164v-756zM435 250c0 63 -46 128 -120 128c-78 0 -118 -63 -118 -127c0 -65 40 -129 118 -129c74 0 120 63 120 128zM832 708l-86 -195h-126l67 195h145
z" />
    <glyph glyph-name="gbreve" unicode="&#x11f;" horiz-adv-x="658" 
d="M592 47c0 -195 -116 -287 -293 -287c-87 0 -189 28 -256 78l82 117c48 -42 109 -63 165 -63c96 0 141 56 141 139v30h-3c-31 -40 -85 -66 -151 -66c-151 0 -238 118 -238 256s87 261 237 261c62 0 124 -25 159 -78h2v64h155v-451zM436 252c0 68 -47 126 -121 126
s-117 -57 -117 -126c0 -66 43 -127 117 -127c75 0 121 59 121 127zM499 716c-9 -104 -82 -144 -175 -144c-91 0 -166 39 -173 144h84c4 -21 16 -35 32 -44c17 -8 38 -11 58 -11c45 0 81 8 90 55h84z" />
    <glyph glyph-name="edotaccent.sc" horiz-adv-x="535" 
d="M70 0v563h399v-127h-236v-90h223v-122h-223v-96h250v-128h-413zM361 707c0 -48 -40 -85 -90 -85s-89 39 -89 85s39 86 89 86s90 -38 90 -86z" />
    <glyph glyph-name="six.sc" horiz-adv-x="576" 
d="M294 370l2 -2c11 4 24 5 35 5c110 0 193 -60 193 -180c0 -127 -101 -209 -237 -209s-237 82 -237 212c0 70 34 134 75 195l114 172h200zM287 263c-40 0 -71 -28 -72 -73s32 -71 72 -71c39 0 72 26 72 71s-33 73 -72 73z" />
    <glyph glyph-name="egrave.sc" horiz-adv-x="535" 
d="M70 0v563h399v-127h-236v-90h223v-122h-223v-96h250v-128h-413zM352 622h-124l-146 144h166z" />
    <glyph glyph-name="c.sc" horiz-adv-x="578" 
d="M562 501l-102 -118c-24 32 -68 49 -108 49c-81 0 -136 -69 -136 -150s54 -149 139 -149c40 0 83 14 109 47l98 -121c-49 -48 -127 -75 -210 -75c-176 0 -313 112 -313 298c0 181 138 297 312 297c80 0 164 -31 211 -78z" />
    <glyph glyph-name="circumflex.sc" 
d="M347 622h-130l-68 81l-68 -81h-128l124 144h148z" />
    <glyph glyph-name="degree" unicode="&#xb0;" horiz-adv-x="416" 
d="M376 558c0 -94 -74 -168 -168 -168s-168 74 -168 168s74 167 168 167s168 -73 168 -167zM296 558c0 48 -39 88 -88 88s-88 -40 -88 -88c0 -49 39 -88 88 -88s88 39 88 88z" />
    <glyph glyph-name="t.sc" horiz-adv-x="483" 
d="M325 425v-425h-167v425h-153v138h473v-138h-153z" />
    <glyph glyph-name="dieresis.cap" 
d="M342 850c0 -46 -38 -82 -83 -82c-47 0 -83 37 -83 82c0 43 36 81 83 81c45 0 83 -36 83 -81zM125 850c0 -46 -38 -82 -84 -82s-83 37 -83 82c0 43 37 81 83 81s84 -36 84 -81z" />
    <glyph glyph-name="sacute.sc" horiz-adv-x="507" 
d="M473 498l-95 -103c-29 27 -68 50 -111 50c-31 0 -64 -13 -64 -45c0 -31 28 -41 95 -57c81 -19 168 -59 168 -168c0 -142 -118 -191 -225 -191c-85 0 -174 30 -228 87l96 108c31 -36 80 -62 130 -62c28 0 61 12 61 48c0 34 -33 46 -104 64c-73 18 -153 55 -153 161
c0 133 118 189 219 189c78 0 159 -28 211 -81zM441 766l-146 -144h-124l104 144h166z" />
    <glyph glyph-name="caron.sc" 
d="M347 766l-123 -144h-147l-124 144h130l68 -81l68 81h128z" />
    <glyph glyph-name="cacute" unicode="&#x107;" horiz-adv-x="503" 
d="M502 447l-95 -110c-18 24 -54 40 -87 40c-69 0 -115 -59 -115 -128s45 -127 117 -127c33 0 69 13 89 37l91 -111c-41 -40 -111 -64 -184 -64c-157 0 -279 100 -279 265c0 162 123 265 278 265c71 0 146 -27 185 -67zM503 716l-146 -144h-124l104 144h166z" />
    <glyph glyph-name="copyright" unicode="&#xa9;" horiz-adv-x="800" 
d="M780 353c0 -209 -170 -375 -379 -375c-210 0 -381 166 -381 375c0 210 171 377 381 377c209 0 379 -167 379 -377zM720 353c0 177 -143 321 -319 321c-177 0 -321 -144 -321 -321c0 -176 142 -319 319 -319c176 0 321 143 321 319zM585 510l-77 -70c-19 24 -54 39 -90 39
c-74 0 -114 -62 -114 -126s41 -128 120 -128c34 0 68 13 88 36l72 -76c-38 -40 -99 -63 -165 -63c-130 0 -237 83 -237 230c0 142 108 229 237 229c66 0 130 -26 166 -71z" />
    <glyph glyph-name="d.sc" horiz-adv-x="655" 
d="M293 0h-223v563h218c170 0 328 -67 328 -280c0 -197 -157 -283 -323 -283zM236 432v-299h42c89 0 162 37 162 152c0 111 -70 147 -159 147h-45z" />
    <glyph glyph-name="cdotaccent.sc" horiz-adv-x="578" 
d="M562 501l-102 -118c-24 32 -68 49 -108 49c-81 0 -136 -69 -136 -150s54 -149 139 -149c40 0 83 14 109 47l98 -121c-49 -48 -127 -75 -210 -75c-176 0 -313 112 -313 298c0 181 138 297 312 297c80 0 164 -31 211 -78zM441 707c0 -48 -40 -85 -90 -85s-89 39 -89 85
s39 86 89 86s90 -38 90 -86z" />
    <glyph glyph-name="f.sc" horiz-adv-x="503" 
d="M236 436v-104h207v-122h-206v-210h-167v563h392v-127h-226z" />
    <glyph glyph-name="gcommaaccent" unicode="&#x123;" horiz-adv-x="658" 
d="M592 47c0 -195 -116 -287 -293 -287c-87 0 -189 28 -256 78l82 117c48 -42 109 -63 165 -63c96 0 141 56 141 139v30h-3c-31 -40 -85 -66 -151 -66c-151 0 -238 118 -238 256s87 261 237 261c62 0 124 -25 159 -78h2v64h155v-451zM436 252c0 68 -47 126 -121 126
s-117 -57 -117 -126c0 -66 43 -127 117 -127c75 0 121 59 121 127zM247 572l86 195h126l-67 -195h-145z" />
    <glyph glyph-name="commaaccent.alt" 
d="M56 572l86 195h126l-67 -195h-145z" />
    <glyph glyph-name="tcaron.sc" horiz-adv-x="483" 
d="M325 425v-425h-167v425h-153v138h473v-138h-153zM439 766l-123 -144h-147l-124 144h130l68 -81l68 81h128z" />
    <glyph glyph-name="gdotaccent.sc" horiz-adv-x="645" 
d="M358 -16c-185 0 -319 112 -319 299c0 180 140 296 319 296c97 0 173 -27 228 -74l-108 -123c-30 34 -71 53 -117 53c-84 0 -145 -60 -145 -153c0 -95 58 -154 147 -154c25 0 51 3 71 11v76h-100v118h256v-295c-60 -31 -143 -54 -232 -54zM451 707c0 -48 -40 -85 -90 -85
s-89 39 -89 85s39 86 89 86s90 -38 90 -86z" />
    <glyph glyph-name="gcommaaccent.sc" horiz-adv-x="645" 
d="M358 -16c-185 0 -319 112 -319 299c0 180 140 296 319 296c97 0 173 -27 228 -74l-108 -123c-30 34 -71 53 -117 53c-84 0 -145 -60 -145 -153c0 -95 58 -154 147 -154c25 0 51 3 71 11v76h-100v118h256v-295c-60 -31 -143 -54 -232 -54zM418 -45l-86 -195h-126l67 195
h145z" />
    <glyph glyph-name="gcircumflex.sc" horiz-adv-x="645" 
d="M358 -16c-185 0 -319 112 -319 299c0 180 140 296 319 296c97 0 173 -27 228 -74l-108 -123c-30 34 -71 53 -117 53c-84 0 -145 -60 -145 -153c0 -95 58 -154 147 -154c25 0 51 3 71 11v76h-100v118h256v-295c-60 -31 -143 -54 -232 -54zM557 622h-130l-68 81l-68 -81
h-128l124 144h148z" />
    <glyph glyph-name="space" unicode=" " horiz-adv-x="250" 
 />
    <glyph glyph-name=".null" horiz-adv-x="500" 
 />
    <glyph glyph-name=".null" horiz-adv-x="500" 
 />
    </font>
</defs>
</svg>
