<?xml version="1.0" encoding="UTF-8"?>
<svg width="20px" height="16px" viewBox="0 0 20 16" version="1.1" xmlns="http://www.w3.org/2000/svg" xmlns:xlink="http://www.w3.org/1999/xlink">
    <!-- Generator: Sketch 50.2 (55047) - http://www.bohemiancoding.com/sketch -->
    <title>twitter</title>
    <desc>Created with Sketch.</desc>
    <defs></defs>
    <g id="Desktop:-1200" stroke="none" stroke-width="1" fill="none" fill-rule="evenodd">
        <g id="CoinFi-News-Landing-Page---Alternative-top" transform="translate(-672.000000, -5092.000000)">
            <g id="Footer" transform="translate(0.000000, 4959.000000)">
                <g id="Group-5" transform="translate(631.000000, 131.000000)">
                    <g id="twitter" transform="translate(41.000000, 0.000000)">
                        <rect id="Rectangle-5" x="0" y="0" width="20" height="20"></rect>
                        <path d="M19.1632,3.8584 C18.4552,4.1696 17.6992,4.3816 16.9032,4.4784 C17.7144,3.9896 18.3384,3.2192 18.6336,2.3 C17.8728,2.744 17.0296,3.0672 16.132,3.2472 C15.4152,2.48 14.3936,2 13.2592,2 C11.0856,2 9.3232,3.7624 9.3232,5.9336 C9.3232,6.2456 9.3592,6.5456 9.4248,6.8328 C6.1528,6.6784 3.2528,5.1072 1.312,2.732 C0.9704,3.3096 0.7792,3.9808 0.7792,4.712 C0.7792,6.08 1.4752,7.2824 2.5296,7.9888 C1.884,7.968 1.2768,7.7904 0.7472,7.496 L0.7472,7.5448 C0.7472,9.4528 2.1016,11.044 3.904,11.4064 C3.5736,11.4952 3.2248,11.5432 2.8672,11.5432 C2.616,11.5432 2.3752,11.5192 2.1344,11.4744 C2.6392,13.0368 4.0904,14.176 5.8176,14.208 C4.4736,15.2632 2.7704,15.892 0.936,15.892 C0.624,15.892 0.3128,15.8736 0,15.8384 C1.7512,16.9536 3.8144,17.6056 6.0456,17.6056 C13.2888,17.6056 17.2448,11.6088 17.2448,6.4168 C17.2448,6.2496 17.2448,6.0808 17.2328,5.9128 C18.0016,5.3616 18.6728,4.6648 19.2008,3.8744 L19.1632,3.8584 Z" id="Shape" fill="#FFFFFF" fill-rule="nonzero"></path>
                    </g>
                </g>
            </g>
        </g>
    </g>
</svg>