<?xml version="1.0" encoding="UTF-8"?>
<svg width="13px" height="20px" viewBox="0 0 13 20" version="1.1" xmlns="http://www.w3.org/2000/svg" xmlns:xlink="http://www.w3.org/1999/xlink">
    <!-- Generator: Sketch 50.2 (55047) - http://www.bohemiancoding.com/sketch -->
    <title>angellist</title>
    <desc>Created with Sketch.</desc>
    <defs></defs>
    <g id="Desktop:-1200" stroke="none" stroke-width="1" fill="none" fill-rule="evenodd">
        <g id="CoinFi-News-Landing-Page---Alternative-top" transform="translate(-757.000000, -5091.000000)">
            <g id="Footer" transform="translate(0.000000, 4959.000000)">
                <g id="Group-5" transform="translate(631.000000, 131.000000)">
                    <g id="angellist" transform="translate(123.000000, 1.000000)">
                        <rect id="Rectangle-6" x="0" y="0" width="20" height="20"></rect>
                        <path d="M12.9835556,7.98 C13.5552222,6.38 14.0024444,5.06 14.3236667,4.0168 C14.6425556,2.9768 14.8043333,2.3368 14.8043333,2.0968 C14.8043333,1.8448 14.7498889,1.6456 14.641,1.5064 C14.536,1.3672 14.389,1.2952 14.2,1.2952 C13.9588889,1.2952 13.71,1.4992 13.4688889,1.9072 C13.22,2.3152 12.9477778,2.9744 12.6444444,3.8808 L11.3611111,7.6888 L12.9788889,7.9784 L12.9711111,7.9784 L12.9711111,7.98 L12.9835556,7.98 Z M11.2778889,11.528 C10.9092222,11.504 10.56,11.464 10.2325556,11.408 C9.90588889,11.344 9.587,11.256 9.28677778,11.144 C9.42444444,11.424 9.54733333,11.704 9.65388889,11.984 C9.76122222,12.264 9.84833333,12.536 9.91833333,12.816 C10.1205556,12.552 10.3383333,12.312 10.5638889,12.096 C10.791,11.88 11.0305556,11.688 11.2755556,11.52 L11.2778889,11.528 Z M9.82966667,7.528 L8.44522222,3.416 C8.08433333,2.368 7.80744444,1.688 7.60911111,1.36 C7.41466667,1.04 7.20077778,0.88 6.96977778,0.88 C6.79088889,0.88 6.64544444,0.944 6.53422222,1.088 C6.42222222,1.232 6.36777778,1.416 6.36777778,1.648 C6.36777778,2.048 6.51555556,2.752 6.81111111,3.76 C7.10666667,4.76 7.55777778,6.072 8.15666667,7.704 C8.20333333,7.608 8.28111111,7.536 8.37444444,7.496 C8.46777778,7.456 8.59222222,7.432 8.75555556,7.432 C8.80222222,7.432 8.90333333,7.44 9.05888889,7.44 C9.20666667,7.456 9.46333333,7.472 9.81333333,7.512 L9.82966667,7.528 Z M8.57122222,13.896 C8.71744444,13.896 8.85122222,13.824 8.96788889,13.688 C9.08455556,13.544 9.14988889,13.4 9.14988889,13.248 C9.14988889,13.08 9.03322222,12.688 8.79833333,12.08 C8.565,11.472 8.26944444,10.872 7.91944444,10.28 C7.66277778,9.84 7.41,9.504 7.165,9.28 C6.913,9.056 6.67888889,8.944 6.45722222,8.944 C6.27833333,8.944 6.08077778,9.056 5.86066667,9.296 C5.64288889,9.528 5.534,9.744 5.534,9.944 C5.534,10.152 5.64288889,10.472 5.85522222,10.888 C6.06911111,11.312 6.35688889,11.76 6.71388889,12.232 C7.09111111,12.752 7.445,13.152 7.77944444,13.44 C8.11233333,13.728 8.37833333,13.872 8.57277778,13.872 L8.57122222,13.872 L8.57122222,13.896 Z M4.72511111,13.576 C4.84644444,13.728 5.01288889,13.944 5.22755556,14.232 C5.78988889,15.032 6.31255556,15.432 6.79088889,15.432 C6.95422222,15.432 7.09966667,15.376 7.22877778,15.272 C7.35633333,15.16 7.42088889,15.056 7.42088889,14.936 C7.42088889,14.8 7.33533333,14.584 7.16422222,14.272 C6.99155556,13.96 6.75666667,13.616 6.45877778,13.232 C6.11655556,12.784 5.83266667,12.456 5.60477778,12.248 C5.38077778,12.04 5.19644444,11.936 5.06266667,11.936 C4.76711111,11.936 4.48711111,12.104 4.23822222,12.432 C3.98933333,12.752 3.86488889,13.152 3.86488889,13.6 C3.86488889,13.96 3.95822222,14.36 4.13711111,14.808 C4.316,15.248 4.56488889,15.696 4.89933333,16.144 C5.40488889,16.84 6.03488889,17.368 6.78155556,17.744 C7.52822222,18.112 8.36044444,18.296 9.26266667,18.296 C10.9271111,18.296 12.3271111,17.656 13.4471111,16.376 C14.5748889,15.096 15.1348889,13.496 15.1348889,11.568 C15.1348889,10.976 15.096,10.504 15.0104444,10.16 C14.9248889,9.816 14.7848889,9.56 14.5904444,9.4 C14.2404444,9.096 13.556,8.832 12.5448889,8.592 C11.5337778,8.352 10.476,8.232 9.37155556,8.232 C9.06822222,8.232 8.84266667,8.288 8.71822222,8.392 C8.59377778,8.496 8.53155556,8.68 8.53155556,8.9304 C8.53155556,9.5304 8.85822222,9.9624 9.51155556,10.2312 C10.1648889,10.5032 11.2148889,10.6392 12.6693333,10.6392 L13.1951111,10.6392 C13.3117778,10.6392 13.4128889,10.6872 13.4828889,10.7784 C13.5528889,10.8664 13.5995556,11.0024 13.6228889,11.1944 C13.4751111,11.3304 13.1795556,11.4904 12.7253333,11.6744 C12.2664444,11.8504 11.9242222,12.0344 11.6831111,12.2064 C11.1697778,12.5936 10.7575556,13.0544 10.4464444,13.5856 C10.1353333,14.1136 9.97977778,14.6176 9.97977778,15.092 C9.97977778,15.38 10.0466667,15.732 10.1804444,16.14 C10.3126667,16.548 10.3826667,16.7984 10.3826667,16.9 L10.3826667,16.988 L10.3593333,17.108 C9.986,17.084 9.69044444,16.8576 9.47266667,16.428 C9.24944444,16.004 9.146,15.436 9.146,14.724 L9.146,14.604 C9.076,14.664 9.00911111,14.712 8.94377778,14.736 C8.87688889,14.7632 8.80533333,14.776 8.73377778,14.776 C8.656,14.776 8.57977778,14.7712 8.50822222,14.76 C8.43822222,14.7472 8.36822222,14.728 8.28266667,14.7 C8.306,14.796 8.327,14.892 8.34177778,14.9824 C8.34955556,15.0784 8.35733333,15.1504 8.35733333,15.1984 C8.35733333,15.5232 8.23288889,15.8064 7.984,16.0384 C7.73511111,16.268 7.43955556,16.3824 7.09733333,16.3824 C6.56066667,16.3824 6.01077778,16.1104 5.45622222,15.5744 C4.90011111,15.0352 4.624,14.5024 4.624,13.9864 C4.624,13.8904 4.63566667,13.8024 4.65511111,13.728 C4.67455556,13.6536 4.71344444,13.592 4.764,13.536 L4.72511111,13.576 Z M13.9083333,8.192 C14.6744444,8.336 15.2188889,8.672 15.5338889,9.192 C15.8527778,9.704 16.0083333,10.52 16.0083333,11.64 C16.0083333,13.856 15.3643333,15.664 14.0701111,17.072 C12.7735556,18.48 11.1168889,19.192 9.10244444,19.192 C8.30677778,19.192 7.53444444,19.04 6.78777778,18.744 C6.03333333,18.448 5.39555556,18.032 4.85111111,17.512 C4.23666667,16.928 3.77,16.32 3.46666667,15.672 C3.15555556,15.024 3,14.36 3,13.688 C3,12.928 3.15555556,12.344 3.46666667,11.936 C3.77777778,11.52 4.28333333,11.24 4.96777778,11.088 C4.83555556,10.776 4.74222222,10.52 4.68777778,10.304 C4.62555556,10.088 4.59444444,9.928 4.59444444,9.816 C4.59444444,9.416 4.79666667,9.008 5.20111111,8.6 C5.60555556,8.184 5.98666667,7.976 6.34444444,7.976 C6.49222222,7.976 6.65555556,8 6.82666667,8.064 C6.99777778,8.12 7.19222222,8.216 7.41,8.344 C6.78,6.464 6.29777778,4.984 6.00222222,3.944 C5.69888889,2.896 5.55111111,2.184 5.55111111,1.784 C5.55111111,1.24 5.68333333,0.8 5.95555556,0.48 C6.23555556,0.16 6.60888889,0 7.07555556,0 C7.87666667,0 8.89555556,1.848 10.1322222,5.5384 C10.35,6.1704 10.5055556,6.6584 10.6222222,7.0024 L11.0188889,5.84 C12.2555556,2.2 13.3133333,0.376 14.2077778,0.376 C14.6433333,0.376 14.9933333,0.528 15.25,0.832 C15.5066667,1.1384 15.6388889,1.5416 15.6388889,2.0504 C15.6388889,2.4344 15.4911111,3.1384 15.2033333,4.1704 C14.9178889,5.1944 14.4877778,6.5384 13.9044444,8.2024 L13.9083333,8.192 Z" id="Shape" fill="#FFFFFF" fill-rule="nonzero"></path>
                    </g>
                </g>
            </g>
        </g>
    </g>
</svg>