<?xml version="1.0" encoding="UTF-8"?>
<svg width="20px" height="20px" viewBox="0 0 20 20" version="1.1" xmlns="http://www.w3.org/2000/svg" xmlns:xlink="http://www.w3.org/1999/xlink">
    <!-- Generator: Sketch 50.2 (55047) - http://www.bohemiancoding.com/sketch -->
    <title>github</title>
    <desc>Created with Sketch.</desc>
    <defs></defs>
    <g id="Desktop:-1200" stroke="none" stroke-width="1" fill="none" fill-rule="evenodd">
        <g id="CoinFi-News-Landing-Page---Alternative-top" transform="translate(-790.000000, -5091.000000)" fill="#FFFFFF" fill-rule="nonzero">
            <g id="Footer" transform="translate(0.000000, 4959.000000)">
                <g id="Group-5" transform="translate(631.000000, 131.000000)">
                    <g id="github" transform="translate(159.000000, 1.000000)">
                        <path d="M10,0.2475 C4.475,0.2475 0,4.725 0,10.2475 C0,14.6666667 2.865,18.4141667 6.8375,19.735 C7.3375,19.8291667 7.52083333,19.52 7.52083333,19.2541667 C7.52083333,19.0166667 7.5125,18.3875 7.50833333,17.5541667 C4.72666667,18.1575 4.14,16.2125 4.14,16.2125 C3.685,15.0583333 3.0275,14.75 3.0275,14.75 C2.12166667,14.13 3.0975,14.1425 3.0975,14.1425 C4.10166667,14.2125 4.62916667,15.1725 4.62916667,15.1725 C5.52083333,16.7016667 6.97,16.26 7.54166667,16.0041667 C7.63166667,15.3575 7.88916667,14.9166667 8.175,14.6666667 C5.95416667,14.4166667 3.62,13.5566667 3.62,9.725 C3.62,8.63333333 4.0075,7.74166667 4.64916667,7.04166667 C4.53666667,6.78916667 4.19916667,5.7725 4.73666667,4.395 C4.73666667,4.395 5.57416667,4.12666667 7.48666667,5.42 C8.28666667,5.1975 9.13666667,5.0875 9.98666667,5.0825 C10.8366667,5.0875 11.6866667,5.1975 12.4866667,5.42 C14.3866667,4.12666667 15.2241667,4.395 15.2241667,4.395 C15.7616667,5.7725 15.4241667,6.78916667 15.3241667,7.04166667 C15.9616667,7.74166667 16.3491667,8.63333333 16.3491667,9.725 C16.3491667,13.5666667 14.0116667,14.4125 11.7866667,14.6583333 C12.1366667,14.9583333 12.4616667,15.5716667 12.4616667,16.5083333 C12.4616667,17.8466667 12.4491667,18.9216667 12.4491667,19.2466667 C12.4491667,19.5091667 12.6241667,19.8216667 13.1366667,19.7216667 C17.1375,18.41 20,14.66 20,10.2475 C20,4.725 15.5225,0.2475 10,0.2475" id="Shape"></path>
                    </g>
                </g>
            </g>
        </g>
    </g>
</svg>