<svg width="24" height="24" viewBox="0 0 24 24" fill="none" xmlns="http://www.w3.org/2000/svg">
<path fill-rule="evenodd" clip-rule="evenodd" d="M11.8859 9.51227C12.3462 9.51227 12.7193 9.80733 12.7193 10.1713V17.7597C12.7193 18.1236 12.3462 18.4187 11.8859 18.4187C11.4257 18.4187 11.0526 18.1236 11.0526 17.7597V10.1713C11.0526 9.80733 11.4257 9.51227 11.8859 9.51227Z" fill="white"/>
<path fill-rule="evenodd" clip-rule="evenodd" d="M10.9015 10.1712C10.9015 9.6935 11.3765 9.36218 11.8848 9.36218C12.3932 9.36218 12.8682 9.6935 12.8682 10.1712V17.7596C12.8682 18.2373 12.3932 18.5686 11.8848 18.5686C11.3765 18.5686 10.9015 18.2373 10.9015 17.7596V10.1712ZM11.8848 9.66218C11.4727 9.66218 11.2015 9.92099 11.2015 10.1712V17.7596C11.2015 18.0098 11.4727 18.2686 11.8848 18.2686C12.2969 18.2686 12.5682 18.0098 12.5682 17.7596V10.1712C12.5682 9.92099 12.2969 9.66218 11.8848 9.66218Z" fill="white"/>
<path d="M13.2228 6.63794C13.2228 7.37717 12.6235 7.97644 11.8843 7.97644C11.145 7.97644 10.5458 7.37717 10.5458 6.63794C10.5458 5.89871 11.145 5.29944 11.8843 5.29944C12.6235 5.29944 13.2228 5.89871 13.2228 6.63794Z" fill="white"/>
<path fill-rule="evenodd" clip-rule="evenodd" d="M12 20.5C16.6944 20.5 20.5 16.6944 20.5 12C20.5 7.30558 16.6944 3.5 12 3.5C7.30558 3.5 3.5 7.30558 3.5 12C3.5 16.6944 7.30558 20.5 12 20.5ZM12 22C17.5228 22 22 17.5228 22 12C22 6.47715 17.5228 2 12 2C6.47715 2 2 6.47715 2 12C2 17.5228 6.47715 22 12 22Z" fill="white"/>
</svg>
